<?xml version="1.0" encoding="UTF-8"?>
<svg xmlns="http://www.w3.org/2000/svg" xmlns:xlink="http://www.w3.org/1999/xlink" width="720pt" height="504pt" viewBox="0 0 720 504" version="1.1">
<g id="surface34">
<rect x="0" y="0" width="720" height="504" style="fill:rgb(100%,100%,100%);fill-opacity:1;stroke:none;"/>
<path style="fill:none;stroke-width:7.5;stroke-linecap:round;stroke-linejoin:round;stroke:rgb(11.764706%,56.470588%,100%);stroke-opacity:1;stroke-miterlimit:10;" d="M 82.398438 416.800781 L 88.238281 416.757812 L 94.078125 416.699219 L 99.921875 416.621094 L 105.761719 416.519531 L 111.601562 416.386719 L 117.441406 416.214844 L 123.28125 415.988281 L 129.121094 415.699219 L 134.960938 415.328125 L 140.800781 414.859375 L 146.640625 414.265625 L 152.480469 413.527344 L 158.320312 412.609375 L 164.160156 411.476562 L 170 410.085938 L 175.839844 408.402344 L 181.679688 406.363281 L 187.519531 403.925781 L 193.359375 401.023438 L 199.199219 397.597656 L 205.039062 393.585938 L 210.878906 388.917969 L 216.71875 383.527344 L 222.558594 377.355469 L 228.398438 370.34375 L 234.238281 362.4375 L 240.078125 353.597656 L 245.921875 343.789062 L 251.761719 333.003906 L 257.601562 321.238281 L 263.441406 308.519531 L 269.28125 294.894531 L 275.121094 280.4375 L 280.960938 265.234375 L 286.800781 249.417969 L 292.640625 233.128906 L 298.480469 216.542969 L 304.320312 199.855469 L 310.160156 183.277344 L 316 167.035156 L 321.839844 151.371094 L 327.679688 136.527344 L 333.519531 122.738281 L 339.359375 110.242188 L 345.199219 99.257812 L 351.039062 89.976562 L 356.878906 82.570312 L 362.71875 77.175781 L 368.558594 73.898438 L 374.398438 72.800781 L 380.238281 73.898438 L 386.078125 77.175781 L 391.921875 82.570312 L 397.761719 89.976562 L 403.601562 99.257812 L 409.441406 110.242188 L 415.28125 122.738281 L 421.121094 136.527344 L 426.960938 151.371094 L 432.800781 167.035156 L 438.640625 183.277344 L 444.480469 199.855469 L 450.320312 216.542969 L 456.160156 233.128906 L 462 249.417969 L 467.839844 265.234375 L 473.679688 280.4375 L 479.519531 294.894531 L 485.359375 308.519531 L 491.199219 321.238281 L 497.039062 333.003906 L 502.878906 343.789062 L 508.71875 353.597656 L 514.558594 362.4375 L 520.398438 370.34375 L 526.238281 377.355469 L 532.078125 383.527344 L 537.921875 388.917969 L 543.761719 393.585938 L 549.601562 397.597656 L 555.441406 401.023438 L 561.28125 403.925781 L 567.121094 406.363281 L 572.960938 408.402344 L 578.800781 410.085938 L 584.640625 411.476562 L 590.480469 412.609375 L 596.320312 413.527344 L 602.160156 414.265625 L 608 414.859375 L 613.839844 415.328125 L 619.679688 415.699219 L 625.519531 415.988281 L 631.359375 416.214844 L 637.199219 416.386719 L 643.039062 416.519531 L 648.878906 416.621094 L 654.71875 416.699219 L 660.558594 416.757812 L 666.398438 416.800781 "/>
</g>
</svg>
