<?xml version="1.0" encoding="UTF-8"?>
<svg xmlns="http://www.w3.org/2000/svg" xmlns:xlink="http://www.w3.org/1999/xlink" width="720pt" height="360pt" viewBox="0 0 720 360" version="1.1">
<defs>
<g>
<symbol overflow="visible" id="glyph0-0">
<path style="stroke:none;" d=""/>
</symbol>
<symbol overflow="visible" id="glyph0-1">
<path style="stroke:none;" d="M 4.40625 -11.5625 C 3.34375 -11.5625 2.390625 -11.09375 1.796875 -10.296875 C 1.0625 -9.28125 0.6875 -7.75 0.6875 -5.59375 C 0.6875 -1.703125 1.96875 0.375 4.40625 0.375 C 6.796875 0.375 8.109375 -1.703125 8.109375 -5.5 C 8.109375 -7.75 7.765625 -9.25 7.015625 -10.296875 C 6.421875 -11.109375 5.46875 -11.5625 4.40625 -11.5625 Z M 4.40625 -10.3125 C 5.921875 -10.3125 6.671875 -8.765625 6.671875 -5.625 C 6.671875 -2.34375 5.9375 -0.796875 4.375 -0.796875 C 2.875 -0.796875 2.125 -2.40625 2.125 -5.578125 C 2.125 -8.765625 2.875 -10.3125 4.40625 -10.3125 Z M 4.40625 -10.3125 "/>
</symbol>
<symbol overflow="visible" id="glyph0-2">
<path style="stroke:none;" d="M 3.53125 -5.328125 L 4.296875 -5.328125 C 5.84375 -5.328125 6.65625 -4.609375 6.65625 -3.21875 C 6.65625 -1.765625 5.78125 -0.875 4.3125 -0.875 C 2.765625 -0.875 2.015625 -1.65625 1.921875 -3.359375 L 0.515625 -3.359375 C 0.578125 -2.4375 0.734375 -1.828125 1.015625 -1.3125 C 1.59375 -0.1875 2.703125 0.375 4.25 0.375 C 6.59375 0.375 8.09375 -1.046875 8.09375 -3.234375 C 8.09375 -4.703125 7.53125 -5.5 6.171875 -5.984375 C 7.234375 -6.421875 7.765625 -7.21875 7.765625 -8.390625 C 7.765625 -10.375 6.46875 -11.5625 4.296875 -11.5625 C 2.015625 -11.5625 0.796875 -10.28125 0.75 -7.84375 L 2.15625 -7.84375 C 2.171875 -8.546875 2.234375 -8.9375 2.421875 -9.296875 C 2.734375 -9.953125 3.4375 -10.34375 4.3125 -10.34375 C 5.5625 -10.34375 6.3125 -9.578125 6.3125 -8.34375 C 6.3125 -7.515625 6.03125 -7.03125 5.40625 -6.75 C 5.03125 -6.59375 4.515625 -6.53125 3.53125 -6.515625 Z M 3.53125 -5.328125 "/>
</symbol>
<symbol overflow="visible" id="glyph0-3">
<path style="stroke:none;" d="M 7.96875 -8.5625 C 7.703125 -10.453125 6.484375 -11.5625 4.75 -11.5625 C 3.5 -11.5625 2.390625 -10.953125 1.71875 -9.921875 C 0.984375 -8.78125 0.6875 -7.375 0.6875 -5.28125 C 0.6875 -3.328125 0.953125 -2.09375 1.640625 -1.078125 C 2.25 -0.125 3.25 0.375 4.5 0.375 C 6.65625 0.375 8.203125 -1.25 8.203125 -3.5 C 8.203125 -5.625 6.765625 -7.140625 4.734375 -7.140625 C 3.609375 -7.140625 2.734375 -6.71875 2.125 -5.875 C 2.140625 -8.734375 3.046875 -10.3125 4.65625 -10.3125 C 5.640625 -10.3125 6.34375 -9.6875 6.5625 -8.5625 Z M 4.5625 -5.890625 C 5.921875 -5.890625 6.765625 -4.921875 6.765625 -3.390625 C 6.765625 -1.9375 5.8125 -0.875 4.515625 -0.875 C 3.203125 -0.875 2.203125 -1.984375 2.203125 -3.453125 C 2.203125 -4.890625 3.171875 -5.890625 4.5625 -5.890625 Z M 4.5625 -5.890625 "/>
</symbol>
<symbol overflow="visible" id="glyph0-4">
<path style="stroke:none;" d="M 0.84375 -2.640625 C 1.125 -0.75 2.34375 0.375 4.0625 0.375 C 5.328125 0.375 6.453125 -0.234375 7.125 -1.28125 C 7.828125 -2.421875 8.140625 -3.828125 8.140625 -5.921875 C 8.140625 -7.875 7.859375 -9.109375 7.1875 -10.125 C 6.5625 -11.078125 5.5625 -11.5625 4.3125 -11.5625 C 2.15625 -11.5625 0.609375 -9.953125 0.609375 -7.71875 C 0.609375 -5.578125 2.046875 -4.078125 4.09375 -4.078125 C 5.171875 -4.078125 5.96875 -4.46875 6.6875 -5.34375 C 6.671875 -2.46875 5.78125 -0.875 4.15625 -0.875 C 3.171875 -0.875 2.484375 -1.515625 2.25 -2.640625 Z M 4.296875 -10.34375 C 5.609375 -10.34375 6.609375 -9.234375 6.609375 -7.75 C 6.609375 -6.3125 5.640625 -5.328125 4.25 -5.328125 C 2.890625 -5.328125 2.046875 -6.28125 2.046875 -7.828125 C 2.046875 -9.28125 2.984375 -10.34375 4.296875 -10.34375 Z M 4.296875 -10.34375 "/>
</symbol>
<symbol overflow="visible" id="glyph0-5">
<path style="stroke:none;" d="M 4.140625 -8.234375 L 4.140625 0 L 5.546875 0 L 5.546875 -11.5625 L 4.625 -11.5625 C 4.125 -9.796875 3.8125 -9.546875 1.625 -9.265625 L 1.625 -8.234375 Z M 4.140625 -8.234375 "/>
</symbol>
<symbol overflow="visible" id="glyph0-6">
<path style="stroke:none;" d="M 8.09375 -1.390625 L 2.125 -1.390625 C 2.265625 -2.359375 2.78125 -2.953125 4.171875 -3.8125 L 5.78125 -4.703125 C 7.359375 -5.578125 8.171875 -6.765625 8.171875 -8.1875 C 8.171875 -9.15625 7.796875 -10.046875 7.125 -10.671875 C 6.453125 -11.28125 5.609375 -11.5625 4.546875 -11.5625 C 3.109375 -11.5625 2.03125 -11.0625 1.40625 -10.0625 C 1.015625 -9.453125 0.828125 -8.734375 0.796875 -7.5625 L 2.203125 -7.5625 C 2.25 -8.359375 2.359375 -8.8125 2.546875 -9.203125 C 2.90625 -9.90625 3.640625 -10.34375 4.5 -10.34375 C 5.78125 -10.34375 6.734375 -9.40625 6.734375 -8.15625 C 6.734375 -7.234375 6.203125 -6.4375 5.203125 -5.859375 L 3.734375 -4.984375 C 1.359375 -3.625 0.671875 -2.546875 0.546875 -0.015625 L 8.09375 -0.015625 Z M 8.09375 -1.390625 "/>
</symbol>
<symbol overflow="visible" id="glyph0-7">
<path style="stroke:none;" d="M 7.609375 -11.34375 L 1.765625 -11.34375 L 0.90625 -5.171875 L 2.203125 -5.171875 C 2.859375 -5.953125 3.40625 -6.21875 4.296875 -6.21875 C 5.828125 -6.21875 6.765625 -5.1875 6.765625 -3.5 C 6.765625 -1.875 5.828125 -0.875 4.28125 -0.875 C 3.0625 -0.875 2.296875 -1.5 1.96875 -2.78125 L 0.5625 -2.78125 C 0.75 -1.859375 0.90625 -1.40625 1.25 -0.984375 C 1.890625 -0.125 3.046875 0.375 4.3125 0.375 C 6.609375 0.375 8.203125 -1.296875 8.203125 -3.703125 C 8.203125 -5.9375 6.71875 -7.46875 4.546875 -7.46875 C 3.75 -7.46875 3.109375 -7.265625 2.453125 -6.78125 L 2.890625 -9.953125 L 7.609375 -9.953125 Z M 7.609375 -11.34375 "/>
</symbol>
<symbol overflow="visible" id="glyph1-0">
<path style="stroke:none;" d=""/>
</symbol>
<symbol overflow="visible" id="glyph1-1">
<path style="stroke:none;" d="M 5.84375 -5.421875 L 9.359375 -10.484375 L 7.484375 -10.484375 L 4.953125 -6.6875 L 2.4375 -10.484375 L 0.546875 -10.484375 L 4.046875 -5.34375 L 0.34375 0 L 2.234375 0 L 4.90625 -4.015625 L 7.515625 0 L 9.453125 0 Z M 5.84375 -5.421875 "/>
</symbol>
<symbol overflow="visible" id="glyph2-0">
<path style="stroke:none;" d=""/>
</symbol>
<symbol overflow="visible" id="glyph2-1">
<path style="stroke:none;" d="M -6.953125 -9.421875 C -7.984375 -9.34375 -8.640625 -9.125 -9.21875 -8.71875 C -10.203125 -8 -10.78125 -6.734375 -10.78125 -5.28125 C -10.78125 -2.4375 -8.546875 -0.625 -5.0625 -0.625 C -1.6875 -0.625 0.453125 -2.421875 0.453125 -5.265625 C 0.453125 -7.765625 -1.046875 -9.34375 -3.59375 -9.546875 L -3.59375 -7.859375 C -1.921875 -7.578125 -1.078125 -6.71875 -1.078125 -5.296875 C -1.078125 -3.453125 -2.578125 -2.359375 -5.0625 -2.359375 C -7.6875 -2.359375 -9.234375 -3.4375 -9.234375 -5.265625 C -9.234375 -6.65625 -8.421875 -7.546875 -6.953125 -7.734375 Z M -6.953125 -9.421875 "/>
</symbol>
<symbol overflow="visible" id="glyph2-2">
<path style="stroke:none;" d="M -10.78125 -5.4375 C -10.78125 -2.484375 -8.6875 -0.71875 -5.15625 -0.71875 C -1.625 -0.71875 0.453125 -2.484375 0.453125 -5.453125 C 0.453125 -8.421875 -1.640625 -10.203125 -5.078125 -10.203125 C -8.71875 -10.203125 -10.78125 -8.484375 -10.78125 -5.4375 Z M -9.234375 -5.453125 C -9.234375 -7.34375 -7.703125 -8.453125 -5.09375 -8.453125 C -2.625 -8.453125 -1.078125 -7.296875 -1.078125 -5.453125 C -1.078125 -3.59375 -2.625 -2.453125 -5.15625 -2.453125 C -7.703125 -2.453125 -9.234375 -3.59375 -9.234375 -5.453125 Z M -9.234375 -5.453125 "/>
</symbol>
<symbol overflow="visible" id="glyph2-3">
<path style="stroke:none;" d="M 0 -9.640625 L -10.484375 -9.640625 L -10.484375 -7.984375 L -4.546875 -7.984375 C -2.40625 -7.984375 -1 -6.859375 -1 -5.125 C -1 -3.796875 -1.796875 -2.953125 -3.0625 -2.953125 L -10.484375 -2.953125 L -10.484375 -1.296875 L -2.40625 -1.296875 C -0.65625 -1.296875 0.453125 -2.59375 0.453125 -4.640625 C 0.453125 -6.1875 -0.078125 -7.15625 -1.453125 -8.140625 L 0 -8.140625 Z M 0 -9.640625 "/>
</symbol>
<symbol overflow="visible" id="glyph2-4">
<path style="stroke:none;" d="M -10.484375 -1.40625 L 0 -1.40625 L 0 -3.078125 L -5.78125 -3.078125 C -7.921875 -3.078125 -9.3125 -4.203125 -9.3125 -5.921875 C -9.3125 -7.234375 -8.515625 -8.078125 -7.265625 -8.078125 L 0 -8.078125 L 0 -9.734375 L -7.921875 -9.734375 C -9.65625 -9.734375 -10.78125 -8.4375 -10.78125 -6.421875 C -10.78125 -4.859375 -10.1875 -3.859375 -8.71875 -2.9375 L -10.484375 -2.9375 Z M -10.484375 -1.40625 "/>
</symbol>
<symbol overflow="visible" id="glyph2-5">
<path style="stroke:none;" d="M -10.484375 -5.078125 L -10.484375 -3.359375 L -13.359375 -3.359375 L -13.359375 -1.703125 L -10.484375 -1.703125 L -10.484375 -0.28125 L -9.125 -0.28125 L -9.125 -1.703125 L -1.203125 -1.703125 C -0.125 -1.703125 0.453125 -2.421875 0.453125 -3.71875 C 0.453125 -4.15625 0.421875 -4.515625 0.3125 -5.078125 L -1.078125 -5.078125 C -1.015625 -4.84375 -1 -4.625 -1 -4.28125 C -1 -3.5625 -1.203125 -3.359375 -1.9375 -3.359375 L -9.125 -3.359375 L -9.125 -5.078125 Z M -10.484375 -5.078125 "/>
</symbol>
</g>
<clipPath id="clip1">
  <path d="M 79.910156 252 L 710.039062 252 L 710.039062 254 L 79.910156 254 Z M 79.910156 252 "/>
</clipPath>
<clipPath id="clip2">
  <path d="M 79.910156 184 L 710.039062 184 L 710.039062 186 L 79.910156 186 Z M 79.910156 184 "/>
</clipPath>
<clipPath id="clip3">
  <path d="M 79.910156 117 L 710.039062 117 L 710.039062 119 L 79.910156 119 Z M 79.910156 117 "/>
</clipPath>
<clipPath id="clip4">
  <path d="M 79.910156 49 L 710.039062 49 L 710.039062 51 L 79.910156 51 Z M 79.910156 49 "/>
</clipPath>
<clipPath id="clip5">
  <path d="M 111 9.960938 L 113 9.960938 L 113 300.089844 L 111 300.089844 Z M 111 9.960938 "/>
</clipPath>
<clipPath id="clip6">
  <path d="M 220 9.960938 L 222 9.960938 L 222 300.089844 L 220 300.089844 Z M 220 9.960938 "/>
</clipPath>
<clipPath id="clip7">
  <path d="M 329 9.960938 L 331 9.960938 L 331 300.089844 L 329 300.089844 Z M 329 9.960938 "/>
</clipPath>
<clipPath id="clip8">
  <path d="M 438 9.960938 L 440 9.960938 L 440 300.089844 L 438 300.089844 Z M 438 9.960938 "/>
</clipPath>
<clipPath id="clip9">
  <path d="M 547 9.960938 L 549 9.960938 L 549 300.089844 L 547 300.089844 Z M 547 9.960938 "/>
</clipPath>
<clipPath id="clip10">
  <path d="M 657 9.960938 L 659 9.960938 L 659 300.089844 L 657 300.089844 Z M 657 9.960938 "/>
</clipPath>
<clipPath id="clip11">
  <path d="M 79.910156 285 L 710.039062 285 L 710.039062 288 L 79.910156 288 Z M 79.910156 285 "/>
</clipPath>
<clipPath id="clip12">
  <path d="M 79.910156 218 L 710.039062 218 L 710.039062 221 L 79.910156 221 Z M 79.910156 218 "/>
</clipPath>
<clipPath id="clip13">
  <path d="M 79.910156 150 L 710.039062 150 L 710.039062 153 L 79.910156 153 Z M 79.910156 150 "/>
</clipPath>
<clipPath id="clip14">
  <path d="M 79.910156 83 L 710.039062 83 L 710.039062 85 L 79.910156 85 Z M 79.910156 83 "/>
</clipPath>
<clipPath id="clip15">
  <path d="M 79.910156 15 L 710.039062 15 L 710.039062 18 L 79.910156 18 Z M 79.910156 15 "/>
</clipPath>
<clipPath id="clip16">
  <path d="M 165 9.960938 L 168 9.960938 L 168 300.089844 L 165 300.089844 Z M 165 9.960938 "/>
</clipPath>
<clipPath id="clip17">
  <path d="M 274 9.960938 L 277 9.960938 L 277 300.089844 L 274 300.089844 Z M 274 9.960938 "/>
</clipPath>
<clipPath id="clip18">
  <path d="M 383 9.960938 L 386 9.960938 L 386 300.089844 L 383 300.089844 Z M 383 9.960938 "/>
</clipPath>
<clipPath id="clip19">
  <path d="M 492 9.960938 L 495 9.960938 L 495 300.089844 L 492 300.089844 Z M 492 9.960938 "/>
</clipPath>
<clipPath id="clip20">
  <path d="M 602 9.960938 L 604 9.960938 L 604 300.089844 L 602 300.089844 Z M 602 9.960938 "/>
</clipPath>
</defs>
<g id="surface100">
<rect x="0" y="0" width="720" height="360" style="fill:rgb(100%,100%,100%);fill-opacity:1;stroke:none;"/>
<rect x="0" y="0" width="720" height="360" style="fill:rgb(100%,100%,100%);fill-opacity:1;stroke:none;"/>
<g clip-path="url(#clip1)" clip-rule="nonzero">
<path style="fill:none;stroke-width:0.96998;stroke-linecap:butt;stroke-linejoin:round;stroke:rgb(92.156863%,92.156863%,92.156863%);stroke-opacity:1;stroke-miterlimit:10;" d="M 79.910156 253.085938 L 710.039062 253.085938 "/>
</g>
<g clip-path="url(#clip2)" clip-rule="nonzero">
<path style="fill:none;stroke-width:0.96998;stroke-linecap:butt;stroke-linejoin:round;stroke:rgb(92.156863%,92.156863%,92.156863%);stroke-opacity:1;stroke-miterlimit:10;" d="M 79.910156 185.460938 L 710.039062 185.460938 "/>
</g>
<g clip-path="url(#clip3)" clip-rule="nonzero">
<path style="fill:none;stroke-width:0.96998;stroke-linecap:butt;stroke-linejoin:round;stroke:rgb(92.156863%,92.156863%,92.156863%);stroke-opacity:1;stroke-miterlimit:10;" d="M 79.910156 117.832031 L 710.039062 117.832031 "/>
</g>
<g clip-path="url(#clip4)" clip-rule="nonzero">
<path style="fill:none;stroke-width:0.96998;stroke-linecap:butt;stroke-linejoin:round;stroke:rgb(92.156863%,92.156863%,92.156863%);stroke-opacity:1;stroke-miterlimit:10;" d="M 79.910156 50.203125 L 710.039062 50.203125 "/>
</g>
<g clip-path="url(#clip5)" clip-rule="nonzero">
<path style="fill:none;stroke-width:0.96998;stroke-linecap:butt;stroke-linejoin:round;stroke:rgb(92.156863%,92.156863%,92.156863%);stroke-opacity:1;stroke-miterlimit:10;" d="M 111.96875 300.089844 L 111.96875 9.960938 "/>
</g>
<g clip-path="url(#clip6)" clip-rule="nonzero">
<path style="fill:none;stroke-width:0.96998;stroke-linecap:butt;stroke-linejoin:round;stroke:rgb(92.156863%,92.156863%,92.156863%);stroke-opacity:1;stroke-miterlimit:10;" d="M 221.085938 300.089844 L 221.085938 9.960938 "/>
</g>
<g clip-path="url(#clip7)" clip-rule="nonzero">
<path style="fill:none;stroke-width:0.96998;stroke-linecap:butt;stroke-linejoin:round;stroke:rgb(92.156863%,92.156863%,92.156863%);stroke-opacity:1;stroke-miterlimit:10;" d="M 330.199219 300.089844 L 330.199219 9.960938 "/>
</g>
<g clip-path="url(#clip8)" clip-rule="nonzero">
<path style="fill:none;stroke-width:0.96998;stroke-linecap:butt;stroke-linejoin:round;stroke:rgb(92.156863%,92.156863%,92.156863%);stroke-opacity:1;stroke-miterlimit:10;" d="M 439.316406 300.089844 L 439.316406 9.960938 "/>
</g>
<g clip-path="url(#clip9)" clip-rule="nonzero">
<path style="fill:none;stroke-width:0.96998;stroke-linecap:butt;stroke-linejoin:round;stroke:rgb(92.156863%,92.156863%,92.156863%);stroke-opacity:1;stroke-miterlimit:10;" d="M 548.433594 300.089844 L 548.433594 9.960938 "/>
</g>
<g clip-path="url(#clip10)" clip-rule="nonzero">
<path style="fill:none;stroke-width:0.96998;stroke-linecap:butt;stroke-linejoin:round;stroke:rgb(92.156863%,92.156863%,92.156863%);stroke-opacity:1;stroke-miterlimit:10;" d="M 657.546875 300.089844 L 657.546875 9.960938 "/>
</g>
<g clip-path="url(#clip11)" clip-rule="nonzero">
<path style="fill:none;stroke-width:1.939961;stroke-linecap:butt;stroke-linejoin:round;stroke:rgb(92.156863%,92.156863%,92.156863%);stroke-opacity:1;stroke-miterlimit:10;" d="M 79.910156 286.902344 L 710.039062 286.902344 "/>
</g>
<g clip-path="url(#clip12)" clip-rule="nonzero">
<path style="fill:none;stroke-width:1.939961;stroke-linecap:butt;stroke-linejoin:round;stroke:rgb(92.156863%,92.156863%,92.156863%);stroke-opacity:1;stroke-miterlimit:10;" d="M 79.910156 219.273438 L 710.039062 219.273438 "/>
</g>
<g clip-path="url(#clip13)" clip-rule="nonzero">
<path style="fill:none;stroke-width:1.939961;stroke-linecap:butt;stroke-linejoin:round;stroke:rgb(92.156863%,92.156863%,92.156863%);stroke-opacity:1;stroke-miterlimit:10;" d="M 79.910156 151.644531 L 710.039062 151.644531 "/>
</g>
<g clip-path="url(#clip14)" clip-rule="nonzero">
<path style="fill:none;stroke-width:1.939961;stroke-linecap:butt;stroke-linejoin:round;stroke:rgb(92.156863%,92.156863%,92.156863%);stroke-opacity:1;stroke-miterlimit:10;" d="M 79.910156 84.015625 L 710.039062 84.015625 "/>
</g>
<g clip-path="url(#clip15)" clip-rule="nonzero">
<path style="fill:none;stroke-width:1.939961;stroke-linecap:butt;stroke-linejoin:round;stroke:rgb(92.156863%,92.156863%,92.156863%);stroke-opacity:1;stroke-miterlimit:10;" d="M 79.910156 16.386719 L 710.039062 16.386719 "/>
</g>
<g clip-path="url(#clip16)" clip-rule="nonzero">
<path style="fill:none;stroke-width:1.939961;stroke-linecap:butt;stroke-linejoin:round;stroke:rgb(92.156863%,92.156863%,92.156863%);stroke-opacity:1;stroke-miterlimit:10;" d="M 166.527344 300.089844 L 166.527344 9.960938 "/>
</g>
<g clip-path="url(#clip17)" clip-rule="nonzero">
<path style="fill:none;stroke-width:1.939961;stroke-linecap:butt;stroke-linejoin:round;stroke:rgb(92.156863%,92.156863%,92.156863%);stroke-opacity:1;stroke-miterlimit:10;" d="M 275.644531 300.089844 L 275.644531 9.960938 "/>
</g>
<g clip-path="url(#clip18)" clip-rule="nonzero">
<path style="fill:none;stroke-width:1.939961;stroke-linecap:butt;stroke-linejoin:round;stroke:rgb(92.156863%,92.156863%,92.156863%);stroke-opacity:1;stroke-miterlimit:10;" d="M 384.757812 300.089844 L 384.757812 9.960938 "/>
</g>
<g clip-path="url(#clip19)" clip-rule="nonzero">
<path style="fill:none;stroke-width:1.939961;stroke-linecap:butt;stroke-linejoin:round;stroke:rgb(92.156863%,92.156863%,92.156863%);stroke-opacity:1;stroke-miterlimit:10;" d="M 493.875 300.089844 L 493.875 9.960938 "/>
</g>
<g clip-path="url(#clip20)" clip-rule="nonzero">
<path style="fill:none;stroke-width:1.939961;stroke-linecap:butt;stroke-linejoin:round;stroke:rgb(92.156863%,92.156863%,92.156863%);stroke-opacity:1;stroke-miterlimit:10;" d="M 602.992188 300.089844 L 602.992188 9.960938 "/>
</g>
<path style="fill-rule:nonzero;fill:rgb(11.764706%,56.470588%,100%);fill-opacity:1;stroke-width:1.939961;stroke-linecap:butt;stroke-linejoin:miter;stroke:rgb(0%,0%,0%);stroke-opacity:1;stroke-miterlimit:10;" d="M 108.550781 286.902344 L 127.644531 286.902344 L 127.644531 286.675781 L 108.550781 286.675781 Z M 108.550781 286.902344 "/>
<path style="fill-rule:nonzero;fill:rgb(11.764706%,56.470588%,100%);fill-opacity:1;stroke-width:1.939961;stroke-linecap:butt;stroke-linejoin:miter;stroke:rgb(0%,0%,0%);stroke-opacity:1;stroke-miterlimit:10;" d="M 127.648438 286.902344 L 146.742188 286.902344 L 146.742188 286.675781 L 127.648438 286.675781 Z M 127.648438 286.902344 "/>
<path style="fill-rule:nonzero;fill:rgb(11.764706%,56.470588%,100%);fill-opacity:1;stroke-width:1.939961;stroke-linecap:butt;stroke-linejoin:miter;stroke:rgb(0%,0%,0%);stroke-opacity:1;stroke-miterlimit:10;" d="M 146.742188 286.902344 L 165.835938 286.902344 L 165.835938 286.226562 L 146.742188 286.226562 Z M 146.742188 286.902344 "/>
<path style="fill-rule:nonzero;fill:rgb(11.764706%,56.470588%,100%);fill-opacity:1;stroke-width:1.939961;stroke-linecap:butt;stroke-linejoin:miter;stroke:rgb(0%,0%,0%);stroke-opacity:1;stroke-miterlimit:10;" d="M 165.835938 286.902344 L 184.929688 286.902344 L 184.929688 286 L 165.835938 286 Z M 165.835938 286.902344 "/>
<path style="fill-rule:nonzero;fill:rgb(11.764706%,56.470588%,100%);fill-opacity:1;stroke-width:1.939961;stroke-linecap:butt;stroke-linejoin:miter;stroke:rgb(0%,0%,0%);stroke-opacity:1;stroke-miterlimit:10;" d="M 184.929688 286.902344 L 204.023438 286.902344 L 204.023438 283.746094 L 184.929688 283.746094 Z M 184.929688 286.902344 "/>
<path style="fill-rule:nonzero;fill:rgb(11.764706%,56.470588%,100%);fill-opacity:1;stroke-width:1.939961;stroke-linecap:butt;stroke-linejoin:miter;stroke:rgb(0%,0%,0%);stroke-opacity:1;stroke-miterlimit:10;" d="M 204.027344 286.902344 L 223.121094 286.902344 L 223.121094 278.335938 L 204.027344 278.335938 Z M 204.027344 286.902344 "/>
<path style="fill-rule:nonzero;fill:rgb(11.764706%,56.470588%,100%);fill-opacity:1;stroke-width:1.939961;stroke-linecap:butt;stroke-linejoin:miter;stroke:rgb(0%,0%,0%);stroke-opacity:1;stroke-miterlimit:10;" d="M 223.121094 286.902344 L 242.214844 286.902344 L 242.214844 268.191406 L 223.121094 268.191406 Z M 223.121094 286.902344 "/>
<path style="fill-rule:nonzero;fill:rgb(11.764706%,56.470588%,100%);fill-opacity:1;stroke-width:1.939961;stroke-linecap:butt;stroke-linejoin:miter;stroke:rgb(0%,0%,0%);stroke-opacity:1;stroke-miterlimit:10;" d="M 242.214844 286.902344 L 261.308594 286.902344 L 261.308594 256.921875 L 242.214844 256.921875 Z M 242.214844 286.902344 "/>
<path style="fill-rule:nonzero;fill:rgb(11.764706%,56.470588%,100%);fill-opacity:1;stroke-width:1.939961;stroke-linecap:butt;stroke-linejoin:miter;stroke:rgb(0%,0%,0%);stroke-opacity:1;stroke-miterlimit:10;" d="M 261.308594 286.902344 L 280.402344 286.902344 L 280.402344 227.390625 L 261.308594 227.390625 Z M 261.308594 286.902344 "/>
<path style="fill-rule:nonzero;fill:rgb(11.764706%,56.470588%,100%);fill-opacity:1;stroke-width:1.939961;stroke-linecap:butt;stroke-linejoin:miter;stroke:rgb(0%,0%,0%);stroke-opacity:1;stroke-miterlimit:10;" d="M 280.40625 286.902344 L 299.5 286.902344 L 299.5 196.730469 L 280.40625 196.730469 Z M 280.40625 286.902344 "/>
<path style="fill-rule:nonzero;fill:rgb(11.764706%,56.470588%,100%);fill-opacity:1;stroke-width:1.939961;stroke-linecap:butt;stroke-linejoin:miter;stroke:rgb(0%,0%,0%);stroke-opacity:1;stroke-miterlimit:10;" d="M 299.5 286.902344 L 318.59375 286.902344 L 318.59375 157.28125 L 299.5 157.28125 Z M 299.5 286.902344 "/>
<path style="fill-rule:nonzero;fill:rgb(11.764706%,56.470588%,100%);fill-opacity:1;stroke-width:1.939961;stroke-linecap:butt;stroke-linejoin:miter;stroke:rgb(0%,0%,0%);stroke-opacity:1;stroke-miterlimit:10;" d="M 318.59375 286.902344 L 337.6875 286.902344 L 337.6875 111.742188 L 318.59375 111.742188 Z M 318.59375 286.902344 "/>
<path style="fill-rule:nonzero;fill:rgb(11.764706%,56.470588%,100%);fill-opacity:1;stroke-width:1.939961;stroke-linecap:butt;stroke-linejoin:miter;stroke:rgb(0%,0%,0%);stroke-opacity:1;stroke-miterlimit:10;" d="M 337.691406 286.902344 L 356.785156 286.902344 L 356.785156 67.558594 L 337.691406 67.558594 Z M 337.691406 286.902344 "/>
<path style="fill-rule:nonzero;fill:rgb(11.764706%,56.470588%,100%);fill-opacity:1;stroke-width:1.939961;stroke-linecap:butt;stroke-linejoin:miter;stroke:rgb(0%,0%,0%);stroke-opacity:1;stroke-miterlimit:10;" d="M 356.785156 286.902344 L 375.878906 286.902344 L 375.878906 23.152344 L 356.785156 23.152344 Z M 356.785156 286.902344 "/>
<path style="fill-rule:nonzero;fill:rgb(11.764706%,56.470588%,100%);fill-opacity:1;stroke-width:1.939961;stroke-linecap:butt;stroke-linejoin:miter;stroke:rgb(0%,0%,0%);stroke-opacity:1;stroke-miterlimit:10;" d="M 375.878906 286.902344 L 394.972656 286.902344 L 394.972656 30.589844 L 375.878906 30.589844 Z M 375.878906 286.902344 "/>
<path style="fill-rule:nonzero;fill:rgb(11.764706%,56.470588%,100%);fill-opacity:1;stroke-width:1.939961;stroke-linecap:butt;stroke-linejoin:miter;stroke:rgb(0%,0%,0%);stroke-opacity:1;stroke-miterlimit:10;" d="M 394.972656 286.902344 L 414.066406 286.902344 L 414.066406 39.605469 L 394.972656 39.605469 Z M 394.972656 286.902344 "/>
<path style="fill-rule:nonzero;fill:rgb(11.764706%,56.470588%,100%);fill-opacity:1;stroke-width:1.939961;stroke-linecap:butt;stroke-linejoin:miter;stroke:rgb(0%,0%,0%);stroke-opacity:1;stroke-miterlimit:10;" d="M 414.070312 286.902344 L 433.164062 286.902344 L 433.164062 72.519531 L 414.070312 72.519531 Z M 414.070312 286.902344 "/>
<path style="fill-rule:nonzero;fill:rgb(11.764706%,56.470588%,100%);fill-opacity:1;stroke-width:1.939961;stroke-linecap:butt;stroke-linejoin:miter;stroke:rgb(0%,0%,0%);stroke-opacity:1;stroke-miterlimit:10;" d="M 433.164062 286.902344 L 452.257812 286.902344 L 452.257812 101.375 L 433.164062 101.375 Z M 433.164062 286.902344 "/>
<path style="fill-rule:nonzero;fill:rgb(11.764706%,56.470588%,100%);fill-opacity:1;stroke-width:1.939961;stroke-linecap:butt;stroke-linejoin:miter;stroke:rgb(0%,0%,0%);stroke-opacity:1;stroke-miterlimit:10;" d="M 452.257812 286.902344 L 471.351562 286.902344 L 471.351562 148.488281 L 452.257812 148.488281 Z M 452.257812 286.902344 "/>
<path style="fill-rule:nonzero;fill:rgb(11.764706%,56.470588%,100%);fill-opacity:1;stroke-width:1.939961;stroke-linecap:butt;stroke-linejoin:miter;stroke:rgb(0%,0%,0%);stroke-opacity:1;stroke-miterlimit:10;" d="M 471.351562 286.902344 L 490.445312 286.902344 L 490.445312 194.925781 L 471.351562 194.925781 Z M 471.351562 286.902344 "/>
<path style="fill-rule:nonzero;fill:rgb(11.764706%,56.470588%,100%);fill-opacity:1;stroke-width:1.939961;stroke-linecap:butt;stroke-linejoin:miter;stroke:rgb(0%,0%,0%);stroke-opacity:1;stroke-miterlimit:10;" d="M 490.449219 286.902344 L 509.542969 286.902344 L 509.542969 232.574219 L 490.449219 232.574219 Z M 490.449219 286.902344 "/>
<path style="fill-rule:nonzero;fill:rgb(11.764706%,56.470588%,100%);fill-opacity:1;stroke-width:1.939961;stroke-linecap:butt;stroke-linejoin:miter;stroke:rgb(0%,0%,0%);stroke-opacity:1;stroke-miterlimit:10;" d="M 509.542969 286.902344 L 528.636719 286.902344 L 528.636719 250.15625 L 509.542969 250.15625 Z M 509.542969 286.902344 "/>
<path style="fill-rule:nonzero;fill:rgb(11.764706%,56.470588%,100%);fill-opacity:1;stroke-width:1.939961;stroke-linecap:butt;stroke-linejoin:miter;stroke:rgb(0%,0%,0%);stroke-opacity:1;stroke-miterlimit:10;" d="M 528.636719 286.902344 L 547.730469 286.902344 L 547.730469 270.21875 L 528.636719 270.21875 Z M 528.636719 286.902344 "/>
<path style="fill-rule:nonzero;fill:rgb(11.764706%,56.470588%,100%);fill-opacity:1;stroke-width:1.939961;stroke-linecap:butt;stroke-linejoin:miter;stroke:rgb(0%,0%,0%);stroke-opacity:1;stroke-miterlimit:10;" d="M 547.730469 286.902344 L 566.824219 286.902344 L 566.824219 279.914062 L 547.730469 279.914062 Z M 547.730469 286.902344 "/>
<path style="fill-rule:nonzero;fill:rgb(11.764706%,56.470588%,100%);fill-opacity:1;stroke-width:1.939961;stroke-linecap:butt;stroke-linejoin:miter;stroke:rgb(0%,0%,0%);stroke-opacity:1;stroke-miterlimit:10;" d="M 566.828125 286.902344 L 585.921875 286.902344 L 585.921875 284.195312 L 566.828125 284.195312 Z M 566.828125 286.902344 "/>
<path style="fill-rule:nonzero;fill:rgb(11.764706%,56.470588%,100%);fill-opacity:1;stroke-width:1.939961;stroke-linecap:butt;stroke-linejoin:miter;stroke:rgb(0%,0%,0%);stroke-opacity:1;stroke-miterlimit:10;" d="M 585.921875 286.902344 L 605.015625 286.902344 L 605.015625 285.550781 L 585.921875 285.550781 Z M 585.921875 286.902344 "/>
<path style="fill-rule:nonzero;fill:rgb(11.764706%,56.470588%,100%);fill-opacity:1;stroke-width:1.939961;stroke-linecap:butt;stroke-linejoin:miter;stroke:rgb(0%,0%,0%);stroke-opacity:1;stroke-miterlimit:10;" d="M 605.015625 286.902344 L 624.109375 286.902344 L 624.109375 286.453125 L 605.015625 286.453125 Z M 605.015625 286.902344 "/>
<path style="fill-rule:nonzero;fill:rgb(11.764706%,56.470588%,100%);fill-opacity:1;stroke-width:1.939961;stroke-linecap:butt;stroke-linejoin:miter;stroke:rgb(0%,0%,0%);stroke-opacity:1;stroke-miterlimit:10;" d="M 624.109375 286.902344 L 643.203125 286.902344 L 643.203125 286 L 624.109375 286 Z M 624.109375 286.902344 "/>
<path style="fill:none;stroke-width:1.939961;stroke-linecap:butt;stroke-linejoin:miter;stroke:rgb(0%,0%,0%);stroke-opacity:1;stroke-miterlimit:10;" d="M 643.207031 286.902344 L 662.300781 286.902344 Z M 643.207031 286.902344 "/>
<path style="fill-rule:nonzero;fill:rgb(11.764706%,56.470588%,100%);fill-opacity:1;stroke-width:1.939961;stroke-linecap:butt;stroke-linejoin:miter;stroke:rgb(0%,0%,0%);stroke-opacity:1;stroke-miterlimit:10;" d="M 662.300781 286.902344 L 681.394531 286.902344 L 681.394531 286.675781 L 662.300781 286.675781 Z M 662.300781 286.902344 "/>
<g style="fill:rgb(30.196078%,30.196078%,30.196078%);fill-opacity:1;">
  <use xlink:href="#glyph0-1" x="61.945312" y="292.566406"/>
</g>
<g style="fill:rgb(30.196078%,30.196078%,30.196078%);fill-opacity:1;">
  <use xlink:href="#glyph0-2" x="43.945312" y="224.9375"/>
  <use xlink:href="#glyph0-1" x="52.945312" y="224.9375"/>
  <use xlink:href="#glyph0-1" x="61.945312" y="224.9375"/>
</g>
<g style="fill:rgb(30.196078%,30.196078%,30.196078%);fill-opacity:1;">
  <use xlink:href="#glyph0-3" x="43.945312" y="157.308594"/>
  <use xlink:href="#glyph0-1" x="52.945312" y="157.308594"/>
  <use xlink:href="#glyph0-1" x="61.945312" y="157.308594"/>
</g>
<g style="fill:rgb(30.196078%,30.196078%,30.196078%);fill-opacity:1;">
  <use xlink:href="#glyph0-4" x="43.945312" y="89.679688"/>
  <use xlink:href="#glyph0-1" x="52.945312" y="89.679688"/>
  <use xlink:href="#glyph0-1" x="61.945312" y="89.679688"/>
</g>
<g style="fill:rgb(30.196078%,30.196078%,30.196078%);fill-opacity:1;">
  <use xlink:href="#glyph0-5" x="34.945312" y="22.050781"/>
  <use xlink:href="#glyph0-6" x="43.945312" y="22.050781"/>
  <use xlink:href="#glyph0-1" x="52.945312" y="22.050781"/>
  <use xlink:href="#glyph0-1" x="61.945312" y="22.050781"/>
</g>
<g style="fill:rgb(30.196078%,30.196078%,30.196078%);fill-opacity:1;">
  <use xlink:href="#glyph0-1" x="162.027344" y="320.71875"/>
</g>
<g style="fill:rgb(30.196078%,30.196078%,30.196078%);fill-opacity:1;">
  <use xlink:href="#glyph0-7" x="266.644531" y="320.71875"/>
  <use xlink:href="#glyph0-1" x="275.644531" y="320.71875"/>
</g>
<g style="fill:rgb(30.196078%,30.196078%,30.196078%);fill-opacity:1;">
  <use xlink:href="#glyph0-5" x="371.257812" y="320.71875"/>
  <use xlink:href="#glyph0-1" x="380.257812" y="320.71875"/>
  <use xlink:href="#glyph0-1" x="389.257812" y="320.71875"/>
</g>
<g style="fill:rgb(30.196078%,30.196078%,30.196078%);fill-opacity:1;">
  <use xlink:href="#glyph0-5" x="480.375" y="320.71875"/>
  <use xlink:href="#glyph0-7" x="489.375" y="320.71875"/>
  <use xlink:href="#glyph0-1" x="498.375" y="320.71875"/>
</g>
<g style="fill:rgb(30.196078%,30.196078%,30.196078%);fill-opacity:1;">
  <use xlink:href="#glyph0-6" x="589.492188" y="320.71875"/>
  <use xlink:href="#glyph0-1" x="598.492188" y="320.71875"/>
  <use xlink:href="#glyph0-1" x="607.492188" y="320.71875"/>
</g>
<g style="fill:rgb(0%,0%,0%);fill-opacity:1;">
  <use xlink:href="#glyph1-1" x="389.972656" y="344.619141"/>
</g>
<g style="fill:rgb(0%,0%,0%);fill-opacity:1;">
  <use xlink:href="#glyph2-1" x="24.541016" y="179.527344"/>
  <use xlink:href="#glyph2-2" x="24.541016" y="169.527344"/>
  <use xlink:href="#glyph2-3" x="24.541016" y="158.527344"/>
  <use xlink:href="#glyph2-4" x="24.541016" y="147.527344"/>
  <use xlink:href="#glyph2-5" x="24.541016" y="136.527344"/>
</g>
</g>
</svg>
