<?xml version="1.0" encoding="UTF-8"?>
<svg xmlns="http://www.w3.org/2000/svg" xmlns:xlink="http://www.w3.org/1999/xlink" width="720pt" height="360pt" viewBox="0 0 720 360" version="1.1">
<defs>
<g>
<symbol overflow="visible" id="glyph0-0">
<path style="stroke:none;" d=""/>
</symbol>
<symbol overflow="visible" id="glyph0-1">
<path style="stroke:none;" d="M 4.40625 -11.5625 C 3.34375 -11.5625 2.390625 -11.09375 1.796875 -10.296875 C 1.0625 -9.28125 0.6875 -7.75 0.6875 -5.59375 C 0.6875 -1.703125 1.96875 0.375 4.40625 0.375 C 6.796875 0.375 8.109375 -1.703125 8.109375 -5.5 C 8.109375 -7.75 7.765625 -9.25 7.015625 -10.296875 C 6.421875 -11.109375 5.46875 -11.5625 4.40625 -11.5625 Z M 4.40625 -10.3125 C 5.921875 -10.3125 6.671875 -8.765625 6.671875 -5.625 C 6.671875 -2.34375 5.9375 -0.796875 4.375 -0.796875 C 2.875 -0.796875 2.125 -2.40625 2.125 -5.578125 C 2.125 -8.765625 2.875 -10.3125 4.40625 -10.3125 Z M 4.40625 -10.3125 "/>
</symbol>
<symbol overflow="visible" id="glyph0-2">
<path style="stroke:none;" d="M 4.140625 -8.234375 L 4.140625 0 L 5.546875 0 L 5.546875 -11.5625 L 4.625 -11.5625 C 4.125 -9.796875 3.8125 -9.546875 1.625 -9.265625 L 1.625 -8.234375 Z M 4.140625 -8.234375 "/>
</symbol>
<symbol overflow="visible" id="glyph0-3">
<path style="stroke:none;" d="M 8.09375 -1.390625 L 2.125 -1.390625 C 2.265625 -2.359375 2.78125 -2.953125 4.171875 -3.8125 L 5.78125 -4.703125 C 7.359375 -5.578125 8.171875 -6.765625 8.171875 -8.1875 C 8.171875 -9.15625 7.796875 -10.046875 7.125 -10.671875 C 6.453125 -11.28125 5.609375 -11.5625 4.546875 -11.5625 C 3.109375 -11.5625 2.03125 -11.0625 1.40625 -10.0625 C 1.015625 -9.453125 0.828125 -8.734375 0.796875 -7.5625 L 2.203125 -7.5625 C 2.25 -8.359375 2.359375 -8.8125 2.546875 -9.203125 C 2.90625 -9.90625 3.640625 -10.34375 4.5 -10.34375 C 5.78125 -10.34375 6.734375 -9.40625 6.734375 -8.15625 C 6.734375 -7.234375 6.203125 -6.4375 5.203125 -5.859375 L 3.734375 -4.984375 C 1.359375 -3.625 0.671875 -2.546875 0.546875 -0.015625 L 8.09375 -0.015625 Z M 8.09375 -1.390625 "/>
</symbol>
<symbol overflow="visible" id="glyph0-4">
<path style="stroke:none;" d="M 3.53125 -5.328125 L 4.296875 -5.328125 C 5.84375 -5.328125 6.65625 -4.609375 6.65625 -3.21875 C 6.65625 -1.765625 5.78125 -0.875 4.3125 -0.875 C 2.765625 -0.875 2.015625 -1.65625 1.921875 -3.359375 L 0.515625 -3.359375 C 0.578125 -2.4375 0.734375 -1.828125 1.015625 -1.3125 C 1.59375 -0.1875 2.703125 0.375 4.25 0.375 C 6.59375 0.375 8.09375 -1.046875 8.09375 -3.234375 C 8.09375 -4.703125 7.53125 -5.5 6.171875 -5.984375 C 7.234375 -6.421875 7.765625 -7.21875 7.765625 -8.390625 C 7.765625 -10.375 6.46875 -11.5625 4.296875 -11.5625 C 2.015625 -11.5625 0.796875 -10.28125 0.75 -7.84375 L 2.15625 -7.84375 C 2.171875 -8.546875 2.234375 -8.9375 2.421875 -9.296875 C 2.734375 -9.953125 3.4375 -10.34375 4.3125 -10.34375 C 5.5625 -10.34375 6.3125 -9.578125 6.3125 -8.34375 C 6.3125 -7.515625 6.03125 -7.03125 5.40625 -6.75 C 5.03125 -6.59375 4.515625 -6.53125 3.53125 -6.515625 Z M 3.53125 -5.328125 "/>
</symbol>
<symbol overflow="visible" id="glyph0-5">
<path style="stroke:none;" d="M 5.234375 -2.796875 L 5.234375 0 L 6.640625 0 L 6.640625 -2.796875 L 8.3125 -2.796875 L 8.3125 -4.0625 L 6.640625 -4.0625 L 6.640625 -11.5625 L 5.59375 -11.5625 L 0.453125 -4.28125 L 0.453125 -2.796875 Z M 5.234375 -4.0625 L 1.6875 -4.0625 L 5.234375 -9.171875 Z M 5.234375 -4.0625 "/>
</symbol>
<symbol overflow="visible" id="glyph0-6">
<path style="stroke:none;" d="M 1.421875 0 L 5.921875 0 C 8.859375 0 10.671875 -2.203125 10.671875 -5.84375 C 10.671875 -9.453125 8.875 -11.65625 5.921875 -11.65625 L 1.421875 -11.65625 Z M 2.90625 -1.3125 L 2.90625 -10.359375 L 5.65625 -10.359375 C 7.96875 -10.359375 9.1875 -8.796875 9.1875 -5.828125 C 9.1875 -2.859375 7.96875 -1.3125 5.65625 -1.3125 Z M 2.90625 -1.3125 "/>
</symbol>
<symbol overflow="visible" id="glyph0-7">
<path style="stroke:none;" d="M 7.578125 -3.5 L 8.78125 0 L 10.453125 0 L 6.359375 -11.65625 L 4.4375 -11.65625 L 0.265625 0 L 1.859375 0 L 3.09375 -3.5 Z M 7.171875 -4.75 L 3.453125 -4.75 L 5.375 -10.0625 Z M 7.171875 -4.75 "/>
</symbol>
<symbol overflow="visible" id="glyph0-8">
<path style="stroke:none;" d="M 10.59375 -8.046875 C 10.125 -10.609375 8.65625 -11.859375 6.09375 -11.859375 C 4.53125 -11.859375 3.265625 -11.359375 2.40625 -10.40625 C 1.34375 -9.25 0.765625 -7.578125 0.765625 -5.703125 C 0.765625 -3.78125 1.359375 -2.125 2.453125 -0.984375 C 3.359375 -0.0625 4.515625 0.375 6.03125 0.375 C 8.875 0.375 10.484375 -1.171875 10.828125 -4.25 L 9.296875 -4.25 C 9.171875 -3.453125 9.015625 -2.90625 8.765625 -2.453125 C 8.28125 -1.484375 7.296875 -0.9375 6.046875 -0.9375 C 3.734375 -0.9375 2.25 -2.796875 2.25 -5.71875 C 2.25 -8.703125 3.640625 -10.546875 5.921875 -10.546875 C 6.859375 -10.546875 7.75 -10.265625 8.21875 -9.8125 C 8.65625 -9.40625 8.890625 -8.921875 9.078125 -8.046875 Z M 10.59375 -8.046875 "/>
</symbol>
<symbol overflow="visible" id="glyph0-9">
<path style="stroke:none;" d="M 7.484375 0 L 10.765625 -9.78125 L 10.765625 0 L 12.171875 0 L 12.171875 -11.65625 L 10.109375 -11.65625 L 6.71875 -1.5 L 3.265625 -11.65625 L 1.203125 -11.65625 L 1.203125 0 L 2.609375 0 L 2.609375 -9.78125 L 5.921875 0 Z M 7.484375 0 "/>
</symbol>
<symbol overflow="visible" id="glyph0-10">
<path style="stroke:none;" d="M 6.21875 -11.859375 C 2.875 -11.859375 0.609375 -9.390625 0.609375 -5.75 C 0.609375 -2.078125 2.859375 0.375 6.234375 0.375 C 7.65625 0.375 8.90625 -0.0625 9.859375 -0.859375 C 11.125 -1.9375 11.875 -3.75 11.875 -5.640625 C 11.875 -9.40625 9.640625 -11.859375 6.21875 -11.859375 Z M 6.21875 -10.546875 C 8.75 -10.546875 10.390625 -8.640625 10.390625 -5.6875 C 10.390625 -2.859375 8.703125 -0.9375 6.234375 -0.9375 C 3.75 -0.9375 2.09375 -2.859375 2.09375 -5.75 C 2.09375 -8.625 3.75 -10.546875 6.21875 -10.546875 Z M 6.21875 -10.546875 "/>
</symbol>
<symbol overflow="visible" id="glyph1-0">
<path style="stroke:none;" d=""/>
</symbol>
<symbol overflow="visible" id="glyph1-1">
<path style="stroke:none;" d="M -11.65625 -2.765625 L -11.65625 -1.28125 L 0 -1.28125 L 0 -8.53125 L -1.3125 -8.53125 L -1.3125 -2.765625 Z M -11.65625 -2.765625 "/>
</symbol>
<symbol overflow="visible" id="glyph1-2">
<path style="stroke:none;" d="M -8.625 -4.359375 C -8.625 -1.984375 -6.9375 -0.578125 -4.125 -0.578125 C -1.296875 -0.578125 0.375 -1.984375 0.375 -4.375 C 0.375 -6.734375 -1.3125 -8.15625 -4.0625 -8.15625 C -6.96875 -8.15625 -8.625 -6.78125 -8.625 -4.359375 Z M -7.390625 -4.375 C -7.390625 -5.875 -6.15625 -6.765625 -4.078125 -6.765625 C -2.09375 -6.765625 -0.859375 -5.84375 -0.859375 -4.375 C -0.859375 -2.875 -2.09375 -1.96875 -4.125 -1.96875 C -6.15625 -1.96875 -7.390625 -2.875 -7.390625 -4.375 Z M -7.390625 -4.375 "/>
</symbol>
<symbol overflow="visible" id="glyph1-3">
<path style="stroke:none;" d="M -8.390625 -1.125 L 0 -1.125 L 0 -2.46875 L -5.265625 -2.46875 C -6.484375 -2.46875 -7.453125 -3.34375 -7.453125 -4.4375 C -7.453125 -5.421875 -6.84375 -5.984375 -5.78125 -5.984375 L 0 -5.984375 L 0 -7.328125 L -5.265625 -7.328125 C -6.484375 -7.328125 -7.453125 -8.203125 -7.453125 -9.296875 C -7.453125 -10.265625 -6.828125 -10.84375 -5.78125 -10.84375 L 0 -10.84375 L 0 -12.1875 L -6.28125 -12.1875 C -7.796875 -12.1875 -8.625 -11.328125 -8.625 -9.765625 C -8.625 -8.640625 -8.28125 -7.96875 -7.34375 -7.1875 C -8.234375 -6.6875 -8.625 -6.015625 -8.625 -4.921875 C -8.625 -3.8125 -8.203125 -3.0625 -7.203125 -2.359375 L -8.390625 -2.359375 Z M -8.390625 -1.125 "/>
</symbol>
<symbol overflow="visible" id="glyph1-4">
<path style="stroke:none;" d="M -11.65625 -0.859375 L 0 -0.859375 L 0 -2.0625 L -1.078125 -2.0625 C -0.09375 -2.703125 0.375 -3.546875 0.375 -4.71875 C 0.375 -6.921875 -1.4375 -8.375 -4.21875 -8.375 C -6.9375 -8.375 -8.625 -7.015625 -8.625 -4.78125 C -8.625 -3.625 -8.1875 -2.8125 -7.25 -2.1875 L -11.65625 -2.1875 Z M -7.375 -4.53125 C -7.375 -6.015625 -6.078125 -6.96875 -4.078125 -6.96875 C -2.171875 -6.96875 -0.875 -5.984375 -0.875 -4.53125 C -0.875 -3.109375 -2.15625 -2.1875 -4.125 -2.1875 C -6.09375 -2.1875 -7.375 -3.109375 -7.375 -4.53125 Z M -7.375 -4.53125 "/>
</symbol>
<symbol overflow="visible" id="glyph1-5">
<path style="stroke:none;" d="M -0.78125 -8.5625 C -0.75 -8.421875 -0.75 -8.359375 -0.75 -8.265625 C -0.75 -7.8125 -0.984375 -7.546875 -1.40625 -7.546875 L -6.34375 -7.546875 C -7.828125 -7.546875 -8.625 -6.46875 -8.625 -4.40625 C -8.625 -3.171875 -8.265625 -2.1875 -7.640625 -1.609375 C -7.21875 -1.234375 -6.734375 -1.078125 -5.90625 -1.046875 L -5.90625 -2.390625 C -6.921875 -2.5 -7.390625 -3.109375 -7.390625 -4.359375 C -7.390625 -5.5625 -6.9375 -6.21875 -6.140625 -6.21875 L -5.796875 -6.21875 C -5.21875 -6.203125 -5.015625 -5.921875 -4.859375 -4.828125 C -4.625 -2.9375 -4.5625 -2.65625 -4.359375 -2.140625 C -3.9375 -1.171875 -3.203125 -0.671875 -2.109375 -0.671875 C -0.59375 -0.671875 0.375 -1.734375 0.375 -3.421875 C 0.375 -4.484375 0 -5.328125 -0.859375 -6.265625 C 0 -6.375 0.375 -6.78125 0.375 -7.640625 C 0.375 -7.9375 0.34375 -8.109375 0.21875 -8.5625 Z M -2.640625 -6.21875 C -2.1875 -6.21875 -1.921875 -6.09375 -1.546875 -5.703125 C -1.0625 -5.15625 -0.796875 -4.5 -0.796875 -3.71875 C -0.796875 -2.671875 -1.296875 -2.0625 -2.140625 -2.0625 C -3.03125 -2.0625 -3.46875 -2.640625 -3.6875 -4.078125 C -3.875 -5.5 -3.9375 -5.78125 -4.140625 -6.21875 Z M -2.640625 -6.21875 "/>
</symbol>
<symbol overflow="visible" id="glyph1-6">
<path style="stroke:none;" d="M -8.390625 -1.109375 L 0 -1.109375 L 0 -2.453125 L -4.359375 -2.453125 C -6.375 -2.46875 -7.265625 -3.296875 -7.21875 -5.140625 L -8.578125 -5.140625 C -8.609375 -4.90625 -8.625 -4.78125 -8.625 -4.625 C -8.625 -3.765625 -8.109375 -3.109375 -6.859375 -2.34375 L -8.390625 -2.34375 Z M -8.390625 -1.109375 "/>
</symbol>
<symbol overflow="visible" id="glyph1-7">
<path style="stroke:none;" d="M -11.65625 -7.921875 L -11.65625 -6.59375 L -7.328125 -6.59375 C -8.171875 -6.03125 -8.625 -5.140625 -8.625 -4.015625 C -8.625 -1.84375 -6.875 -0.421875 -4.203125 -0.421875 C -1.375 -0.421875 0.375 -1.796875 0.375 -4.0625 C 0.375 -5.21875 -0.0625 -6.015625 -1.109375 -6.734375 L 0 -6.734375 L 0 -7.921875 Z M -7.375 -4.234375 C -7.375 -5.6875 -6.109375 -6.59375 -4.09375 -6.59375 C -2.15625 -6.59375 -0.875 -5.65625 -0.875 -4.25 C -0.875 -2.78125 -2.171875 -1.8125 -4.125 -1.8125 C -6.078125 -1.8125 -7.375 -2.78125 -7.375 -4.234375 Z M -7.375 -4.234375 "/>
</symbol>
<symbol overflow="visible" id="glyph1-8">
<path style="stroke:none;" d="M -8.390625 -2.40625 L -8.390625 -1.078125 L 0 -1.078125 L 0 -2.40625 Z M -11.65625 -2.40625 L -11.65625 -1.0625 L -9.984375 -1.0625 L -9.984375 -2.40625 Z M -11.65625 -2.40625 "/>
</symbol>
<symbol overflow="visible" id="glyph1-9">
<path style="stroke:none;" d="M 0 -7.484375 L -9.78125 -10.765625 L 0 -10.765625 L 0 -12.171875 L -11.65625 -12.171875 L -11.65625 -10.109375 L -1.5 -6.71875 L -11.65625 -3.265625 L -11.65625 -1.203125 L 0 -1.203125 L 0 -2.609375 L -9.78125 -2.609375 L 0 -5.921875 Z M 0 -7.484375 "/>
</symbol>
<symbol overflow="visible" id="glyph1-10">
<path style="stroke:none;" d="M -5.5625 -7.53125 C -6.390625 -7.46875 -6.90625 -7.296875 -7.375 -6.96875 C -8.15625 -6.40625 -8.625 -5.390625 -8.625 -4.21875 C -8.625 -1.953125 -6.828125 -0.5 -4.046875 -0.5 C -1.34375 -0.5 0.375 -1.9375 0.375 -4.203125 C 0.375 -6.203125 -0.828125 -7.46875 -2.875 -7.625 L -2.875 -6.28125 C -1.53125 -6.0625 -0.859375 -5.375 -0.859375 -4.234375 C -0.859375 -2.765625 -2.0625 -1.890625 -4.046875 -1.890625 C -6.140625 -1.890625 -7.390625 -2.75 -7.390625 -4.203125 C -7.390625 -5.328125 -6.734375 -6.03125 -5.5625 -6.1875 Z M -5.5625 -7.53125 "/>
</symbol>
<symbol overflow="visible" id="glyph1-11">
<path style="stroke:none;" d="M -11.65625 -1.125 L 0 -1.125 L 0 -2.453125 L -4.625 -2.453125 C -6.34375 -2.453125 -7.453125 -3.34375 -7.453125 -4.71875 C -7.453125 -5.171875 -7.328125 -5.578125 -7.09375 -5.90625 C -6.796875 -6.28125 -6.40625 -6.453125 -5.8125 -6.453125 L 0 -6.453125 L 0 -7.78125 L -6.34375 -7.78125 C -7.75 -7.78125 -8.625 -6.765625 -8.625 -5.140625 C -8.625 -3.953125 -8.25 -3.234375 -7.234375 -2.453125 L -11.65625 -2.453125 Z M -11.65625 -1.125 "/>
</symbol>
<symbol overflow="visible" id="glyph1-12">
<path style="stroke:none;" d="M -3.75 -8.203125 C -5.03125 -8.203125 -5.796875 -8.109375 -6.421875 -7.875 C -7.796875 -7.328125 -8.625 -6.046875 -8.625 -4.484375 C -8.625 -2.140625 -6.84375 -0.640625 -4.078125 -0.640625 C -1.3125 -0.640625 0.375 -2.078125 0.375 -4.453125 C 0.375 -6.375 -0.71875 -7.703125 -2.546875 -8.03125 L -2.546875 -6.6875 C -1.4375 -6.3125 -0.859375 -5.5625 -0.859375 -4.5 C -0.859375 -3.640625 -1.25 -2.921875 -1.953125 -2.484375 C -2.4375 -2.15625 -2.90625 -2.046875 -3.75 -2.03125 Z M -4.828125 -2.0625 C -6.390625 -2.171875 -7.390625 -3.125 -7.390625 -4.46875 C -7.390625 -5.828125 -6.34375 -6.765625 -4.828125 -6.765625 Z M -4.828125 -2.0625 "/>
</symbol>
<symbol overflow="visible" id="glyph1-13">
<path style="stroke:none;" d="M -8.234375 -9.53125 C -9.046875 -9.53125 -9.265625 -9.484375 -9.8125 -9.234375 C -11.15625 -8.59375 -11.859375 -7.234375 -11.859375 -5.265625 C -11.859375 -2.703125 -10.546875 -1.125 -8.4375 -1.125 C -7.015625 -1.125 -6.109375 -1.875 -5.71875 -3.40625 L -4.9375 -6.296875 C -4.5625 -7.796875 -3.96875 -8.453125 -3.0625 -8.453125 C -2.4375 -8.453125 -1.796875 -8.109375 -1.4375 -7.609375 C -1.109375 -7.15625 -0.9375 -6.421875 -0.9375 -5.46875 C -0.9375 -4.1875 -1.25 -3.34375 -1.921875 -2.78125 C -2.4375 -2.359375 -2.984375 -2.15625 -3.71875 -2.171875 L -3.71875 -0.765625 C -2.640625 -0.78125 -1.9375 -0.984375 -1.296875 -1.453125 C -0.1875 -2.25 0.375 -3.59375 0.375 -5.375 C 0.375 -6.765625 0.046875 -7.90625 -0.53125 -8.65625 C -1.15625 -9.4375 -2.1875 -9.9375 -3.203125 -9.9375 C -4.640625 -9.9375 -5.703125 -9.046875 -6.125 -7.453125 L -6.90625 -4.53125 C -7.296875 -3.125 -7.75 -2.609375 -8.640625 -2.609375 C -9.828125 -2.609375 -10.609375 -3.640625 -10.609375 -5.21875 C -10.609375 -7.078125 -9.78125 -8.109375 -8.234375 -8.125 Z M -8.234375 -9.53125 "/>
</symbol>
<symbol overflow="visible" id="glyph1-14">
<path style="stroke:none;" d="M -8.390625 -6.46875 L -7.171875 -6.46875 C -8.171875 -5.796875 -8.625 -5.0625 -8.625 -4 C -8.625 -1.96875 -6.734375 -0.5625 -4.046875 -0.5625 C -2.640625 -0.5625 -1.609375 -0.890625 -0.765625 -1.609375 C -0.03125 -2.234375 0.375 -3.046875 0.375 -3.90625 C 0.375 -4.90625 -0.078125 -5.625 -1.140625 -6.34375 L -0.703125 -6.34375 C 1.53125 -6.34375 2.375 -5.71875 2.375 -4.046875 C 2.375 -2.90625 1.921875 -2.3125 0.953125 -2.1875 L 0.953125 -0.828125 C 2.515625 -0.953125 3.484375 -2.1875 3.484375 -4.015625 C 3.484375 -5.25 3.09375 -6.265625 2.421875 -6.8125 C 1.625 -7.453125 0.59375 -7.703125 -1.375 -7.703125 L -8.390625 -7.703125 Z M -7.390625 -4.125 C -7.390625 -5.53125 -6.203125 -6.34375 -4.078125 -6.34375 C -2.046875 -6.34375 -0.859375 -5.515625 -0.859375 -4.125 C -0.859375 -2.75 -2.0625 -1.953125 -4.125 -1.953125 C -6.171875 -1.953125 -7.390625 -2.75 -7.390625 -4.125 Z M -7.390625 -4.125 "/>
</symbol>
<symbol overflow="visible" id="glyph1-15">
<path style="stroke:none;" d="M -8.390625 -1.125 L 0 -1.125 L 0 -2.46875 L -4.625 -2.46875 C -6.34375 -2.46875 -7.453125 -3.359375 -7.453125 -4.734375 C -7.453125 -5.796875 -6.8125 -6.46875 -5.8125 -6.46875 L 0 -6.46875 L 0 -7.796875 L -6.34375 -7.796875 C -7.734375 -7.796875 -8.625 -6.75 -8.625 -5.140625 C -8.625 -3.890625 -8.140625 -3.09375 -6.96875 -2.359375 L -8.390625 -2.359375 Z M -8.390625 -1.125 "/>
</symbol>
<symbol overflow="visible" id="glyph1-16">
<path style="stroke:none;" d="M -11.65625 -2.4375 L -11.65625 -1.09375 L 0 -1.09375 L 0 -2.4375 Z M -11.65625 -2.4375 "/>
</symbol>
<symbol overflow="visible" id="glyph1-17">
<path style="stroke:none;" d="M 0 -6.265625 L -11.65625 -10.3125 L -11.65625 -8.734375 L -1.796875 -5.5 L -11.65625 -2.078125 L -11.65625 -0.484375 L 0 -4.671875 Z M 0 -6.265625 "/>
</symbol>
<symbol overflow="visible" id="glyph1-18">
<path style="stroke:none;" d="M -8.390625 -4.0625 L -8.390625 -2.6875 L -10.6875 -2.6875 L -10.6875 -1.359375 L -8.390625 -1.359375 L -8.390625 -0.21875 L -7.296875 -0.21875 L -7.296875 -1.359375 L -0.953125 -1.359375 C -0.09375 -1.359375 0.375 -1.9375 0.375 -2.96875 C 0.375 -3.328125 0.34375 -3.609375 0.25 -4.0625 L -0.859375 -4.0625 C -0.8125 -3.875 -0.796875 -3.703125 -0.796875 -3.421875 C -0.796875 -2.84375 -0.953125 -2.6875 -1.546875 -2.6875 L -7.296875 -2.6875 L -7.296875 -4.0625 Z M -8.390625 -4.0625 "/>
</symbol>
<symbol overflow="visible" id="glyph2-0">
<path style="stroke:none;" d=""/>
</symbol>
<symbol overflow="visible" id="glyph2-1">
<path style="stroke:none;" d="M -6.953125 -9.421875 C -7.984375 -9.34375 -8.640625 -9.125 -9.21875 -8.71875 C -10.203125 -8 -10.78125 -6.734375 -10.78125 -5.28125 C -10.78125 -2.4375 -8.546875 -0.625 -5.0625 -0.625 C -1.6875 -0.625 0.453125 -2.421875 0.453125 -5.265625 C 0.453125 -7.765625 -1.046875 -9.34375 -3.59375 -9.546875 L -3.59375 -7.859375 C -1.921875 -7.578125 -1.078125 -6.71875 -1.078125 -5.296875 C -1.078125 -3.453125 -2.578125 -2.359375 -5.0625 -2.359375 C -7.6875 -2.359375 -9.234375 -3.4375 -9.234375 -5.265625 C -9.234375 -6.65625 -8.421875 -7.546875 -6.953125 -7.734375 Z M -6.953125 -9.421875 "/>
</symbol>
<symbol overflow="visible" id="glyph2-2">
<path style="stroke:none;" d="M -10.78125 -5.4375 C -10.78125 -2.484375 -8.6875 -0.71875 -5.15625 -0.71875 C -1.625 -0.71875 0.453125 -2.484375 0.453125 -5.453125 C 0.453125 -8.421875 -1.640625 -10.203125 -5.078125 -10.203125 C -8.71875 -10.203125 -10.78125 -8.484375 -10.78125 -5.4375 Z M -9.234375 -5.453125 C -9.234375 -7.34375 -7.703125 -8.453125 -5.09375 -8.453125 C -2.625 -8.453125 -1.078125 -7.296875 -1.078125 -5.453125 C -1.078125 -3.59375 -2.625 -2.453125 -5.15625 -2.453125 C -7.703125 -2.453125 -9.234375 -3.59375 -9.234375 -5.453125 Z M -9.234375 -5.453125 "/>
</symbol>
<symbol overflow="visible" id="glyph2-3">
<path style="stroke:none;" d="M 0 -9.640625 L -10.484375 -9.640625 L -10.484375 -7.984375 L -4.546875 -7.984375 C -2.40625 -7.984375 -1 -6.859375 -1 -5.125 C -1 -3.796875 -1.796875 -2.953125 -3.0625 -2.953125 L -10.484375 -2.953125 L -10.484375 -1.296875 L -2.40625 -1.296875 C -0.65625 -1.296875 0.453125 -2.59375 0.453125 -4.640625 C 0.453125 -6.1875 -0.078125 -7.15625 -1.453125 -8.140625 L 0 -8.140625 Z M 0 -9.640625 "/>
</symbol>
<symbol overflow="visible" id="glyph2-4">
<path style="stroke:none;" d="M -10.484375 -1.40625 L 0 -1.40625 L 0 -3.078125 L -5.78125 -3.078125 C -7.921875 -3.078125 -9.3125 -4.203125 -9.3125 -5.921875 C -9.3125 -7.234375 -8.515625 -8.078125 -7.265625 -8.078125 L 0 -8.078125 L 0 -9.734375 L -7.921875 -9.734375 C -9.65625 -9.734375 -10.78125 -8.4375 -10.78125 -6.421875 C -10.78125 -4.859375 -10.1875 -3.859375 -8.71875 -2.9375 L -10.484375 -2.9375 Z M -10.484375 -1.40625 "/>
</symbol>
<symbol overflow="visible" id="glyph2-5">
<path style="stroke:none;" d="M -10.484375 -5.078125 L -10.484375 -3.359375 L -13.359375 -3.359375 L -13.359375 -1.703125 L -10.484375 -1.703125 L -10.484375 -0.28125 L -9.125 -0.28125 L -9.125 -1.703125 L -1.203125 -1.703125 C -0.125 -1.703125 0.453125 -2.421875 0.453125 -3.71875 C 0.453125 -4.15625 0.421875 -4.515625 0.3125 -5.078125 L -1.078125 -5.078125 C -1.015625 -4.84375 -1 -4.625 -1 -4.28125 C -1 -3.5625 -1.203125 -3.359375 -1.9375 -3.359375 L -9.125 -3.359375 L -9.125 -5.078125 Z M -10.484375 -5.078125 "/>
</symbol>
<symbol overflow="visible" id="glyph3-0">
<path style="stroke:none;" d=""/>
</symbol>
<symbol overflow="visible" id="glyph3-1">
<path style="stroke:none;" d="M 4.46875 -7.53125 L 10.21875 -7.53125 C 12.21875 -7.53125 13.109375 -6.578125 13.109375 -4.421875 L 13.078125 -2.859375 C 13.078125 -1.78125 13.265625 -0.71875 13.578125 0 L 16.296875 0 L 16.296875 -0.546875 C 15.453125 -1.125 15.28125 -1.75 15.234375 -4.078125 C 15.21875 -6.953125 14.765625 -7.828125 12.859375 -8.640625 C 14.828125 -9.625 15.625 -10.796875 15.625 -12.8125 C 15.625 -15.84375 13.75 -17.5 10.296875 -17.5 L 2.234375 -17.5 L 2.234375 0 L 4.46875 0 Z M 4.46875 -9.5 L 4.46875 -15.53125 L 9.859375 -15.53125 C 11.109375 -15.53125 11.828125 -15.34375 12.390625 -14.859375 C 12.984375 -14.359375 13.296875 -13.5625 13.296875 -12.53125 C 13.296875 -10.4375 12.234375 -9.5 9.859375 -9.5 Z M 4.46875 -9.5 "/>
</symbol>
<symbol overflow="visible" id="glyph3-2">
<path style="stroke:none;" d="M 12.3125 -5.609375 C 12.3125 -7.53125 12.171875 -8.6875 11.8125 -9.625 C 10.984375 -11.6875 9.078125 -12.9375 6.71875 -12.9375 C 3.21875 -12.9375 0.953125 -10.265625 0.953125 -6.125 C 0.953125 -1.96875 3.125 0.546875 6.671875 0.546875 C 9.546875 0.546875 11.546875 -1.078125 12.046875 -3.8125 L 10.03125 -3.8125 C 9.484375 -2.15625 8.359375 -1.296875 6.75 -1.296875 C 5.46875 -1.296875 4.390625 -1.875 3.71875 -2.921875 C 3.234375 -3.640625 3.078125 -4.375 3.046875 -5.609375 Z M 3.09375 -7.25 C 3.265625 -9.578125 4.6875 -11.09375 6.703125 -11.09375 C 8.734375 -11.09375 10.15625 -9.5 10.15625 -7.25 Z M 3.09375 -7.25 "/>
</symbol>
<symbol overflow="visible" id="glyph3-3">
<path style="stroke:none;" d="M 9.703125 -12.578125 L 9.703125 -10.75 C 8.6875 -12.265625 7.578125 -12.9375 6 -12.9375 C 2.953125 -12.9375 0.84375 -10.109375 0.84375 -6.078125 C 0.84375 -3.953125 1.34375 -2.421875 2.421875 -1.15625 C 3.359375 -0.046875 4.5625 0.546875 5.859375 0.546875 C 7.375 0.546875 8.453125 -0.125 9.5 -1.703125 L 9.5 -1.0625 C 9.5 2.296875 8.5625 3.546875 6.078125 3.546875 C 4.375 3.546875 3.484375 2.875 3.28125 1.4375 L 1.25 1.4375 C 1.4375 3.765625 3.28125 5.234375 6.03125 5.234375 C 7.875 5.234375 9.40625 4.625 10.21875 3.625 C 11.1875 2.453125 11.546875 0.890625 11.546875 -2.0625 L 11.546875 -12.578125 Z M 6.1875 -11.09375 C 8.296875 -11.09375 9.5 -9.3125 9.5 -6.125 C 9.5 -3.078125 8.28125 -1.296875 6.1875 -1.296875 C 4.125 -1.296875 2.921875 -3.09375 2.921875 -6.1875 C 2.921875 -9.265625 4.125 -11.09375 6.1875 -11.09375 Z M 6.1875 -11.09375 "/>
</symbol>
<symbol overflow="visible" id="glyph3-4">
<path style="stroke:none;" d="M 3.59375 -12.578125 L 1.609375 -12.578125 L 1.609375 0 L 3.59375 0 Z M 3.59375 -17.5 L 1.578125 -17.5 L 1.578125 -14.96875 L 3.59375 -14.96875 Z M 3.59375 -17.5 "/>
</symbol>
<symbol overflow="visible" id="glyph3-5">
<path style="stroke:none;" d="M 6.53125 -12.9375 C 2.96875 -12.9375 0.859375 -10.421875 0.859375 -6.1875 C 0.859375 -1.9375 2.96875 0.546875 6.546875 0.546875 C 10.109375 0.546875 12.234375 -1.96875 12.234375 -6.09375 C 12.234375 -10.46875 10.171875 -12.9375 6.53125 -12.9375 Z M 6.546875 -11.09375 C 8.8125 -11.09375 10.15625 -9.234375 10.15625 -6.125 C 10.15625 -3.140625 8.765625 -1.296875 6.546875 -1.296875 C 4.3125 -1.296875 2.953125 -3.140625 2.953125 -6.1875 C 2.953125 -9.234375 4.3125 -11.09375 6.546875 -11.09375 Z M 6.546875 -11.09375 "/>
</symbol>
<symbol overflow="visible" id="glyph3-6">
<path style="stroke:none;" d="M 1.6875 -12.578125 L 1.6875 0 L 3.703125 0 L 3.703125 -6.9375 C 3.703125 -9.5 5.046875 -11.1875 7.109375 -11.1875 C 8.6875 -11.1875 9.703125 -10.21875 9.703125 -8.71875 L 9.703125 0 L 11.6875 0 L 11.6875 -9.5 C 11.6875 -11.59375 10.125 -12.9375 7.703125 -12.9375 C 5.828125 -12.9375 4.625 -12.21875 3.53125 -10.46875 L 3.53125 -12.578125 Z M 1.6875 -12.578125 "/>
</symbol>
<symbol overflow="visible" id="glyph3-7">
<path style="stroke:none;" d="M 2.140625 0 L 8.875 0 C 13.296875 0 16.015625 -3.3125 16.015625 -8.765625 C 16.015625 -14.1875 13.3125 -17.5 8.875 -17.5 L 2.140625 -17.5 Z M 4.375 -1.96875 L 4.375 -15.53125 L 8.5 -15.53125 C 11.953125 -15.53125 13.78125 -13.203125 13.78125 -8.734375 C 13.78125 -4.296875 11.953125 -1.96875 8.5 -1.96875 Z M 4.375 -1.96875 "/>
</symbol>
<symbol overflow="visible" id="glyph3-8">
<path style="stroke:none;" d="M 12.84375 -1.171875 C 12.625 -1.125 12.53125 -1.125 12.40625 -1.125 C 11.71875 -1.125 11.328125 -1.484375 11.328125 -2.109375 L 11.328125 -9.5 C 11.328125 -11.734375 9.703125 -12.9375 6.59375 -12.9375 C 4.75 -12.9375 3.28125 -12.40625 2.421875 -11.46875 C 1.84375 -10.828125 1.609375 -10.109375 1.5625 -8.859375 L 3.578125 -8.859375 C 3.75 -10.390625 4.65625 -11.09375 6.53125 -11.09375 C 8.359375 -11.09375 9.34375 -10.421875 9.34375 -9.21875 L 9.34375 -8.6875 C 9.3125 -7.828125 8.875 -7.515625 7.25 -7.296875 C 4.421875 -6.9375 3.984375 -6.84375 3.21875 -6.53125 C 1.75 -5.90625 1.015625 -4.796875 1.015625 -3.171875 C 1.015625 -0.890625 2.59375 0.546875 5.140625 0.546875 C 6.71875 0.546875 7.984375 0 9.40625 -1.296875 C 9.546875 0 10.171875 0.546875 11.46875 0.546875 C 11.90625 0.546875 12.171875 0.5 12.84375 0.34375 Z M 9.34375 -3.953125 C 9.34375 -3.28125 9.140625 -2.875 8.546875 -2.328125 C 7.734375 -1.578125 6.75 -1.203125 5.5625 -1.203125 C 4.015625 -1.203125 3.09375 -1.9375 3.09375 -3.21875 C 3.09375 -4.53125 3.953125 -5.203125 6.125 -5.515625 C 8.25 -5.8125 8.65625 -5.90625 9.34375 -6.21875 Z M 9.34375 -3.953125 "/>
</symbol>
<symbol overflow="visible" id="glyph3-9">
<path style="stroke:none;" d="M 10.515625 -9.078125 C 10.484375 -11.546875 8.859375 -12.9375 5.953125 -12.9375 C 3.03125 -12.9375 1.125 -11.421875 1.125 -9.09375 C 1.125 -7.125 2.140625 -6.1875 5.109375 -5.46875 L 6.984375 -5.015625 C 8.375 -4.6875 8.921875 -4.171875 8.921875 -3.28125 C 8.921875 -2.09375 7.75 -1.296875 6 -1.296875 C 4.921875 -1.296875 4.015625 -1.609375 3.5 -2.140625 C 3.1875 -2.5 3.046875 -2.859375 2.921875 -3.75 L 0.8125 -3.75 C 0.90625 -0.84375 2.546875 0.546875 5.828125 0.546875 C 9 0.546875 11.015625 -1.015625 11.015625 -3.4375 C 11.015625 -5.296875 9.953125 -6.34375 7.46875 -6.9375 L 5.546875 -7.390625 C 3.90625 -7.78125 3.21875 -8.296875 3.21875 -9.1875 C 3.21875 -10.375 4.25 -11.09375 5.875 -11.09375 C 7.484375 -11.09375 8.359375 -10.390625 8.40625 -9.078125 Z M 10.515625 -9.078125 "/>
</symbol>
<symbol overflow="visible" id="glyph4-0">
<path style="stroke:none;" d=""/>
</symbol>
<symbol overflow="visible" id="glyph4-1">
<path style="stroke:none;" d="M 5.84375 -5.421875 L 9.359375 -10.484375 L 7.484375 -10.484375 L 4.953125 -6.6875 L 2.4375 -10.484375 L 0.546875 -10.484375 L 4.046875 -5.34375 L 0.34375 0 L 2.234375 0 L 4.90625 -4.015625 L 7.515625 0 L 9.453125 0 Z M 5.84375 -5.421875 "/>
</symbol>
</g>
<clipPath id="clip1">
  <path d="M 9.960938 9.960938 L 360 9.960938 L 360 350.035156 L 9.960938 350.035156 Z M 9.960938 9.960938 "/>
</clipPath>
<clipPath id="clip2">
  <path d="M 360 9.960938 L 710.039062 9.960938 L 710.039062 350.035156 L 360 350.035156 Z M 360 9.960938 "/>
</clipPath>
<clipPath id="clip3">
  <path d="M 71.871094 204 L 350.035156 204 L 350.035156 206 L 71.871094 206 Z M 71.871094 204 "/>
</clipPath>
<clipPath id="clip4">
  <path d="M 71.871094 169 L 350.035156 169 L 350.035156 171 L 71.871094 171 Z M 71.871094 169 "/>
</clipPath>
<clipPath id="clip5">
  <path d="M 71.871094 134 L 350.035156 134 L 350.035156 136 L 71.871094 136 Z M 71.871094 134 "/>
</clipPath>
<clipPath id="clip6">
  <path d="M 71.871094 99 L 350.035156 99 L 350.035156 101 L 71.871094 101 Z M 71.871094 99 "/>
</clipPath>
<clipPath id="clip7">
  <path d="M 71.871094 64 L 350.035156 64 L 350.035156 66 L 71.871094 66 Z M 71.871094 64 "/>
</clipPath>
<clipPath id="clip8">
  <path d="M 71.871094 221 L 350.035156 221 L 350.035156 224 L 71.871094 224 Z M 71.871094 221 "/>
</clipPath>
<clipPath id="clip9">
  <path d="M 71.871094 186 L 350.035156 186 L 350.035156 189 L 71.871094 189 Z M 71.871094 186 "/>
</clipPath>
<clipPath id="clip10">
  <path d="M 71.871094 151 L 350.035156 151 L 350.035156 154 L 71.871094 154 Z M 71.871094 151 "/>
</clipPath>
<clipPath id="clip11">
  <path d="M 71.871094 116 L 350.035156 116 L 350.035156 119 L 71.871094 119 Z M 71.871094 116 "/>
</clipPath>
<clipPath id="clip12">
  <path d="M 71.871094 81 L 350.035156 81 L 350.035156 84 L 71.871094 84 Z M 71.871094 81 "/>
</clipPath>
<clipPath id="clip13">
  <path d="M 103 53.886719 L 105 53.886719 L 105 230.125 L 103 230.125 Z M 103 53.886719 "/>
</clipPath>
<clipPath id="clip14">
  <path d="M 156 53.886719 L 159 53.886719 L 159 230.125 L 156 230.125 Z M 156 53.886719 "/>
</clipPath>
<clipPath id="clip15">
  <path d="M 209 53.886719 L 212 53.886719 L 212 230.125 L 209 230.125 Z M 209 53.886719 "/>
</clipPath>
<clipPath id="clip16">
  <path d="M 263 53.886719 L 266 53.886719 L 266 230.125 L 263 230.125 Z M 263 53.886719 "/>
</clipPath>
<clipPath id="clip17">
  <path d="M 316 53.886719 L 319 53.886719 L 319 230.125 L 316 230.125 Z M 316 53.886719 "/>
</clipPath>
<clipPath id="clip18">
  <path d="M 421.910156 194 L 700.074219 194 L 700.074219 196 L 421.910156 196 Z M 421.910156 194 "/>
</clipPath>
<clipPath id="clip19">
  <path d="M 421.910156 141 L 700.074219 141 L 700.074219 143 L 421.910156 143 Z M 421.910156 141 "/>
</clipPath>
<clipPath id="clip20">
  <path d="M 421.910156 88 L 700.074219 88 L 700.074219 90 L 421.910156 90 Z M 421.910156 88 "/>
</clipPath>
<clipPath id="clip21">
  <path d="M 421.910156 221 L 700.074219 221 L 700.074219 224 L 421.910156 224 Z M 421.910156 221 "/>
</clipPath>
<clipPath id="clip22">
  <path d="M 421.910156 167 L 700.074219 167 L 700.074219 170 L 421.910156 170 Z M 421.910156 167 "/>
</clipPath>
<clipPath id="clip23">
  <path d="M 421.910156 114 L 700.074219 114 L 700.074219 117 L 421.910156 117 Z M 421.910156 114 "/>
</clipPath>
<clipPath id="clip24">
  <path d="M 421.910156 60 L 700.074219 60 L 700.074219 63 L 421.910156 63 Z M 421.910156 60 "/>
</clipPath>
<clipPath id="clip25">
  <path d="M 460 53.886719 L 463 53.886719 L 463 230.125 L 460 230.125 Z M 460 53.886719 "/>
</clipPath>
<clipPath id="clip26">
  <path d="M 526 53.886719 L 529 53.886719 L 529 230.125 L 526 230.125 Z M 526 53.886719 "/>
</clipPath>
<clipPath id="clip27">
  <path d="M 593 53.886719 L 596 53.886719 L 596 230.125 L 593 230.125 Z M 593 53.886719 "/>
</clipPath>
<clipPath id="clip28">
  <path d="M 659 53.886719 L 662 53.886719 L 662 230.125 L 659 230.125 Z M 659 53.886719 "/>
</clipPath>
</defs>
<g id="surface10">
<rect x="0" y="0" width="720" height="360" style="fill:rgb(100%,100%,100%);fill-opacity:1;stroke:none;"/>
<rect x="0" y="0" width="720" height="360" style="fill:rgb(100%,100%,100%);fill-opacity:1;stroke:none;"/>
<g clip-path="url(#clip1)" clip-rule="nonzero">
<path style=" stroke:none;fill-rule:nonzero;fill:rgb(100%,100%,100%);fill-opacity:1;" d="M 9.960938 350.039062 L 360 350.039062 L 360 9.964844 L 9.960938 9.964844 Z M 9.960938 350.039062 "/>
</g>
<g clip-path="url(#clip2)" clip-rule="nonzero">
<path style=" stroke:none;fill-rule:nonzero;fill:rgb(100%,100%,100%);fill-opacity:1;" d="M 360 350.039062 L 710.039062 350.039062 L 710.039062 9.964844 L 360 9.964844 Z M 360 350.039062 "/>
</g>
<g clip-path="url(#clip3)" clip-rule="nonzero">
<path style="fill:none;stroke-width:0.96998;stroke-linecap:butt;stroke-linejoin:round;stroke:rgb(92.156863%,92.156863%,92.156863%);stroke-opacity:1;stroke-miterlimit:10;" d="M 71.871094 204.703125 L 350.039062 204.703125 "/>
</g>
<g clip-path="url(#clip4)" clip-rule="nonzero">
<path style="fill:none;stroke-width:0.96998;stroke-linecap:butt;stroke-linejoin:round;stroke:rgb(92.156863%,92.156863%,92.156863%);stroke-opacity:1;stroke-miterlimit:10;" d="M 71.871094 169.871094 L 350.039062 169.871094 "/>
</g>
<g clip-path="url(#clip5)" clip-rule="nonzero">
<path style="fill:none;stroke-width:0.96998;stroke-linecap:butt;stroke-linejoin:round;stroke:rgb(92.156863%,92.156863%,92.156863%);stroke-opacity:1;stroke-miterlimit:10;" d="M 71.871094 135.042969 L 350.039062 135.042969 "/>
</g>
<g clip-path="url(#clip6)" clip-rule="nonzero">
<path style="fill:none;stroke-width:0.96998;stroke-linecap:butt;stroke-linejoin:round;stroke:rgb(92.156863%,92.156863%,92.156863%);stroke-opacity:1;stroke-miterlimit:10;" d="M 71.871094 100.210938 L 350.039062 100.210938 "/>
</g>
<g clip-path="url(#clip7)" clip-rule="nonzero">
<path style="fill:none;stroke-width:0.96998;stroke-linecap:butt;stroke-linejoin:round;stroke:rgb(92.156863%,92.156863%,92.156863%);stroke-opacity:1;stroke-miterlimit:10;" d="M 71.871094 65.382812 L 350.039062 65.382812 "/>
</g>
<g clip-path="url(#clip8)" clip-rule="nonzero">
<path style="fill:none;stroke-width:1.939961;stroke-linecap:butt;stroke-linejoin:round;stroke:rgb(92.156863%,92.156863%,92.156863%);stroke-opacity:1;stroke-miterlimit:10;" d="M 71.871094 222.117188 L 350.039062 222.117188 "/>
</g>
<g clip-path="url(#clip9)" clip-rule="nonzero">
<path style="fill:none;stroke-width:1.939961;stroke-linecap:butt;stroke-linejoin:round;stroke:rgb(92.156863%,92.156863%,92.156863%);stroke-opacity:1;stroke-miterlimit:10;" d="M 71.871094 187.285156 L 350.039062 187.285156 "/>
</g>
<g clip-path="url(#clip10)" clip-rule="nonzero">
<path style="fill:none;stroke-width:1.939961;stroke-linecap:butt;stroke-linejoin:round;stroke:rgb(92.156863%,92.156863%,92.156863%);stroke-opacity:1;stroke-miterlimit:10;" d="M 71.871094 152.457031 L 350.039062 152.457031 "/>
</g>
<g clip-path="url(#clip11)" clip-rule="nonzero">
<path style="fill:none;stroke-width:1.939961;stroke-linecap:butt;stroke-linejoin:round;stroke:rgb(92.156863%,92.156863%,92.156863%);stroke-opacity:1;stroke-miterlimit:10;" d="M 71.871094 117.625 L 350.039062 117.625 "/>
</g>
<g clip-path="url(#clip12)" clip-rule="nonzero">
<path style="fill:none;stroke-width:1.939961;stroke-linecap:butt;stroke-linejoin:round;stroke:rgb(92.156863%,92.156863%,92.156863%);stroke-opacity:1;stroke-miterlimit:10;" d="M 71.871094 82.796875 L 350.039062 82.796875 "/>
</g>
<g clip-path="url(#clip13)" clip-rule="nonzero">
<path style="fill:none;stroke-width:1.939961;stroke-linecap:butt;stroke-linejoin:round;stroke:rgb(92.156863%,92.156863%,92.156863%);stroke-opacity:1;stroke-miterlimit:10;" d="M 103.96875 230.128906 L 103.96875 53.886719 "/>
</g>
<g clip-path="url(#clip14)" clip-rule="nonzero">
<path style="fill:none;stroke-width:1.939961;stroke-linecap:butt;stroke-linejoin:round;stroke:rgb(92.156863%,92.156863%,92.156863%);stroke-opacity:1;stroke-miterlimit:10;" d="M 157.460938 230.128906 L 157.460938 53.886719 "/>
</g>
<g clip-path="url(#clip15)" clip-rule="nonzero">
<path style="fill:none;stroke-width:1.939961;stroke-linecap:butt;stroke-linejoin:round;stroke:rgb(92.156863%,92.156863%,92.156863%);stroke-opacity:1;stroke-miterlimit:10;" d="M 210.957031 230.128906 L 210.957031 53.886719 "/>
</g>
<g clip-path="url(#clip16)" clip-rule="nonzero">
<path style="fill:none;stroke-width:1.939961;stroke-linecap:butt;stroke-linejoin:round;stroke:rgb(92.156863%,92.156863%,92.156863%);stroke-opacity:1;stroke-miterlimit:10;" d="M 264.449219 230.128906 L 264.449219 53.886719 "/>
</g>
<g clip-path="url(#clip17)" clip-rule="nonzero">
<path style="fill:none;stroke-width:1.939961;stroke-linecap:butt;stroke-linejoin:round;stroke:rgb(92.156863%,92.156863%,92.156863%);stroke-opacity:1;stroke-miterlimit:10;" d="M 317.941406 230.128906 L 317.941406 53.886719 "/>
</g>
<path style=" stroke:none;fill-rule:nonzero;fill:rgb(34.901961%,34.901961%,34.901961%);fill-opacity:1;" d="M 79.898438 222.117188 L 128.042969 222.117188 L 128.042969 197.734375 L 79.898438 197.734375 Z M 79.898438 222.117188 "/>
<path style=" stroke:none;fill-rule:nonzero;fill:rgb(34.901961%,34.901961%,34.901961%);fill-opacity:1;" d="M 133.390625 222.117188 L 181.535156 222.117188 L 181.535156 169.871094 L 133.390625 169.871094 Z M 133.390625 222.117188 "/>
<path style=" stroke:none;fill-rule:nonzero;fill:rgb(34.901961%,34.901961%,34.901961%);fill-opacity:1;" d="M 186.882812 222.117188 L 235.027344 222.117188 L 235.027344 173.355469 L 186.882812 173.355469 Z M 186.882812 222.117188 "/>
<path style=" stroke:none;fill-rule:nonzero;fill:rgb(34.901961%,34.901961%,34.901961%);fill-opacity:1;" d="M 240.375 222.117188 L 288.519531 222.117188 L 288.519531 159.421875 L 240.375 159.421875 Z M 240.375 222.117188 "/>
<path style=" stroke:none;fill-rule:nonzero;fill:rgb(34.901961%,34.901961%,34.901961%);fill-opacity:1;" d="M 293.871094 222.117188 L 342.015625 222.117188 L 342.015625 61.898438 L 293.871094 61.898438 Z M 293.871094 222.117188 "/>
<g style="fill:rgb(30.196078%,30.196078%,30.196078%);fill-opacity:1;">
  <use xlink:href="#glyph0-1" x="53.90625" y="227.78125"/>
</g>
<g style="fill:rgb(30.196078%,30.196078%,30.196078%);fill-opacity:1;">
  <use xlink:href="#glyph0-2" x="44.90625" y="192.949219"/>
  <use xlink:href="#glyph0-1" x="53.90625" y="192.949219"/>
</g>
<g style="fill:rgb(30.196078%,30.196078%,30.196078%);fill-opacity:1;">
  <use xlink:href="#glyph0-3" x="44.90625" y="158.121094"/>
  <use xlink:href="#glyph0-1" x="53.90625" y="158.121094"/>
</g>
<g style="fill:rgb(30.196078%,30.196078%,30.196078%);fill-opacity:1;">
  <use xlink:href="#glyph0-4" x="44.90625" y="123.289062"/>
  <use xlink:href="#glyph0-1" x="53.90625" y="123.289062"/>
</g>
<g style="fill:rgb(30.196078%,30.196078%,30.196078%);fill-opacity:1;">
  <use xlink:href="#glyph0-5" x="44.90625" y="88.460938"/>
  <use xlink:href="#glyph0-1" x="53.90625" y="88.460938"/>
</g>
<g style="fill:rgb(30.196078%,30.196078%,30.196078%);fill-opacity:1;">
  <use xlink:href="#glyph1-1" x="115.632812" y="315.09375"/>
  <use xlink:href="#glyph1-2" x="115.632812" y="306.09375"/>
  <use xlink:href="#glyph1-3" x="115.632812" y="297.09375"/>
  <use xlink:href="#glyph1-4" x="115.632812" y="284.09375"/>
  <use xlink:href="#glyph1-5" x="115.632812" y="275.09375"/>
  <use xlink:href="#glyph1-6" x="115.632812" y="266.09375"/>
  <use xlink:href="#glyph1-7" x="115.632812" y="261.09375"/>
  <use xlink:href="#glyph1-8" x="115.632812" y="252.09375"/>
  <use xlink:href="#glyph1-5" x="115.632812" y="248.09375"/>
</g>
<g style="fill:rgb(30.196078%,30.196078%,30.196078%);fill-opacity:1;">
  <use xlink:href="#glyph1-9" x="169.125" y="303.59375"/>
  <use xlink:href="#glyph1-5" x="169.125" y="290.59375"/>
  <use xlink:href="#glyph1-6" x="169.125" y="281.59375"/>
  <use xlink:href="#glyph1-10" x="169.125" y="276.59375"/>
  <use xlink:href="#glyph1-11" x="169.125" y="268.59375"/>
  <use xlink:href="#glyph1-12" x="169.125" y="259.59375"/>
</g>
<g style="fill:rgb(30.196078%,30.196078%,30.196078%);fill-opacity:1;">
  <use xlink:href="#glyph1-13" x="222.621094" y="312.09375"/>
  <use xlink:href="#glyph1-5" x="222.621094" y="301.09375"/>
  <use xlink:href="#glyph1-6" x="222.621094" y="292.09375"/>
  <use xlink:href="#glyph1-7" x="222.621094" y="287.09375"/>
  <use xlink:href="#glyph1-12" x="222.621094" y="278.09375"/>
  <use xlink:href="#glyph1-14" x="222.621094" y="269.09375"/>
  <use xlink:href="#glyph1-15" x="222.621094" y="260.09375"/>
  <use xlink:href="#glyph1-5" x="222.621094" y="251.09375"/>
</g>
<g style="fill:rgb(30.196078%,30.196078%,30.196078%);fill-opacity:1;">
  <use xlink:href="#glyph1-13" x="276.113281" y="299.09375"/>
  <use xlink:href="#glyph1-8" x="276.113281" y="288.09375"/>
  <use xlink:href="#glyph1-10" x="276.113281" y="284.09375"/>
  <use xlink:href="#glyph1-8" x="276.113281" y="276.09375"/>
  <use xlink:href="#glyph1-16" x="276.113281" y="272.09375"/>
  <use xlink:href="#glyph1-8" x="276.113281" y="268.09375"/>
  <use xlink:href="#glyph1-5" x="276.113281" y="264.09375"/>
</g>
<g style="fill:rgb(30.196078%,30.196078%,30.196078%);fill-opacity:1;">
  <use xlink:href="#glyph1-17" x="329.605469" y="302.09375"/>
  <use xlink:href="#glyph1-12" x="329.605469" y="292.09375"/>
  <use xlink:href="#glyph1-15" x="329.605469" y="283.09375"/>
  <use xlink:href="#glyph1-12" x="329.605469" y="274.09375"/>
  <use xlink:href="#glyph1-18" x="329.605469" y="265.09375"/>
  <use xlink:href="#glyph1-2" x="329.605469" y="261.09375"/>
</g>
<g style="fill:rgb(0%,0%,0%);fill-opacity:1;">
  <use xlink:href="#glyph2-1" x="34.505859" y="166.507812"/>
  <use xlink:href="#glyph2-2" x="34.505859" y="156.507812"/>
  <use xlink:href="#glyph2-3" x="34.505859" y="145.507812"/>
  <use xlink:href="#glyph2-4" x="34.505859" y="134.507812"/>
  <use xlink:href="#glyph2-5" x="34.505859" y="123.507812"/>
</g>
<g style="fill:rgb(0%,0%,0%);fill-opacity:1;">
  <use xlink:href="#glyph3-1" x="71.871094" y="37.421875"/>
  <use xlink:href="#glyph3-2" x="88.871094" y="37.421875"/>
  <use xlink:href="#glyph3-3" x="101.871094" y="37.421875"/>
  <use xlink:href="#glyph3-4" x="114.871094" y="37.421875"/>
  <use xlink:href="#glyph3-5" x="119.871094" y="37.421875"/>
  <use xlink:href="#glyph3-6" x="132.871094" y="37.421875"/>
  <use xlink:href="#glyph3-2" x="145.871094" y="37.421875"/>
</g>
<g clip-path="url(#clip18)" clip-rule="nonzero">
<path style="fill:none;stroke-width:0.96998;stroke-linecap:butt;stroke-linejoin:round;stroke:rgb(92.156863%,92.156863%,92.156863%);stroke-opacity:1;stroke-miterlimit:10;" d="M 421.910156 195.414062 L 700.074219 195.414062 "/>
</g>
<g clip-path="url(#clip19)" clip-rule="nonzero">
<path style="fill:none;stroke-width:0.96998;stroke-linecap:butt;stroke-linejoin:round;stroke:rgb(92.156863%,92.156863%,92.156863%);stroke-opacity:1;stroke-miterlimit:10;" d="M 421.910156 142.007812 L 700.074219 142.007812 "/>
</g>
<g clip-path="url(#clip20)" clip-rule="nonzero">
<path style="fill:none;stroke-width:0.96998;stroke-linecap:butt;stroke-linejoin:round;stroke:rgb(92.156863%,92.156863%,92.156863%);stroke-opacity:1;stroke-miterlimit:10;" d="M 421.910156 88.601562 L 700.074219 88.601562 "/>
</g>
<g clip-path="url(#clip21)" clip-rule="nonzero">
<path style="fill:none;stroke-width:1.939961;stroke-linecap:butt;stroke-linejoin:round;stroke:rgb(92.156863%,92.156863%,92.156863%);stroke-opacity:1;stroke-miterlimit:10;" d="M 421.910156 222.117188 L 700.074219 222.117188 "/>
</g>
<g clip-path="url(#clip22)" clip-rule="nonzero">
<path style="fill:none;stroke-width:1.939961;stroke-linecap:butt;stroke-linejoin:round;stroke:rgb(92.156863%,92.156863%,92.156863%);stroke-opacity:1;stroke-miterlimit:10;" d="M 421.910156 168.710938 L 700.074219 168.710938 "/>
</g>
<g clip-path="url(#clip23)" clip-rule="nonzero">
<path style="fill:none;stroke-width:1.939961;stroke-linecap:butt;stroke-linejoin:round;stroke:rgb(92.156863%,92.156863%,92.156863%);stroke-opacity:1;stroke-miterlimit:10;" d="M 421.910156 115.304688 L 700.074219 115.304688 "/>
</g>
<g clip-path="url(#clip24)" clip-rule="nonzero">
<path style="fill:none;stroke-width:1.939961;stroke-linecap:butt;stroke-linejoin:round;stroke:rgb(92.156863%,92.156863%,92.156863%);stroke-opacity:1;stroke-miterlimit:10;" d="M 421.910156 61.898438 L 700.074219 61.898438 "/>
</g>
<g clip-path="url(#clip25)" clip-rule="nonzero">
<path style="fill:none;stroke-width:1.939961;stroke-linecap:butt;stroke-linejoin:round;stroke:rgb(92.156863%,92.156863%,92.156863%);stroke-opacity:1;stroke-miterlimit:10;" d="M 461.648438 230.128906 L 461.648438 53.886719 "/>
</g>
<g clip-path="url(#clip26)" clip-rule="nonzero">
<path style="fill:none;stroke-width:1.939961;stroke-linecap:butt;stroke-linejoin:round;stroke:rgb(92.156863%,92.156863%,92.156863%);stroke-opacity:1;stroke-miterlimit:10;" d="M 527.878906 230.128906 L 527.878906 53.886719 "/>
</g>
<g clip-path="url(#clip27)" clip-rule="nonzero">
<path style="fill:none;stroke-width:1.939961;stroke-linecap:butt;stroke-linejoin:round;stroke:rgb(92.156863%,92.156863%,92.156863%);stroke-opacity:1;stroke-miterlimit:10;" d="M 594.105469 230.128906 L 594.105469 53.886719 "/>
</g>
<g clip-path="url(#clip28)" clip-rule="nonzero">
<path style="fill:none;stroke-width:1.939961;stroke-linecap:butt;stroke-linejoin:round;stroke:rgb(92.156863%,92.156863%,92.156863%);stroke-opacity:1;stroke-miterlimit:10;" d="M 660.335938 230.128906 L 660.335938 53.886719 "/>
</g>
<path style=" stroke:none;fill-rule:nonzero;fill:rgb(34.901961%,34.901961%,34.901961%);fill-opacity:1;" d="M 431.84375 222.117188 L 491.449219 222.117188 L 491.449219 88.601562 L 431.84375 88.601562 Z M 431.84375 222.117188 "/>
<path style=" stroke:none;fill-rule:nonzero;fill:rgb(34.901961%,34.901961%,34.901961%);fill-opacity:1;" d="M 498.074219 222.117188 L 557.679688 222.117188 L 557.679688 61.898438 L 498.074219 61.898438 Z M 498.074219 222.117188 "/>
<path style=" stroke:none;fill-rule:nonzero;fill:rgb(34.901961%,34.901961%,34.901961%);fill-opacity:1;" d="M 564.304688 222.117188 L 623.910156 222.117188 L 623.910156 93.941406 L 564.304688 93.941406 Z M 564.304688 222.117188 "/>
<path style=" stroke:none;fill-rule:nonzero;fill:rgb(34.901961%,34.901961%,34.901961%);fill-opacity:1;" d="M 630.535156 222.117188 L 690.140625 222.117188 L 690.140625 109.964844 L 630.535156 109.964844 Z M 630.535156 222.117188 "/>
<g style="fill:rgb(30.196078%,30.196078%,30.196078%);fill-opacity:1;">
  <use xlink:href="#glyph0-1" x="403.945312" y="227.78125"/>
</g>
<g style="fill:rgb(30.196078%,30.196078%,30.196078%);fill-opacity:1;">
  <use xlink:href="#glyph0-2" x="394.945312" y="174.375"/>
  <use xlink:href="#glyph0-1" x="403.945312" y="174.375"/>
</g>
<g style="fill:rgb(30.196078%,30.196078%,30.196078%);fill-opacity:1;">
  <use xlink:href="#glyph0-3" x="394.945312" y="120.96875"/>
  <use xlink:href="#glyph0-1" x="403.945312" y="120.96875"/>
</g>
<g style="fill:rgb(30.196078%,30.196078%,30.196078%);fill-opacity:1;">
  <use xlink:href="#glyph0-4" x="394.945312" y="67.5625"/>
  <use xlink:href="#glyph0-1" x="403.945312" y="67.5625"/>
</g>
<g style="fill:rgb(30.196078%,30.196078%,30.196078%);fill-opacity:1;">
  <use xlink:href="#glyph0-6" x="450.648438" y="250.757812"/>
  <use xlink:href="#glyph0-7" x="461.648438" y="250.757812"/>
</g>
<g style="fill:rgb(30.196078%,30.196078%,30.196078%);fill-opacity:1;">
  <use xlink:href="#glyph0-6" x="510.878906" y="250.757812"/>
  <use xlink:href="#glyph0-8" x="522.878906" y="250.757812"/>
  <use xlink:href="#glyph0-7" x="533.878906" y="250.757812"/>
</g>
<g style="fill:rgb(30.196078%,30.196078%,30.196078%);fill-opacity:1;">
  <use xlink:href="#glyph0-6" x="575.605469" y="250.757812"/>
  <use xlink:href="#glyph0-6" x="587.605469" y="250.757812"/>
  <use xlink:href="#glyph0-9" x="599.605469" y="250.757812"/>
</g>
<g style="fill:rgb(30.196078%,30.196078%,30.196078%);fill-opacity:1;">
  <use xlink:href="#glyph0-6" x="642.335938" y="250.757812"/>
  <use xlink:href="#glyph0-10" x="654.335938" y="250.757812"/>
  <use xlink:href="#glyph0-8" x="666.335938" y="250.757812"/>
</g>
<g style="fill:rgb(0%,0%,0%);fill-opacity:1;">
  <use xlink:href="#glyph4-1" x="555.992188" y="334.654297"/>
</g>
<g style="fill:rgb(0%,0%,0%);fill-opacity:1;">
  <use xlink:href="#glyph2-1" x="384.541016" y="166.507812"/>
  <use xlink:href="#glyph2-2" x="384.541016" y="156.507812"/>
  <use xlink:href="#glyph2-3" x="384.541016" y="145.507812"/>
  <use xlink:href="#glyph2-4" x="384.541016" y="134.507812"/>
  <use xlink:href="#glyph2-5" x="384.541016" y="123.507812"/>
</g>
<g style="fill:rgb(0%,0%,0%);fill-opacity:1;">
  <use xlink:href="#glyph3-7" x="421.910156" y="37.421875"/>
  <use xlink:href="#glyph3-4" x="438.910156" y="37.421875"/>
  <use xlink:href="#glyph3-8" x="443.910156" y="37.421875"/>
  <use xlink:href="#glyph3-3" x="456.910156" y="37.421875"/>
  <use xlink:href="#glyph3-6" x="469.910156" y="37.421875"/>
  <use xlink:href="#glyph3-5" x="482.910156" y="37.421875"/>
  <use xlink:href="#glyph3-9" x="495.910156" y="37.421875"/>
  <use xlink:href="#glyph3-4" x="507.910156" y="37.421875"/>
</g>
</g>
</svg>
