<?xml version="1.0" encoding="UTF-8"?>
<svg xmlns="http://www.w3.org/2000/svg" xmlns:xlink="http://www.w3.org/1999/xlink" width="1080" height="720" viewBox="0 0 1080 720">
<defs>
<g>
<g id="glyph-0-0">
<path d="M 0.515625 0 L 0.515625 -11.484375 L 9.625 -11.484375 L 9.625 0 Z M 8.1875 -1.4375 L 8.1875 -10.046875 L 1.953125 -10.046875 L 1.953125 -1.4375 Z M 8.1875 -1.4375 "/>
</g>
<g id="glyph-0-1">
<path d="M 2.125 -2.703125 C 2.164062 -1.929688 2.46875 -1.394531 3.03125 -1.09375 C 3.3125 -0.9375 3.632812 -0.859375 4 -0.859375 C 4.664062 -0.859375 5.234375 -1.140625 5.703125 -1.703125 C 6.179688 -2.265625 6.519531 -3.398438 6.71875 -5.109375 C 6.40625 -4.617188 6.019531 -4.269531 5.5625 -4.0625 C 5.101562 -3.863281 4.609375 -3.765625 4.078125 -3.765625 C 2.992188 -3.765625 2.140625 -4.097656 1.515625 -4.765625 C 0.890625 -5.441406 0.578125 -6.3125 0.578125 -7.375 C 0.578125 -8.382812 0.882812 -9.273438 1.5 -10.046875 C 2.125 -10.816406 3.039062 -11.203125 4.25 -11.203125 C 5.875 -11.203125 7 -10.46875 7.625 -9 C 7.96875 -8.195312 8.140625 -7.1875 8.140625 -5.96875 C 8.140625 -4.601562 7.929688 -3.390625 7.515625 -2.328125 C 6.835938 -0.566406 5.679688 0.3125 4.046875 0.3125 C 2.953125 0.3125 2.117188 0.0234375 1.546875 -0.546875 C 0.984375 -1.117188 0.703125 -1.835938 0.703125 -2.703125 Z M 4.265625 -5 C 4.816406 -5 5.320312 -5.179688 5.78125 -5.546875 C 6.25 -5.921875 6.484375 -6.566406 6.484375 -7.484375 C 6.484375 -8.304688 6.273438 -8.914062 5.859375 -9.3125 C 5.441406 -9.71875 4.914062 -9.921875 4.28125 -9.921875 C 3.59375 -9.921875 3.046875 -9.691406 2.640625 -9.234375 C 2.234375 -8.773438 2.03125 -8.160156 2.03125 -7.390625 C 2.03125 -6.660156 2.207031 -6.078125 2.5625 -5.640625 C 2.914062 -5.210938 3.484375 -5 4.265625 -5 Z M 4.265625 -5 "/>
</g>
<g id="glyph-0-2">
<path d="M 4.328125 -11.1875 C 5.773438 -11.1875 6.820312 -10.59375 7.46875 -9.40625 C 7.96875 -8.476562 8.21875 -7.210938 8.21875 -5.609375 C 8.21875 -4.085938 7.992188 -2.832031 7.546875 -1.84375 C 6.890625 -0.40625 5.816406 0.3125 4.328125 0.3125 C 2.984375 0.3125 1.984375 -0.273438 1.328125 -1.453125 C 0.773438 -2.421875 0.5 -3.726562 0.5 -5.375 C 0.5 -6.644531 0.664062 -7.734375 1 -8.640625 C 1.613281 -10.335938 2.722656 -11.1875 4.328125 -11.1875 Z M 4.3125 -0.984375 C 5.039062 -0.984375 5.617188 -1.304688 6.046875 -1.953125 C 6.484375 -2.597656 6.703125 -3.800781 6.703125 -5.5625 C 6.703125 -6.832031 6.546875 -7.875 6.234375 -8.6875 C 5.921875 -9.507812 5.316406 -9.921875 4.421875 -9.921875 C 3.585938 -9.921875 2.976562 -9.53125 2.59375 -8.75 C 2.21875 -7.976562 2.03125 -6.832031 2.03125 -5.3125 C 2.03125 -4.175781 2.148438 -3.257812 2.390625 -2.5625 C 2.765625 -1.507812 3.40625 -0.984375 4.3125 -0.984375 Z M 4.3125 -0.984375 "/>
</g>
<g id="glyph-0-3">
<path d="M 1.53125 -7.921875 L 1.53125 -9 C 2.550781 -9.101562 3.257812 -9.269531 3.65625 -9.5 C 4.0625 -9.726562 4.363281 -10.273438 4.5625 -11.140625 L 5.671875 -11.140625 L 5.671875 0 L 4.171875 0 L 4.171875 -7.921875 Z M 1.53125 -7.921875 "/>
</g>
<g id="glyph-0-4">
<path d="M 0.671875 -5.1875 L 4.59375 -5.1875 L 4.59375 -3.734375 L 0.671875 -3.734375 Z M 0.671875 -5.1875 "/>
</g>
<g id="glyph-0-5">
<path d="M 0.5 0 C 0.550781 -0.96875 0.75 -1.804688 1.09375 -2.515625 C 1.445312 -3.234375 2.125 -3.882812 3.125 -4.46875 L 4.625 -5.328125 C 5.300781 -5.722656 5.773438 -6.054688 6.046875 -6.328125 C 6.472656 -6.765625 6.6875 -7.257812 6.6875 -7.8125 C 6.6875 -8.46875 6.488281 -8.984375 6.09375 -9.359375 C 5.707031 -9.742188 5.1875 -9.9375 4.53125 -9.9375 C 3.570312 -9.9375 2.90625 -9.570312 2.53125 -8.84375 C 2.332031 -8.457031 2.222656 -7.914062 2.203125 -7.21875 L 0.78125 -7.21875 C 0.789062 -8.195312 0.96875 -8.992188 1.3125 -9.609375 C 1.925781 -10.691406 3.003906 -11.234375 4.546875 -11.234375 C 5.828125 -11.234375 6.757812 -10.882812 7.34375 -10.1875 C 7.9375 -9.5 8.234375 -8.726562 8.234375 -7.875 C 8.234375 -6.976562 7.921875 -6.210938 7.296875 -5.578125 C 6.929688 -5.210938 6.273438 -4.765625 5.328125 -4.234375 L 4.265625 -3.640625 C 3.753906 -3.359375 3.351562 -3.09375 3.0625 -2.84375 C 2.539062 -2.382812 2.210938 -1.878906 2.078125 -1.328125 L 8.1875 -1.328125 L 8.1875 0 Z M 0.5 0 "/>
</g>
<g id="glyph-0-6">
<path d="M 4.15625 0.3125 C 2.832031 0.3125 1.875 -0.0507812 1.28125 -0.78125 C 0.6875 -1.507812 0.390625 -2.394531 0.390625 -3.4375 L 1.859375 -3.4375 C 1.921875 -2.71875 2.054688 -2.191406 2.265625 -1.859375 C 2.628906 -1.273438 3.285156 -0.984375 4.234375 -0.984375 C 4.972656 -0.984375 5.566406 -1.179688 6.015625 -1.578125 C 6.460938 -1.972656 6.6875 -2.484375 6.6875 -3.109375 C 6.6875 -3.878906 6.453125 -4.414062 5.984375 -4.71875 C 5.515625 -5.03125 4.859375 -5.1875 4.015625 -5.1875 C 3.921875 -5.1875 3.828125 -5.179688 3.734375 -5.171875 C 3.640625 -5.171875 3.539062 -5.171875 3.4375 -5.171875 L 3.4375 -6.40625 C 3.582031 -6.394531 3.703125 -6.382812 3.796875 -6.375 C 3.898438 -6.375 4.007812 -6.375 4.125 -6.375 C 4.65625 -6.375 5.085938 -6.457031 5.421875 -6.625 C 6.015625 -6.914062 6.3125 -7.4375 6.3125 -8.1875 C 6.3125 -8.738281 6.113281 -9.164062 5.71875 -9.46875 C 5.320312 -9.769531 4.863281 -9.921875 4.34375 -9.921875 C 3.40625 -9.921875 2.753906 -9.609375 2.390625 -8.984375 C 2.191406 -8.640625 2.082031 -8.148438 2.0625 -7.515625 L 0.671875 -7.515625 C 0.671875 -8.347656 0.835938 -9.054688 1.171875 -9.640625 C 1.742188 -10.679688 2.75 -11.203125 4.1875 -11.203125 C 5.332031 -11.203125 6.21875 -10.945312 6.84375 -10.4375 C 7.46875 -9.9375 7.78125 -9.203125 7.78125 -8.234375 C 7.78125 -7.546875 7.59375 -6.988281 7.21875 -6.5625 C 6.988281 -6.300781 6.691406 -6.09375 6.328125 -5.9375 C 6.921875 -5.78125 7.378906 -5.46875 7.703125 -5 C 8.035156 -4.539062 8.203125 -3.976562 8.203125 -3.3125 C 8.203125 -2.25 7.847656 -1.378906 7.140625 -0.703125 C 6.441406 -0.0234375 5.445312 0.3125 4.15625 0.3125 Z M 4.15625 0.3125 "/>
</g>
<g id="glyph-1-0">
<path d="M 0.640625 0 L 0.640625 -14.34375 L 12.03125 -14.34375 L 12.03125 0 Z M 10.234375 -1.796875 L 10.234375 -12.546875 L 2.4375 -12.546875 L 2.4375 -1.796875 Z M 10.234375 -1.796875 "/>
</g>
<g id="glyph-1-1">
<path d="M 0.296875 -10.453125 L 2.5625 -10.453125 L 4.96875 -6.78125 L 7.40625 -10.453125 L 9.546875 -10.40625 L 6.015625 -5.359375 L 9.703125 0 L 7.453125 0 L 4.859375 -3.921875 L 2.328125 0 L 0.109375 0 L 3.796875 -5.359375 Z M 0.296875 -10.453125 "/>
</g>
<g id="glyph-2-0">
<path d="M 1 3.53125 L 1 -14.109375 L 11 -14.109375 L 11 3.53125 Z M 2.125 2.421875 L 9.890625 2.421875 L 9.890625 -12.984375 L 2.125 -12.984375 Z M 2.125 2.421875 "/>
</g>
<g id="glyph-2-1">
<path d="M 2.125 -7.09375 L 14.640625 -7.09375 L 14.640625 -5.4375 L 2.125 -5.4375 Z M 2.125 -7.09375 "/>
</g>
<g id="glyph-3-0">
<path d="M 0.921875 0 L 0.921875 -20.40625 L 17.109375 -20.40625 L 17.109375 0 Z M 14.5625 -2.5625 L 14.5625 -17.859375 L 3.46875 -17.859375 L 3.46875 -2.5625 Z M 14.5625 -2.5625 "/>
</g>
<g id="glyph-3-1">
<path d="M 3.96875 -6.578125 C 4.039062 -5.421875 4.316406 -4.484375 4.796875 -3.765625 C 5.710938 -2.410156 7.328125 -1.734375 9.640625 -1.734375 C 10.679688 -1.734375 11.625 -1.882812 12.46875 -2.1875 C 14.125 -2.757812 14.953125 -3.785156 14.953125 -5.265625 C 14.953125 -6.378906 14.601562 -7.171875 13.90625 -7.640625 C 13.195312 -8.097656 12.09375 -8.5 10.59375 -8.84375 L 7.828125 -9.46875 C 6.023438 -9.882812 4.75 -10.335938 4 -10.828125 C 2.707031 -11.671875 2.0625 -12.941406 2.0625 -14.640625 C 2.0625 -16.472656 2.691406 -17.976562 3.953125 -19.15625 C 5.222656 -20.332031 7.019531 -20.921875 9.34375 -20.921875 C 11.488281 -20.921875 13.304688 -20.40625 14.796875 -19.375 C 16.296875 -18.34375 17.046875 -16.691406 17.046875 -14.421875 L 14.453125 -14.421875 C 14.304688 -15.515625 14.007812 -16.351562 13.5625 -16.9375 C 12.71875 -18 11.285156 -18.53125 9.265625 -18.53125 C 7.640625 -18.53125 6.46875 -18.1875 5.75 -17.5 C 5.039062 -16.820312 4.6875 -16.023438 4.6875 -15.109375 C 4.6875 -14.109375 5.101562 -13.378906 5.9375 -12.921875 C 6.476562 -12.617188 7.710938 -12.25 9.640625 -11.8125 L 12.5 -11.15625 C 13.882812 -10.84375 14.953125 -10.410156 15.703125 -9.859375 C 16.992188 -8.910156 17.640625 -7.523438 17.640625 -5.703125 C 17.640625 -3.441406 16.816406 -1.828125 15.171875 -0.859375 C 13.535156 0.105469 11.628906 0.59375 9.453125 0.59375 C 6.910156 0.59375 4.921875 -0.0507812 3.484375 -1.34375 C 2.046875 -2.632812 1.34375 -4.378906 1.375 -6.578125 Z M 9.5625 -20.96875 Z M 9.5625 -20.96875 "/>
</g>
<g id="glyph-4-0">
<path d="M 0.640625 0 L 0.640625 -14.296875 L 11.984375 -14.296875 L 11.984375 0 Z M 10.1875 -1.796875 L 10.1875 -12.5 L 2.4375 -12.5 L 2.4375 -1.796875 Z M 10.1875 -1.796875 "/>
</g>
<g id="glyph-4-1">
<path d="M 0.296875 -10.421875 L 2.5625 -10.421875 L 4.953125 -6.75 L 7.375 -10.421875 L 9.5 -10.375 L 5.984375 -5.34375 L 9.65625 0 L 7.421875 0 L 4.828125 -3.90625 L 2.328125 0 L 0.109375 0 L 3.78125 -5.34375 Z M 0.296875 -10.421875 "/>
</g>
<g id="glyph-4-2">
<path d="M 0.625 0 C 0.6875 -1.195312 0.929688 -2.238281 1.359375 -3.125 C 1.796875 -4.019531 2.640625 -4.828125 3.890625 -5.546875 L 5.765625 -6.640625 C 6.597656 -7.117188 7.179688 -7.53125 7.515625 -7.875 C 8.046875 -8.414062 8.3125 -9.035156 8.3125 -9.734375 C 8.3125 -10.535156 8.066406 -11.175781 7.578125 -11.65625 C 7.097656 -12.132812 6.453125 -12.375 5.640625 -12.375 C 4.441406 -12.375 3.613281 -11.921875 3.15625 -11.015625 C 2.90625 -10.523438 2.769531 -9.847656 2.75 -8.984375 L 0.96875 -8.984375 C 0.988281 -10.203125 1.210938 -11.191406 1.640625 -11.953125 C 2.390625 -13.304688 3.726562 -13.984375 5.65625 -13.984375 C 7.25 -13.984375 8.410156 -13.550781 9.140625 -12.6875 C 9.878906 -11.820312 10.25 -10.863281 10.25 -9.8125 C 10.25 -8.6875 9.859375 -7.734375 9.078125 -6.953125 C 8.617188 -6.484375 7.804688 -5.921875 6.640625 -5.265625 L 5.296875 -4.53125 C 4.660156 -4.175781 4.160156 -3.84375 3.796875 -3.53125 C 3.148438 -2.96875 2.742188 -2.34375 2.578125 -1.65625 L 10.1875 -1.65625 L 10.1875 0 Z M 0.625 0 "/>
</g>
<g id="glyph-5-0">
<path d="M 1.25 4.421875 L 1.25 -17.625 L 13.75 -17.625 L 13.75 4.421875 Z M 2.65625 3.03125 L 12.359375 3.03125 L 12.359375 -16.21875 L 2.65625 -16.21875 Z M 2.65625 3.03125 "/>
</g>
<g id="glyph-5-1">
<path d="M 7.75 -18.96875 C 6.65625 -17.09375 5.84375 -15.238281 5.3125 -13.40625 C 4.789062 -11.582031 4.53125 -9.726562 4.53125 -7.84375 C 4.53125 -5.96875 4.796875 -4.109375 5.328125 -2.265625 C 5.859375 -0.421875 6.664062 1.429688 7.75 3.296875 L 5.796875 3.296875 C 4.578125 1.378906 3.664062 -0.5 3.0625 -2.34375 C 2.457031 -4.1875 2.15625 -6.019531 2.15625 -7.84375 C 2.15625 -9.664062 2.453125 -11.492188 3.046875 -13.328125 C 3.648438 -15.171875 4.566406 -17.050781 5.796875 -18.96875 Z M 7.75 -18.96875 "/>
</g>
<g id="glyph-5-2">
<path d="M 2 -18.96875 L 3.953125 -18.96875 C 5.171875 -17.050781 6.082031 -15.171875 6.6875 -13.328125 C 7.300781 -11.492188 7.609375 -9.664062 7.609375 -7.84375 C 7.609375 -6.019531 7.300781 -4.1875 6.6875 -2.34375 C 6.082031 -0.5 5.171875 1.378906 3.953125 3.296875 L 2 3.296875 C 3.082031 1.429688 3.890625 -0.421875 4.421875 -2.265625 C 4.953125 -4.109375 5.21875 -5.96875 5.21875 -7.84375 C 5.21875 -9.726562 4.953125 -11.582031 4.421875 -13.40625 C 3.890625 -15.238281 3.082031 -17.09375 2 -18.96875 Z M 2 -18.96875 "/>
</g>
<g id="glyph-6-0">
<path d="M 0.453125 0 L 0.453125 -10.046875 L 8.421875 -10.046875 L 8.421875 0 Z M 7.171875 -1.265625 L 7.171875 -8.78125 L 1.703125 -8.78125 L 1.703125 -1.265625 Z M 7.171875 -1.265625 "/>
</g>
<g id="glyph-6-1">
<path d="M 0.4375 0 C 0.476562 -0.84375 0.648438 -1.578125 0.953125 -2.203125 C 1.265625 -2.828125 1.859375 -3.394531 2.734375 -3.90625 L 4.046875 -4.65625 C 4.628906 -5 5.039062 -5.289062 5.28125 -5.53125 C 5.65625 -5.914062 5.84375 -6.351562 5.84375 -6.84375 C 5.84375 -7.40625 5.671875 -7.851562 5.328125 -8.1875 C 4.984375 -8.53125 4.53125 -8.703125 3.96875 -8.703125 C 3.125 -8.703125 2.539062 -8.378906 2.21875 -7.734375 C 2.039062 -7.390625 1.941406 -6.914062 1.921875 -6.3125 L 0.671875 -6.3125 C 0.691406 -7.164062 0.851562 -7.863281 1.15625 -8.40625 C 1.6875 -9.351562 2.625 -9.828125 3.96875 -9.828125 C 5.09375 -9.828125 5.910156 -9.519531 6.421875 -8.90625 C 6.941406 -8.300781 7.203125 -7.628906 7.203125 -6.890625 C 7.203125 -6.109375 6.925781 -5.4375 6.375 -4.875 C 6.0625 -4.550781 5.488281 -4.160156 4.65625 -3.703125 L 3.71875 -3.1875 C 3.28125 -2.9375 2.929688 -2.703125 2.671875 -2.484375 C 2.210938 -2.085938 1.925781 -1.644531 1.8125 -1.15625 L 7.15625 -1.15625 L 7.15625 0 Z M 0.4375 0 "/>
</g>
</g>
<clipPath id="clip-0">
<path clip-rule="nonzero" d="M 24.90625 488 L 356.679688 488 L 356.679688 490 L 24.90625 490 Z M 24.90625 488 "/>
</clipPath>
<clipPath id="clip-1">
<path clip-rule="nonzero" d="M 24.90625 312 L 356.679688 312 L 356.679688 314 L 24.90625 314 Z M 24.90625 312 "/>
</clipPath>
<clipPath id="clip-2">
<path clip-rule="nonzero" d="M 24.90625 135 L 356.679688 135 L 356.679688 137 L 24.90625 137 Z M 24.90625 135 "/>
</clipPath>
<clipPath id="clip-3">
<path clip-rule="nonzero" d="M 37 19.925781 L 39 19.925781 L 39 640.675781 L 37 640.675781 Z M 37 19.925781 "/>
</clipPath>
<clipPath id="clip-4">
<path clip-rule="nonzero" d="M 131 19.925781 L 132 19.925781 L 132 640.675781 L 131 640.675781 Z M 131 19.925781 "/>
</clipPath>
<clipPath id="clip-5">
<path clip-rule="nonzero" d="M 224 19.925781 L 226 19.925781 L 226 640.675781 L 224 640.675781 Z M 224 19.925781 "/>
</clipPath>
<clipPath id="clip-6">
<path clip-rule="nonzero" d="M 317 19.925781 L 319 19.925781 L 319 640.675781 L 317 640.675781 Z M 317 19.925781 "/>
</clipPath>
<clipPath id="clip-7">
<path clip-rule="nonzero" d="M 24.90625 576 L 356.679688 576 L 356.679688 579 L 24.90625 579 Z M 24.90625 576 "/>
</clipPath>
<clipPath id="clip-8">
<path clip-rule="nonzero" d="M 24.90625 399 L 356.679688 399 L 356.679688 402 L 24.90625 402 Z M 24.90625 399 "/>
</clipPath>
<clipPath id="clip-9">
<path clip-rule="nonzero" d="M 24.90625 223 L 356.679688 223 L 356.679688 226 L 24.90625 226 Z M 24.90625 223 "/>
</clipPath>
<clipPath id="clip-10">
<path clip-rule="nonzero" d="M 24.90625 47 L 356.679688 47 L 356.679688 50 L 24.90625 50 Z M 24.90625 47 "/>
</clipPath>
<clipPath id="clip-11">
<path clip-rule="nonzero" d="M 83 19.925781 L 86 19.925781 L 86 640.675781 L 83 640.675781 Z M 83 19.925781 "/>
</clipPath>
<clipPath id="clip-12">
<path clip-rule="nonzero" d="M 177 19.925781 L 180 19.925781 L 180 640.675781 L 177 640.675781 Z M 177 19.925781 "/>
</clipPath>
<clipPath id="clip-13">
<path clip-rule="nonzero" d="M 270 19.925781 L 273 19.925781 L 273 640.675781 L 270 640.675781 Z M 270 19.925781 "/>
</clipPath>
<clipPath id="clip-14">
<path clip-rule="nonzero" d="M 177 19.925781 L 179 19.925781 L 179 640.675781 L 177 640.675781 Z M 177 19.925781 "/>
</clipPath>
<clipPath id="clip-15">
<path clip-rule="nonzero" d="M 376.605469 488 L 708.378906 488 L 708.378906 490 L 376.605469 490 Z M 376.605469 488 "/>
</clipPath>
<clipPath id="clip-16">
<path clip-rule="nonzero" d="M 376.605469 312 L 708.378906 312 L 708.378906 314 L 376.605469 314 Z M 376.605469 312 "/>
</clipPath>
<clipPath id="clip-17">
<path clip-rule="nonzero" d="M 376.605469 135 L 708.378906 135 L 708.378906 137 L 376.605469 137 Z M 376.605469 135 "/>
</clipPath>
<clipPath id="clip-18">
<path clip-rule="nonzero" d="M 414 19.925781 L 416 19.925781 L 416 640.675781 L 414 640.675781 Z M 414 19.925781 "/>
</clipPath>
<clipPath id="clip-19">
<path clip-rule="nonzero" d="M 507 19.925781 L 509 19.925781 L 509 640.675781 L 507 640.675781 Z M 507 19.925781 "/>
</clipPath>
<clipPath id="clip-20">
<path clip-rule="nonzero" d="M 601 19.925781 L 603 19.925781 L 603 640.675781 L 601 640.675781 Z M 601 19.925781 "/>
</clipPath>
<clipPath id="clip-21">
<path clip-rule="nonzero" d="M 694 19.925781 L 696 19.925781 L 696 640.675781 L 694 640.675781 Z M 694 19.925781 "/>
</clipPath>
<clipPath id="clip-22">
<path clip-rule="nonzero" d="M 376.605469 576 L 708.378906 576 L 708.378906 579 L 376.605469 579 Z M 376.605469 576 "/>
</clipPath>
<clipPath id="clip-23">
<path clip-rule="nonzero" d="M 376.605469 399 L 708.378906 399 L 708.378906 402 L 376.605469 402 Z M 376.605469 399 "/>
</clipPath>
<clipPath id="clip-24">
<path clip-rule="nonzero" d="M 376.605469 223 L 708.378906 223 L 708.378906 226 L 376.605469 226 Z M 376.605469 223 "/>
</clipPath>
<clipPath id="clip-25">
<path clip-rule="nonzero" d="M 376.605469 47 L 708.378906 47 L 708.378906 50 L 376.605469 50 Z M 376.605469 47 "/>
</clipPath>
<clipPath id="clip-26">
<path clip-rule="nonzero" d="M 460 19.925781 L 463 19.925781 L 463 640.675781 L 460 640.675781 Z M 460 19.925781 "/>
</clipPath>
<clipPath id="clip-27">
<path clip-rule="nonzero" d="M 554 19.925781 L 557 19.925781 L 557 640.675781 L 554 640.675781 Z M 554 19.925781 "/>
</clipPath>
<clipPath id="clip-28">
<path clip-rule="nonzero" d="M 647 19.925781 L 650 19.925781 L 650 640.675781 L 647 640.675781 Z M 647 19.925781 "/>
</clipPath>
<clipPath id="clip-29">
<path clip-rule="nonzero" d="M 554 19.925781 L 556 19.925781 L 556 640.675781 L 554 640.675781 Z M 554 19.925781 "/>
</clipPath>
<clipPath id="clip-30">
<path clip-rule="nonzero" d="M 728.300781 488 L 1060.074219 488 L 1060.074219 490 L 728.300781 490 Z M 728.300781 488 "/>
</clipPath>
<clipPath id="clip-31">
<path clip-rule="nonzero" d="M 728.300781 312 L 1060.074219 312 L 1060.074219 314 L 728.300781 314 Z M 728.300781 312 "/>
</clipPath>
<clipPath id="clip-32">
<path clip-rule="nonzero" d="M 728.300781 135 L 1060.074219 135 L 1060.074219 137 L 728.300781 137 Z M 728.300781 135 "/>
</clipPath>
<clipPath id="clip-33">
<path clip-rule="nonzero" d="M 792 19.925781 L 794 19.925781 L 794 640.675781 L 792 640.675781 Z M 792 19.925781 "/>
</clipPath>
<clipPath id="clip-34">
<path clip-rule="nonzero" d="M 890 19.925781 L 892 19.925781 L 892 640.675781 L 890 640.675781 Z M 890 19.925781 "/>
</clipPath>
<clipPath id="clip-35">
<path clip-rule="nonzero" d="M 989 19.925781 L 991 19.925781 L 991 640.675781 L 989 640.675781 Z M 989 19.925781 "/>
</clipPath>
<clipPath id="clip-36">
<path clip-rule="nonzero" d="M 728.300781 576 L 1060.074219 576 L 1060.074219 579 L 728.300781 579 Z M 728.300781 576 "/>
</clipPath>
<clipPath id="clip-37">
<path clip-rule="nonzero" d="M 728.300781 399 L 1060.074219 399 L 1060.074219 402 L 728.300781 402 Z M 728.300781 399 "/>
</clipPath>
<clipPath id="clip-38">
<path clip-rule="nonzero" d="M 728.300781 223 L 1060.074219 223 L 1060.074219 226 L 728.300781 226 Z M 728.300781 223 "/>
</clipPath>
<clipPath id="clip-39">
<path clip-rule="nonzero" d="M 728.300781 47 L 1060.074219 47 L 1060.074219 50 L 728.300781 50 Z M 728.300781 47 "/>
</clipPath>
<clipPath id="clip-40">
<path clip-rule="nonzero" d="M 742 19.925781 L 745 19.925781 L 745 640.675781 L 742 640.675781 Z M 742 19.925781 "/>
</clipPath>
<clipPath id="clip-41">
<path clip-rule="nonzero" d="M 841 19.925781 L 843 19.925781 L 843 640.675781 L 841 640.675781 Z M 841 19.925781 "/>
</clipPath>
<clipPath id="clip-42">
<path clip-rule="nonzero" d="M 939 19.925781 L 942 19.925781 L 942 640.675781 L 939 640.675781 Z M 939 19.925781 "/>
</clipPath>
<clipPath id="clip-43">
<path clip-rule="nonzero" d="M 1038 19.925781 L 1041 19.925781 L 1041 640.675781 L 1038 640.675781 Z M 1038 19.925781 "/>
</clipPath>
</defs>
<rect x="-108" y="-72" width="1296" height="864" fill="rgb(100%, 100%, 100%)" fill-opacity="1"/>
<g clip-path="url(#clip-0)">
<path fill="none" stroke-width="0.96998" stroke-linecap="butt" stroke-linejoin="round" stroke="rgb(92.156863%, 92.156863%, 92.156863%)" stroke-opacity="1" stroke-miterlimit="10" d="M 24.90625 489.015625 L 356.679688 489.015625 "/>
</g>
<g clip-path="url(#clip-1)">
<path fill="none" stroke-width="0.96998" stroke-linecap="butt" stroke-linejoin="round" stroke="rgb(92.156863%, 92.156863%, 92.156863%)" stroke-opacity="1" stroke-miterlimit="10" d="M 24.90625 312.667969 L 356.679688 312.667969 "/>
</g>
<g clip-path="url(#clip-2)">
<path fill="none" stroke-width="0.96998" stroke-linecap="butt" stroke-linejoin="round" stroke="rgb(92.156863%, 92.156863%, 92.156863%)" stroke-opacity="1" stroke-miterlimit="10" d="M 24.90625 136.316406 L 356.679688 136.316406 "/>
</g>
<g clip-path="url(#clip-3)">
<path fill="none" stroke-width="0.96998" stroke-linecap="butt" stroke-linejoin="round" stroke="rgb(92.156863%, 92.156863%, 92.156863%)" stroke-opacity="1" stroke-miterlimit="10" d="M 38.074219 640.675781 L 38.074219 19.925781 "/>
</g>
<g clip-path="url(#clip-4)">
<path fill="none" stroke-width="0.96998" stroke-linecap="butt" stroke-linejoin="round" stroke="rgb(92.156863%, 92.156863%, 92.156863%)" stroke-opacity="1" stroke-miterlimit="10" d="M 131.507812 640.675781 L 131.507812 19.925781 "/>
</g>
<g clip-path="url(#clip-5)">
<path fill="none" stroke-width="0.96998" stroke-linecap="butt" stroke-linejoin="round" stroke="rgb(92.156863%, 92.156863%, 92.156863%)" stroke-opacity="1" stroke-miterlimit="10" d="M 224.941406 640.675781 L 224.941406 19.925781 "/>
</g>
<g clip-path="url(#clip-6)">
<path fill="none" stroke-width="0.96998" stroke-linecap="butt" stroke-linejoin="round" stroke="rgb(92.156863%, 92.156863%, 92.156863%)" stroke-opacity="1" stroke-miterlimit="10" d="M 318.375 640.675781 L 318.375 19.925781 "/>
</g>
<g clip-path="url(#clip-7)">
<path fill="none" stroke-width="1.939961" stroke-linecap="butt" stroke-linejoin="round" stroke="rgb(92.156863%, 92.156863%, 92.156863%)" stroke-opacity="1" stroke-miterlimit="10" d="M 24.90625 577.191406 L 356.679688 577.191406 "/>
</g>
<g clip-path="url(#clip-8)">
<path fill="none" stroke-width="1.939961" stroke-linecap="butt" stroke-linejoin="round" stroke="rgb(92.156863%, 92.156863%, 92.156863%)" stroke-opacity="1" stroke-miterlimit="10" d="M 24.90625 400.839844 L 356.679688 400.839844 "/>
</g>
<g clip-path="url(#clip-9)">
<path fill="none" stroke-width="1.939961" stroke-linecap="butt" stroke-linejoin="round" stroke="rgb(92.156863%, 92.156863%, 92.156863%)" stroke-opacity="1" stroke-miterlimit="10" d="M 24.90625 224.492188 L 356.679688 224.492188 "/>
</g>
<g clip-path="url(#clip-10)">
<path fill="none" stroke-width="1.939961" stroke-linecap="butt" stroke-linejoin="round" stroke="rgb(92.156863%, 92.156863%, 92.156863%)" stroke-opacity="1" stroke-miterlimit="10" d="M 24.90625 48.140625 L 356.679688 48.140625 "/>
</g>
<g clip-path="url(#clip-11)">
<path fill="none" stroke-width="1.939961" stroke-linecap="butt" stroke-linejoin="round" stroke="rgb(92.156863%, 92.156863%, 92.156863%)" stroke-opacity="1" stroke-miterlimit="10" d="M 84.789062 640.675781 L 84.789062 19.925781 "/>
</g>
<g clip-path="url(#clip-12)">
<path fill="none" stroke-width="1.939961" stroke-linecap="butt" stroke-linejoin="round" stroke="rgb(92.156863%, 92.156863%, 92.156863%)" stroke-opacity="1" stroke-miterlimit="10" d="M 178.222656 640.675781 L 178.222656 19.925781 "/>
</g>
<g clip-path="url(#clip-13)">
<path fill="none" stroke-width="1.939961" stroke-linecap="butt" stroke-linejoin="round" stroke="rgb(92.156863%, 92.156863%, 92.156863%)" stroke-opacity="1" stroke-miterlimit="10" d="M 271.65625 640.675781 L 271.65625 19.925781 "/>
</g>
<g clip-path="url(#clip-14)">
<path fill="none" stroke-width="1.066978" stroke-linecap="butt" stroke-linejoin="round" stroke="rgb(0%, 0%, 0%)" stroke-opacity="1" stroke-miterlimit="10" d="M 178.222656 640.675781 L 178.222656 19.925781 "/>
</g>
<path fill="none" stroke-width="1.066978" stroke-linecap="butt" stroke-linejoin="round" stroke="rgb(11.764706%, 56.470588%, 100%)" stroke-opacity="1" stroke-miterlimit="10" d="M 178.222656 541.921875 L 236.804688 541.921875 "/>
<path fill="none" stroke-width="1.066978" stroke-linecap="butt" stroke-linejoin="round" stroke="rgb(11.764706%, 56.470588%, 100%)" stroke-opacity="1" stroke-miterlimit="10" d="M 178.222656 506.652344 L 198.238281 506.652344 "/>
<path fill="none" stroke-width="1.066978" stroke-linecap="butt" stroke-linejoin="round" stroke="rgb(11.764706%, 56.470588%, 100%)" stroke-opacity="1" stroke-miterlimit="10" d="M 178.222656 471.382812 L 188.082031 471.382812 "/>
<path fill="none" stroke-width="1.066978" stroke-linecap="butt" stroke-linejoin="round" stroke="rgb(11.764706%, 56.470588%, 100%)" stroke-opacity="1" stroke-miterlimit="10" d="M 178.222656 436.109375 L 144.265625 436.109375 "/>
<path fill="none" stroke-width="1.066978" stroke-linecap="butt" stroke-linejoin="round" stroke="rgb(11.764706%, 56.470588%, 100%)" stroke-opacity="1" stroke-miterlimit="10" d="M 178.222656 400.839844 L 315.1875 400.839844 "/>
<path fill="none" stroke-width="1.066978" stroke-linecap="butt" stroke-linejoin="round" stroke="rgb(11.764706%, 56.470588%, 100%)" stroke-opacity="1" stroke-miterlimit="10" d="M 178.222656 365.570312 L 197.726562 365.570312 "/>
<path fill="none" stroke-width="1.066978" stroke-linecap="butt" stroke-linejoin="round" stroke="rgb(11.764706%, 56.470588%, 100%)" stroke-opacity="1" stroke-miterlimit="10" d="M 178.222656 330.300781 L 184.703125 330.300781 "/>
<path fill="none" stroke-width="1.066978" stroke-linecap="butt" stroke-linejoin="round" stroke="rgb(11.764706%, 56.470588%, 100%)" stroke-opacity="1" stroke-miterlimit="10" d="M 178.222656 295.03125 L 39.988281 295.03125 "/>
<path fill="none" stroke-width="1.066978" stroke-linecap="butt" stroke-linejoin="round" stroke="rgb(11.764706%, 56.470588%, 100%)" stroke-opacity="1" stroke-miterlimit="10" d="M 178.222656 259.761719 L 78.382812 259.761719 "/>
<path fill="none" stroke-width="1.066978" stroke-linecap="butt" stroke-linejoin="round" stroke="rgb(11.764706%, 56.470588%, 100%)" stroke-opacity="1" stroke-miterlimit="10" d="M 178.222656 224.492188 L 110.597656 224.492188 "/>
<path fill="none" stroke-width="1.066978" stroke-linecap="butt" stroke-linejoin="round" stroke="rgb(11.764706%, 56.470588%, 100%)" stroke-opacity="1" stroke-miterlimit="10" d="M 178.222656 189.222656 L 47.675781 189.222656 "/>
<path fill="none" stroke-width="1.066978" stroke-linecap="butt" stroke-linejoin="round" stroke="rgb(11.764706%, 56.470588%, 100%)" stroke-opacity="1" stroke-miterlimit="10" d="M 178.222656 153.953125 L 164.054688 153.953125 "/>
<path fill="none" stroke-width="1.066978" stroke-linecap="butt" stroke-linejoin="round" stroke="rgb(11.764706%, 56.470588%, 100%)" stroke-opacity="1" stroke-miterlimit="10" d="M 178.222656 118.679688 L 307.757812 118.679688 "/>
<path fill="none" stroke-width="1.066978" stroke-linecap="butt" stroke-linejoin="round" stroke="rgb(11.764706%, 56.470588%, 100%)" stroke-opacity="1" stroke-miterlimit="10" d="M 178.222656 83.410156 L 341.597656 83.410156 "/>
<path fill="none" stroke-width="1.066978" stroke-linecap="butt" stroke-linejoin="round" stroke="rgb(11.764706%, 56.470588%, 100%)" stroke-opacity="1" stroke-miterlimit="10" d="M 178.222656 48.140625 L 118.300781 48.140625 "/>
<path fill-rule="nonzero" fill="rgb(0%, 0%, 0%)" fill-opacity="1" stroke-width="0.708661" stroke-linecap="round" stroke-linejoin="round" stroke="rgb(0%, 0%, 0%)" stroke-opacity="1" stroke-miterlimit="10" d="M 242.492188 541.921875 C 242.492188 545.0625 239.945312 547.609375 236.804688 547.609375 C 233.660156 547.609375 231.113281 545.0625 231.113281 541.921875 C 231.113281 538.777344 233.660156 536.230469 236.804688 536.230469 C 239.945312 536.230469 242.492188 538.777344 242.492188 541.921875 "/>
<path fill-rule="nonzero" fill="rgb(0%, 0%, 0%)" fill-opacity="1" stroke-width="0.708661" stroke-linecap="round" stroke-linejoin="round" stroke="rgb(0%, 0%, 0%)" stroke-opacity="1" stroke-miterlimit="10" d="M 203.925781 506.652344 C 203.925781 509.792969 201.378906 512.339844 198.238281 512.339844 C 195.09375 512.339844 192.546875 509.792969 192.546875 506.652344 C 192.546875 503.507812 195.09375 500.960938 198.238281 500.960938 C 201.378906 500.960938 203.925781 503.507812 203.925781 506.652344 "/>
<path fill-rule="nonzero" fill="rgb(0%, 0%, 0%)" fill-opacity="1" stroke-width="0.708661" stroke-linecap="round" stroke-linejoin="round" stroke="rgb(0%, 0%, 0%)" stroke-opacity="1" stroke-miterlimit="10" d="M 193.769531 471.382812 C 193.769531 474.523438 191.222656 477.070312 188.082031 477.070312 C 184.941406 477.070312 182.394531 474.523438 182.394531 471.382812 C 182.394531 468.238281 184.941406 465.691406 188.082031 465.691406 C 191.222656 465.691406 193.769531 468.238281 193.769531 471.382812 "/>
<path fill-rule="nonzero" fill="rgb(0%, 0%, 0%)" fill-opacity="1" stroke-width="0.708661" stroke-linecap="round" stroke-linejoin="round" stroke="rgb(0%, 0%, 0%)" stroke-opacity="1" stroke-miterlimit="10" d="M 149.957031 436.109375 C 149.957031 439.253906 147.40625 441.800781 144.265625 441.800781 C 141.125 441.800781 138.578125 439.253906 138.578125 436.109375 C 138.578125 432.96875 141.125 430.421875 144.265625 430.421875 C 147.40625 430.421875 149.957031 432.96875 149.957031 436.109375 "/>
<path fill-rule="nonzero" fill="rgb(0%, 0%, 0%)" fill-opacity="1" stroke-width="0.708661" stroke-linecap="round" stroke-linejoin="round" stroke="rgb(0%, 0%, 0%)" stroke-opacity="1" stroke-miterlimit="10" d="M 320.875 400.839844 C 320.875 403.984375 318.328125 406.53125 315.1875 406.53125 C 312.042969 406.53125 309.496094 403.984375 309.496094 400.839844 C 309.496094 397.699219 312.042969 395.152344 315.1875 395.152344 C 318.328125 395.152344 320.875 397.699219 320.875 400.839844 "/>
<path fill-rule="nonzero" fill="rgb(0%, 0%, 0%)" fill-opacity="1" stroke-width="0.708661" stroke-linecap="round" stroke-linejoin="round" stroke="rgb(0%, 0%, 0%)" stroke-opacity="1" stroke-miterlimit="10" d="M 203.417969 365.570312 C 203.417969 368.714844 200.871094 371.261719 197.726562 371.261719 C 194.585938 371.261719 192.039062 368.714844 192.039062 365.570312 C 192.039062 362.429688 194.585938 359.882812 197.726562 359.882812 C 200.871094 359.882812 203.417969 362.429688 203.417969 365.570312 "/>
<path fill-rule="nonzero" fill="rgb(0%, 0%, 0%)" fill-opacity="1" stroke-width="0.708661" stroke-linecap="round" stroke-linejoin="round" stroke="rgb(0%, 0%, 0%)" stroke-opacity="1" stroke-miterlimit="10" d="M 190.390625 330.300781 C 190.390625 333.441406 187.84375 335.992188 184.703125 335.992188 C 181.558594 335.992188 179.011719 333.441406 179.011719 330.300781 C 179.011719 327.160156 181.558594 324.613281 184.703125 324.613281 C 187.84375 324.613281 190.390625 327.160156 190.390625 330.300781 "/>
<path fill-rule="nonzero" fill="rgb(0%, 0%, 0%)" fill-opacity="1" stroke-width="0.708661" stroke-linecap="round" stroke-linejoin="round" stroke="rgb(0%, 0%, 0%)" stroke-opacity="1" stroke-miterlimit="10" d="M 45.675781 295.03125 C 45.675781 298.171875 43.128906 300.71875 39.988281 300.71875 C 36.84375 300.71875 34.296875 298.171875 34.296875 295.03125 C 34.296875 291.890625 36.84375 289.34375 39.988281 289.34375 C 43.128906 289.34375 45.675781 291.890625 45.675781 295.03125 "/>
<path fill-rule="nonzero" fill="rgb(0%, 0%, 0%)" fill-opacity="1" stroke-width="0.708661" stroke-linecap="round" stroke-linejoin="round" stroke="rgb(0%, 0%, 0%)" stroke-opacity="1" stroke-miterlimit="10" d="M 84.070312 259.761719 C 84.070312 262.902344 81.523438 265.449219 78.382812 265.449219 C 75.242188 265.449219 72.691406 262.902344 72.691406 259.761719 C 72.691406 256.617188 75.242188 254.070312 78.382812 254.070312 C 81.523438 254.070312 84.070312 256.617188 84.070312 259.761719 "/>
<path fill-rule="nonzero" fill="rgb(0%, 0%, 0%)" fill-opacity="1" stroke-width="0.708661" stroke-linecap="round" stroke-linejoin="round" stroke="rgb(0%, 0%, 0%)" stroke-opacity="1" stroke-miterlimit="10" d="M 116.289062 224.492188 C 116.289062 227.632812 113.738281 230.179688 110.597656 230.179688 C 107.457031 230.179688 104.910156 227.632812 104.910156 224.492188 C 104.910156 221.347656 107.457031 218.800781 110.597656 218.800781 C 113.738281 218.800781 116.289062 221.347656 116.289062 224.492188 "/>
<path fill-rule="nonzero" fill="rgb(0%, 0%, 0%)" fill-opacity="1" stroke-width="0.708661" stroke-linecap="round" stroke-linejoin="round" stroke="rgb(0%, 0%, 0%)" stroke-opacity="1" stroke-miterlimit="10" d="M 53.367188 189.222656 C 53.367188 192.363281 50.820312 194.910156 47.675781 194.910156 C 44.535156 194.910156 41.988281 192.363281 41.988281 189.222656 C 41.988281 186.078125 44.535156 183.53125 47.675781 183.53125 C 50.820312 183.53125 53.367188 186.078125 53.367188 189.222656 "/>
<path fill-rule="nonzero" fill="rgb(0%, 0%, 0%)" fill-opacity="1" stroke-width="0.708661" stroke-linecap="round" stroke-linejoin="round" stroke="rgb(0%, 0%, 0%)" stroke-opacity="1" stroke-miterlimit="10" d="M 169.742188 153.953125 C 169.742188 157.09375 167.195312 159.640625 164.054688 159.640625 C 160.910156 159.640625 158.363281 157.09375 158.363281 153.953125 C 158.363281 150.808594 160.910156 148.261719 164.054688 148.261719 C 167.195312 148.261719 169.742188 150.808594 169.742188 153.953125 "/>
<path fill-rule="nonzero" fill="rgb(0%, 0%, 0%)" fill-opacity="1" stroke-width="0.708661" stroke-linecap="round" stroke-linejoin="round" stroke="rgb(0%, 0%, 0%)" stroke-opacity="1" stroke-miterlimit="10" d="M 313.449219 118.679688 C 313.449219 121.824219 310.902344 124.371094 307.757812 124.371094 C 304.617188 124.371094 302.070312 121.824219 302.070312 118.679688 C 302.070312 115.539062 304.617188 112.992188 307.757812 112.992188 C 310.902344 112.992188 313.449219 115.539062 313.449219 118.679688 "/>
<path fill-rule="nonzero" fill="rgb(0%, 0%, 0%)" fill-opacity="1" stroke-width="0.708661" stroke-linecap="round" stroke-linejoin="round" stroke="rgb(0%, 0%, 0%)" stroke-opacity="1" stroke-miterlimit="10" d="M 347.289062 83.410156 C 347.289062 86.554688 344.742188 89.101562 341.597656 89.101562 C 338.457031 89.101562 335.910156 86.554688 335.910156 83.410156 C 335.910156 80.269531 338.457031 77.722656 341.597656 77.722656 C 344.742188 77.722656 347.289062 80.269531 347.289062 83.410156 "/>
<path fill-rule="nonzero" fill="rgb(0%, 0%, 0%)" fill-opacity="1" stroke-width="0.708661" stroke-linecap="round" stroke-linejoin="round" stroke="rgb(0%, 0%, 0%)" stroke-opacity="1" stroke-miterlimit="10" d="M 123.992188 48.140625 C 123.992188 51.285156 121.445312 53.832031 118.300781 53.832031 C 115.160156 53.832031 112.613281 51.285156 112.613281 48.140625 C 112.613281 45 115.160156 42.453125 118.300781 42.453125 C 121.445312 42.453125 123.992188 45 123.992188 48.140625 "/>
<g fill="rgb(30.196078%, 30.196078%, 30.196078%)" fill-opacity="1">
<use xlink:href="#glyph-0-1" x="75.789062" y="660.964844"/>
<use xlink:href="#glyph-0-2" x="84.789062" y="660.964844"/>
</g>
<g fill="rgb(30.196078%, 30.196078%, 30.196078%)" fill-opacity="1">
<use xlink:href="#glyph-0-3" x="164.722656" y="660.964844"/>
<use xlink:href="#glyph-0-2" x="173.722656" y="660.964844"/>
<use xlink:href="#glyph-0-2" x="182.722656" y="660.964844"/>
</g>
<g fill="rgb(30.196078%, 30.196078%, 30.196078%)" fill-opacity="1">
<use xlink:href="#glyph-0-3" x="259.15625" y="660.964844"/>
<use xlink:href="#glyph-0-3" x="266.15625" y="660.964844"/>
<use xlink:href="#glyph-0-2" x="275.15625" y="660.964844"/>
</g>
<g fill="rgb(0%, 0%, 0%)" fill-opacity="1">
<use xlink:href="#glyph-1-1" x="185.792969" y="685.025391"/>
</g>
<g clip-path="url(#clip-15)">
<path fill="none" stroke-width="0.96998" stroke-linecap="butt" stroke-linejoin="round" stroke="rgb(92.156863%, 92.156863%, 92.156863%)" stroke-opacity="1" stroke-miterlimit="10" d="M 376.605469 489.015625 L 708.375 489.015625 "/>
</g>
<g clip-path="url(#clip-16)">
<path fill="none" stroke-width="0.96998" stroke-linecap="butt" stroke-linejoin="round" stroke="rgb(92.156863%, 92.156863%, 92.156863%)" stroke-opacity="1" stroke-miterlimit="10" d="M 376.605469 312.667969 L 708.375 312.667969 "/>
</g>
<g clip-path="url(#clip-17)">
<path fill="none" stroke-width="0.96998" stroke-linecap="butt" stroke-linejoin="round" stroke="rgb(92.156863%, 92.156863%, 92.156863%)" stroke-opacity="1" stroke-miterlimit="10" d="M 376.605469 136.316406 L 708.375 136.316406 "/>
</g>
<g clip-path="url(#clip-18)">
<path fill="none" stroke-width="0.96998" stroke-linecap="butt" stroke-linejoin="round" stroke="rgb(92.156863%, 92.156863%, 92.156863%)" stroke-opacity="1" stroke-miterlimit="10" d="M 414.910156 640.675781 L 414.910156 19.925781 "/>
</g>
<g clip-path="url(#clip-19)">
<path fill="none" stroke-width="0.96998" stroke-linecap="butt" stroke-linejoin="round" stroke="rgb(92.156863%, 92.156863%, 92.156863%)" stroke-opacity="1" stroke-miterlimit="10" d="M 508.34375 640.675781 L 508.34375 19.925781 "/>
</g>
<g clip-path="url(#clip-20)">
<path fill="none" stroke-width="0.96998" stroke-linecap="butt" stroke-linejoin="round" stroke="rgb(92.156863%, 92.156863%, 92.156863%)" stroke-opacity="1" stroke-miterlimit="10" d="M 601.777344 640.675781 L 601.777344 19.925781 "/>
</g>
<g clip-path="url(#clip-21)">
<path fill="none" stroke-width="0.96998" stroke-linecap="butt" stroke-linejoin="round" stroke="rgb(92.156863%, 92.156863%, 92.156863%)" stroke-opacity="1" stroke-miterlimit="10" d="M 695.210938 640.675781 L 695.210938 19.925781 "/>
</g>
<g clip-path="url(#clip-22)">
<path fill="none" stroke-width="1.939961" stroke-linecap="butt" stroke-linejoin="round" stroke="rgb(92.156863%, 92.156863%, 92.156863%)" stroke-opacity="1" stroke-miterlimit="10" d="M 376.605469 577.191406 L 708.375 577.191406 "/>
</g>
<g clip-path="url(#clip-23)">
<path fill="none" stroke-width="1.939961" stroke-linecap="butt" stroke-linejoin="round" stroke="rgb(92.156863%, 92.156863%, 92.156863%)" stroke-opacity="1" stroke-miterlimit="10" d="M 376.605469 400.839844 L 708.375 400.839844 "/>
</g>
<g clip-path="url(#clip-24)">
<path fill="none" stroke-width="1.939961" stroke-linecap="butt" stroke-linejoin="round" stroke="rgb(92.156863%, 92.156863%, 92.156863%)" stroke-opacity="1" stroke-miterlimit="10" d="M 376.605469 224.492188 L 708.375 224.492188 "/>
</g>
<g clip-path="url(#clip-25)">
<path fill="none" stroke-width="1.939961" stroke-linecap="butt" stroke-linejoin="round" stroke="rgb(92.156863%, 92.156863%, 92.156863%)" stroke-opacity="1" stroke-miterlimit="10" d="M 376.605469 48.140625 L 708.375 48.140625 "/>
</g>
<g clip-path="url(#clip-26)">
<path fill="none" stroke-width="1.939961" stroke-linecap="butt" stroke-linejoin="round" stroke="rgb(92.156863%, 92.156863%, 92.156863%)" stroke-opacity="1" stroke-miterlimit="10" d="M 461.625 640.675781 L 461.625 19.925781 "/>
</g>
<g clip-path="url(#clip-27)">
<path fill="none" stroke-width="1.939961" stroke-linecap="butt" stroke-linejoin="round" stroke="rgb(92.156863%, 92.156863%, 92.156863%)" stroke-opacity="1" stroke-miterlimit="10" d="M 555.058594 640.675781 L 555.058594 19.925781 "/>
</g>
<g clip-path="url(#clip-28)">
<path fill="none" stroke-width="1.939961" stroke-linecap="butt" stroke-linejoin="round" stroke="rgb(92.156863%, 92.156863%, 92.156863%)" stroke-opacity="1" stroke-miterlimit="10" d="M 648.492188 640.675781 L 648.492188 19.925781 "/>
</g>
<g clip-path="url(#clip-29)">
<path fill="none" stroke-width="1.066978" stroke-linecap="butt" stroke-linejoin="round" stroke="rgb(0%, 0%, 0%)" stroke-opacity="1" stroke-miterlimit="10" d="M 555.058594 640.675781 L 555.058594 19.925781 "/>
</g>
<path fill="none" stroke-width="1.066978" stroke-linecap="butt" stroke-linejoin="round" stroke="rgb(11.764706%, 56.470588%, 100%)" stroke-opacity="1" stroke-miterlimit="10" d="M 555.058594 541.921875 L 496.480469 541.921875 "/>
<path fill="none" stroke-width="1.066978" stroke-linecap="butt" stroke-linejoin="round" stroke="rgb(11.764706%, 56.470588%, 100%)" stroke-opacity="1" stroke-miterlimit="10" d="M 555.058594 506.652344 L 535.046875 506.652344 "/>
<path fill="none" stroke-width="1.066978" stroke-linecap="butt" stroke-linejoin="round" stroke="rgb(11.764706%, 56.470588%, 100%)" stroke-opacity="1" stroke-miterlimit="10" d="M 555.058594 471.382812 L 545.203125 471.382812 "/>
<path fill="none" stroke-width="1.066978" stroke-linecap="butt" stroke-linejoin="round" stroke="rgb(11.764706%, 56.470588%, 100%)" stroke-opacity="1" stroke-miterlimit="10" d="M 555.058594 436.109375 L 589.019531 436.109375 "/>
<path fill="none" stroke-width="1.066978" stroke-linecap="butt" stroke-linejoin="round" stroke="rgb(11.764706%, 56.470588%, 100%)" stroke-opacity="1" stroke-miterlimit="10" d="M 555.058594 400.839844 L 418.097656 400.839844 "/>
<path fill="none" stroke-width="1.066978" stroke-linecap="butt" stroke-linejoin="round" stroke="rgb(11.764706%, 56.470588%, 100%)" stroke-opacity="1" stroke-miterlimit="10" d="M 555.058594 365.570312 L 535.554688 365.570312 "/>
<path fill="none" stroke-width="1.066978" stroke-linecap="butt" stroke-linejoin="round" stroke="rgb(11.764706%, 56.470588%, 100%)" stroke-opacity="1" stroke-miterlimit="10" d="M 555.058594 330.300781 L 548.582031 330.300781 "/>
<path fill="none" stroke-width="1.066978" stroke-linecap="butt" stroke-linejoin="round" stroke="rgb(11.764706%, 56.470588%, 100%)" stroke-opacity="1" stroke-miterlimit="10" d="M 555.058594 295.03125 L 693.296875 295.03125 "/>
<path fill="none" stroke-width="1.066978" stroke-linecap="butt" stroke-linejoin="round" stroke="rgb(11.764706%, 56.470588%, 100%)" stroke-opacity="1" stroke-miterlimit="10" d="M 555.058594 259.761719 L 654.902344 259.761719 "/>
<path fill="none" stroke-width="1.066978" stroke-linecap="butt" stroke-linejoin="round" stroke="rgb(11.764706%, 56.470588%, 100%)" stroke-opacity="1" stroke-miterlimit="10" d="M 555.058594 224.492188 L 622.683594 224.492188 "/>
<path fill="none" stroke-width="1.066978" stroke-linecap="butt" stroke-linejoin="round" stroke="rgb(11.764706%, 56.470588%, 100%)" stroke-opacity="1" stroke-miterlimit="10" d="M 555.058594 189.222656 L 685.605469 189.222656 "/>
<path fill="none" stroke-width="1.066978" stroke-linecap="butt" stroke-linejoin="round" stroke="rgb(11.764706%, 56.470588%, 100%)" stroke-opacity="1" stroke-miterlimit="10" d="M 555.058594 153.953125 L 569.230469 153.953125 "/>
<path fill="none" stroke-width="1.066978" stroke-linecap="butt" stroke-linejoin="round" stroke="rgb(11.764706%, 56.470588%, 100%)" stroke-opacity="1" stroke-miterlimit="10" d="M 555.058594 118.679688 L 425.523438 118.679688 "/>
<path fill="none" stroke-width="1.066978" stroke-linecap="butt" stroke-linejoin="round" stroke="rgb(11.764706%, 56.470588%, 100%)" stroke-opacity="1" stroke-miterlimit="10" d="M 555.058594 83.410156 L 391.683594 83.410156 "/>
<path fill="none" stroke-width="1.066978" stroke-linecap="butt" stroke-linejoin="round" stroke="rgb(11.764706%, 56.470588%, 100%)" stroke-opacity="1" stroke-miterlimit="10" d="M 555.058594 48.140625 L 614.980469 48.140625 "/>
<path fill-rule="nonzero" fill="rgb(0%, 0%, 0%)" fill-opacity="1" stroke-width="0.708661" stroke-linecap="round" stroke-linejoin="round" stroke="rgb(0%, 0%, 0%)" stroke-opacity="1" stroke-miterlimit="10" d="M 502.167969 541.921875 C 502.167969 545.0625 499.621094 547.609375 496.480469 547.609375 C 493.335938 547.609375 490.789062 545.0625 490.789062 541.921875 C 490.789062 538.777344 493.335938 536.230469 496.480469 536.230469 C 499.621094 536.230469 502.167969 538.777344 502.167969 541.921875 "/>
<path fill-rule="nonzero" fill="rgb(0%, 0%, 0%)" fill-opacity="1" stroke-width="0.708661" stroke-linecap="round" stroke-linejoin="round" stroke="rgb(0%, 0%, 0%)" stroke-opacity="1" stroke-miterlimit="10" d="M 540.734375 506.652344 C 540.734375 509.792969 538.1875 512.339844 535.046875 512.339844 C 531.902344 512.339844 529.355469 509.792969 529.355469 506.652344 C 529.355469 503.507812 531.902344 500.960938 535.046875 500.960938 C 538.1875 500.960938 540.734375 503.507812 540.734375 506.652344 "/>
<path fill-rule="nonzero" fill="rgb(0%, 0%, 0%)" fill-opacity="1" stroke-width="0.708661" stroke-linecap="round" stroke-linejoin="round" stroke="rgb(0%, 0%, 0%)" stroke-opacity="1" stroke-miterlimit="10" d="M 550.890625 471.382812 C 550.890625 474.523438 548.34375 477.070312 545.203125 477.070312 C 542.058594 477.070312 539.511719 474.523438 539.511719 471.382812 C 539.511719 468.238281 542.058594 465.691406 545.203125 465.691406 C 548.34375 465.691406 550.890625 468.238281 550.890625 471.382812 "/>
<path fill-rule="nonzero" fill="rgb(0%, 0%, 0%)" fill-opacity="1" stroke-width="0.708661" stroke-linecap="round" stroke-linejoin="round" stroke="rgb(0%, 0%, 0%)" stroke-opacity="1" stroke-miterlimit="10" d="M 594.707031 436.109375 C 594.707031 439.253906 592.160156 441.800781 589.019531 441.800781 C 585.875 441.800781 583.328125 439.253906 583.328125 436.109375 C 583.328125 432.96875 585.875 430.421875 589.019531 430.421875 C 592.160156 430.421875 594.707031 432.96875 594.707031 436.109375 "/>
<path fill-rule="nonzero" fill="rgb(0%, 0%, 0%)" fill-opacity="1" stroke-width="0.708661" stroke-linecap="round" stroke-linejoin="round" stroke="rgb(0%, 0%, 0%)" stroke-opacity="1" stroke-miterlimit="10" d="M 423.785156 400.839844 C 423.785156 403.984375 421.238281 406.53125 418.097656 406.53125 C 414.957031 406.53125 412.410156 403.984375 412.410156 400.839844 C 412.410156 397.699219 414.957031 395.152344 418.097656 395.152344 C 421.238281 395.152344 423.785156 397.699219 423.785156 400.839844 "/>
<path fill-rule="nonzero" fill="rgb(0%, 0%, 0%)" fill-opacity="1" stroke-width="0.708661" stroke-linecap="round" stroke-linejoin="round" stroke="rgb(0%, 0%, 0%)" stroke-opacity="1" stroke-miterlimit="10" d="M 541.246094 365.570312 C 541.246094 368.714844 538.699219 371.261719 535.554688 371.261719 C 532.414062 371.261719 529.867188 368.714844 529.867188 365.570312 C 529.867188 362.429688 532.414062 359.882812 535.554688 359.882812 C 538.699219 359.882812 541.246094 362.429688 541.246094 365.570312 "/>
<path fill-rule="nonzero" fill="rgb(0%, 0%, 0%)" fill-opacity="1" stroke-width="0.708661" stroke-linecap="round" stroke-linejoin="round" stroke="rgb(0%, 0%, 0%)" stroke-opacity="1" stroke-miterlimit="10" d="M 554.269531 330.300781 C 554.269531 333.441406 551.722656 335.992188 548.582031 335.992188 C 545.441406 335.992188 542.894531 333.441406 542.894531 330.300781 C 542.894531 327.160156 545.441406 324.613281 548.582031 324.613281 C 551.722656 324.613281 554.269531 327.160156 554.269531 330.300781 "/>
<path fill-rule="nonzero" fill="rgb(0%, 0%, 0%)" fill-opacity="1" stroke-width="0.708661" stroke-linecap="round" stroke-linejoin="round" stroke="rgb(0%, 0%, 0%)" stroke-opacity="1" stroke-miterlimit="10" d="M 698.984375 295.03125 C 698.984375 298.171875 696.4375 300.71875 693.296875 300.71875 C 690.152344 300.71875 687.605469 298.171875 687.605469 295.03125 C 687.605469 291.890625 690.152344 289.34375 693.296875 289.34375 C 696.4375 289.34375 698.984375 291.890625 698.984375 295.03125 "/>
<path fill-rule="nonzero" fill="rgb(0%, 0%, 0%)" fill-opacity="1" stroke-width="0.708661" stroke-linecap="round" stroke-linejoin="round" stroke="rgb(0%, 0%, 0%)" stroke-opacity="1" stroke-miterlimit="10" d="M 660.589844 259.761719 C 660.589844 262.902344 658.042969 265.449219 654.902344 265.449219 C 651.757812 265.449219 649.210938 262.902344 649.210938 259.761719 C 649.210938 256.617188 651.757812 254.070312 654.902344 254.070312 C 658.042969 254.070312 660.589844 256.617188 660.589844 259.761719 "/>
<path fill-rule="nonzero" fill="rgb(0%, 0%, 0%)" fill-opacity="1" stroke-width="0.708661" stroke-linecap="round" stroke-linejoin="round" stroke="rgb(0%, 0%, 0%)" stroke-opacity="1" stroke-miterlimit="10" d="M 628.375 224.492188 C 628.375 227.632812 625.828125 230.179688 622.683594 230.179688 C 619.542969 230.179688 616.996094 227.632812 616.996094 224.492188 C 616.996094 221.347656 619.542969 218.800781 622.683594 218.800781 C 625.828125 218.800781 628.375 221.347656 628.375 224.492188 "/>
<path fill-rule="nonzero" fill="rgb(0%, 0%, 0%)" fill-opacity="1" stroke-width="0.708661" stroke-linecap="round" stroke-linejoin="round" stroke="rgb(0%, 0%, 0%)" stroke-opacity="1" stroke-miterlimit="10" d="M 691.296875 189.222656 C 691.296875 192.363281 688.75 194.910156 685.605469 194.910156 C 682.464844 194.910156 679.917969 192.363281 679.917969 189.222656 C 679.917969 186.078125 682.464844 183.53125 685.605469 183.53125 C 688.75 183.53125 691.296875 186.078125 691.296875 189.222656 "/>
<path fill-rule="nonzero" fill="rgb(0%, 0%, 0%)" fill-opacity="1" stroke-width="0.708661" stroke-linecap="round" stroke-linejoin="round" stroke="rgb(0%, 0%, 0%)" stroke-opacity="1" stroke-miterlimit="10" d="M 574.921875 153.953125 C 574.921875 157.09375 572.371094 159.640625 569.230469 159.640625 C 566.089844 159.640625 563.542969 157.09375 563.542969 153.953125 C 563.542969 150.808594 566.089844 148.261719 569.230469 148.261719 C 572.371094 148.261719 574.921875 150.808594 574.921875 153.953125 "/>
<path fill-rule="nonzero" fill="rgb(0%, 0%, 0%)" fill-opacity="1" stroke-width="0.708661" stroke-linecap="round" stroke-linejoin="round" stroke="rgb(0%, 0%, 0%)" stroke-opacity="1" stroke-miterlimit="10" d="M 431.214844 118.679688 C 431.214844 121.824219 428.667969 124.371094 425.523438 124.371094 C 422.382812 124.371094 419.835938 121.824219 419.835938 118.679688 C 419.835938 115.539062 422.382812 112.992188 425.523438 112.992188 C 428.667969 112.992188 431.214844 115.539062 431.214844 118.679688 "/>
<path fill-rule="nonzero" fill="rgb(0%, 0%, 0%)" fill-opacity="1" stroke-width="0.708661" stroke-linecap="round" stroke-linejoin="round" stroke="rgb(0%, 0%, 0%)" stroke-opacity="1" stroke-miterlimit="10" d="M 397.375 83.410156 C 397.375 86.554688 394.828125 89.101562 391.683594 89.101562 C 388.542969 89.101562 385.996094 86.554688 385.996094 83.410156 C 385.996094 80.269531 388.542969 77.722656 391.683594 77.722656 C 394.828125 77.722656 397.375 80.269531 397.375 83.410156 "/>
<path fill-rule="nonzero" fill="rgb(0%, 0%, 0%)" fill-opacity="1" stroke-width="0.708661" stroke-linecap="round" stroke-linejoin="round" stroke="rgb(0%, 0%, 0%)" stroke-opacity="1" stroke-miterlimit="10" d="M 620.671875 48.140625 C 620.671875 51.285156 618.125 53.832031 614.980469 53.832031 C 611.839844 53.832031 609.292969 51.285156 609.292969 48.140625 C 609.292969 45 611.839844 42.453125 614.980469 42.453125 C 618.125 42.453125 620.671875 45 620.671875 48.140625 "/>
<g fill="rgb(30.196078%, 30.196078%, 30.196078%)" fill-opacity="1">
<use xlink:href="#glyph-0-4" x="450.125" y="660.964844"/>
<use xlink:href="#glyph-0-3" x="455.125" y="660.964844"/>
<use xlink:href="#glyph-0-2" x="464.125" y="660.964844"/>
</g>
<g fill="rgb(30.196078%, 30.196078%, 30.196078%)" fill-opacity="1">
<use xlink:href="#glyph-0-2" x="550.558594" y="660.964844"/>
</g>
<g fill="rgb(30.196078%, 30.196078%, 30.196078%)" fill-opacity="1">
<use xlink:href="#glyph-0-3" x="639.492188" y="660.964844"/>
<use xlink:href="#glyph-0-2" x="648.492188" y="660.964844"/>
</g>
<g fill="rgb(0%, 0%, 0%)" fill-opacity="1">
<use xlink:href="#glyph-1-1" x="520.210938" y="684.025391"/>
</g>
<g fill="rgb(0%, 0%, 0%)" fill-opacity="1">
<use xlink:href="#glyph-2-1" x="533.992188" y="684.189453"/>
</g>
<g fill="rgb(0%, 0%, 0%)" fill-opacity="1">
<use xlink:href="#glyph-1-1" x="554.769531" y="684.025391"/>
</g>
<path fill="none" stroke-width="0.75" stroke-linecap="round" stroke-linejoin="round" stroke="rgb(0%, 0%, 0%)" stroke-opacity="1" stroke-miterlimit="10" d="M 554.769531 670.625 L 564.769531 670.625 "/>
<g clip-path="url(#clip-30)">
<path fill="none" stroke-width="0.96998" stroke-linecap="butt" stroke-linejoin="round" stroke="rgb(92.156863%, 92.156863%, 92.156863%)" stroke-opacity="1" stroke-miterlimit="10" d="M 728.300781 489.015625 L 1060.074219 489.015625 "/>
</g>
<g clip-path="url(#clip-31)">
<path fill="none" stroke-width="0.96998" stroke-linecap="butt" stroke-linejoin="round" stroke="rgb(92.156863%, 92.156863%, 92.156863%)" stroke-opacity="1" stroke-miterlimit="10" d="M 728.300781 312.667969 L 1060.074219 312.667969 "/>
</g>
<g clip-path="url(#clip-32)">
<path fill="none" stroke-width="0.96998" stroke-linecap="butt" stroke-linejoin="round" stroke="rgb(92.156863%, 92.156863%, 92.156863%)" stroke-opacity="1" stroke-miterlimit="10" d="M 728.300781 136.316406 L 1060.074219 136.316406 "/>
</g>
<g clip-path="url(#clip-33)">
<path fill="none" stroke-width="0.96998" stroke-linecap="butt" stroke-linejoin="round" stroke="rgb(92.156863%, 92.156863%, 92.156863%)" stroke-opacity="1" stroke-miterlimit="10" d="M 792.707031 640.675781 L 792.707031 19.925781 "/>
</g>
<g clip-path="url(#clip-34)">
<path fill="none" stroke-width="0.96998" stroke-linecap="butt" stroke-linejoin="round" stroke="rgb(92.156863%, 92.156863%, 92.156863%)" stroke-opacity="1" stroke-miterlimit="10" d="M 891.355469 640.675781 L 891.355469 19.925781 "/>
</g>
<g clip-path="url(#clip-35)">
<path fill="none" stroke-width="0.96998" stroke-linecap="butt" stroke-linejoin="round" stroke="rgb(92.156863%, 92.156863%, 92.156863%)" stroke-opacity="1" stroke-miterlimit="10" d="M 990.003906 640.675781 L 990.003906 19.925781 "/>
</g>
<g clip-path="url(#clip-36)">
<path fill="none" stroke-width="1.939961" stroke-linecap="butt" stroke-linejoin="round" stroke="rgb(92.156863%, 92.156863%, 92.156863%)" stroke-opacity="1" stroke-miterlimit="10" d="M 728.300781 577.191406 L 1060.074219 577.191406 "/>
</g>
<g clip-path="url(#clip-37)">
<path fill="none" stroke-width="1.939961" stroke-linecap="butt" stroke-linejoin="round" stroke="rgb(92.156863%, 92.156863%, 92.156863%)" stroke-opacity="1" stroke-miterlimit="10" d="M 728.300781 400.839844 L 1060.074219 400.839844 "/>
</g>
<g clip-path="url(#clip-38)">
<path fill="none" stroke-width="1.939961" stroke-linecap="butt" stroke-linejoin="round" stroke="rgb(92.156863%, 92.156863%, 92.156863%)" stroke-opacity="1" stroke-miterlimit="10" d="M 728.300781 224.492188 L 1060.074219 224.492188 "/>
</g>
<g clip-path="url(#clip-39)">
<path fill="none" stroke-width="1.939961" stroke-linecap="butt" stroke-linejoin="round" stroke="rgb(92.156863%, 92.156863%, 92.156863%)" stroke-opacity="1" stroke-miterlimit="10" d="M 728.300781 48.140625 L 1060.074219 48.140625 "/>
</g>
<g clip-path="url(#clip-40)">
<path fill="none" stroke-width="1.939961" stroke-linecap="butt" stroke-linejoin="round" stroke="rgb(92.156863%, 92.156863%, 92.156863%)" stroke-opacity="1" stroke-miterlimit="10" d="M 743.382812 640.675781 L 743.382812 19.925781 "/>
</g>
<g clip-path="url(#clip-41)">
<path fill="none" stroke-width="1.939961" stroke-linecap="butt" stroke-linejoin="round" stroke="rgb(92.156863%, 92.156863%, 92.156863%)" stroke-opacity="1" stroke-miterlimit="10" d="M 842.03125 640.675781 L 842.03125 19.925781 "/>
</g>
<g clip-path="url(#clip-42)">
<path fill="none" stroke-width="1.939961" stroke-linecap="butt" stroke-linejoin="round" stroke="rgb(92.156863%, 92.156863%, 92.156863%)" stroke-opacity="1" stroke-miterlimit="10" d="M 940.679688 640.675781 L 940.679688 19.925781 "/>
</g>
<g clip-path="url(#clip-43)">
<path fill="none" stroke-width="1.939961" stroke-linecap="butt" stroke-linejoin="round" stroke="rgb(92.156863%, 92.156863%, 92.156863%)" stroke-opacity="1" stroke-miterlimit="10" d="M 1039.328125 640.675781 L 1039.328125 19.925781 "/>
</g>
<path fill="none" stroke-width="1.066978" stroke-linecap="butt" stroke-linejoin="round" stroke="rgb(11.764706%, 56.470588%, 100%)" stroke-opacity="1" stroke-miterlimit="10" d="M 743.382812 541.921875 L 782.160156 541.921875 "/>
<path fill="none" stroke-width="1.066978" stroke-linecap="butt" stroke-linejoin="round" stroke="rgb(11.764706%, 56.470588%, 100%)" stroke-opacity="1" stroke-miterlimit="10" d="M 743.382812 506.652344 L 747.910156 506.652344 "/>
<path fill="none" stroke-width="1.066978" stroke-linecap="butt" stroke-linejoin="round" stroke="rgb(11.764706%, 56.470588%, 100%)" stroke-opacity="1" stroke-miterlimit="10" d="M 743.382812 471.382812 L 744.480469 471.382812 "/>
<path fill="none" stroke-width="1.066978" stroke-linecap="butt" stroke-linejoin="round" stroke="rgb(11.764706%, 56.470588%, 100%)" stroke-opacity="1" stroke-miterlimit="10" d="M 743.382812 436.109375 L 756.414062 436.109375 "/>
<path fill="none" stroke-width="1.066978" stroke-linecap="butt" stroke-linejoin="round" stroke="rgb(11.764706%, 56.470588%, 100%)" stroke-opacity="1" stroke-miterlimit="10" d="M 743.382812 400.839844 L 955.355469 400.839844 "/>
<path fill="none" stroke-width="1.066978" stroke-linecap="butt" stroke-linejoin="round" stroke="rgb(11.764706%, 56.470588%, 100%)" stroke-opacity="1" stroke-miterlimit="10" d="M 743.382812 365.570312 L 747.679688 365.570312 "/>
<path fill="none" stroke-width="1.066978" stroke-linecap="butt" stroke-linejoin="round" stroke="rgb(11.764706%, 56.470588%, 100%)" stroke-opacity="1" stroke-miterlimit="10" d="M 743.382812 330.300781 L 743.855469 330.300781 "/>
<path fill="none" stroke-width="1.066978" stroke-linecap="butt" stroke-linejoin="round" stroke="rgb(11.764706%, 56.470588%, 100%)" stroke-opacity="1" stroke-miterlimit="10" d="M 743.382812 295.03125 L 959.320312 295.03125 "/>
<path fill="none" stroke-width="1.066978" stroke-linecap="butt" stroke-linejoin="round" stroke="rgb(11.764706%, 56.470588%, 100%)" stroke-opacity="1" stroke-miterlimit="10" d="M 743.382812 259.761719 L 856.027344 259.761719 "/>
<path fill="none" stroke-width="1.066978" stroke-linecap="butt" stroke-linejoin="round" stroke="rgb(11.764706%, 56.470588%, 100%)" stroke-opacity="1" stroke-miterlimit="10" d="M 743.382812 224.492188 L 795.0625 224.492188 "/>
<path fill="none" stroke-width="1.066978" stroke-linecap="butt" stroke-linejoin="round" stroke="rgb(11.764706%, 56.470588%, 100%)" stroke-opacity="1" stroke-miterlimit="10" d="M 743.382812 189.222656 L 935.964844 189.222656 "/>
<path fill="none" stroke-width="1.066978" stroke-linecap="butt" stroke-linejoin="round" stroke="rgb(11.764706%, 56.470588%, 100%)" stroke-opacity="1" stroke-miterlimit="10" d="M 743.382812 153.953125 L 745.652344 153.953125 "/>
<path fill="none" stroke-width="1.066978" stroke-linecap="butt" stroke-linejoin="round" stroke="rgb(11.764706%, 56.470588%, 100%)" stroke-opacity="1" stroke-miterlimit="10" d="M 743.382812 118.679688 L 932.988281 118.679688 "/>
<path fill="none" stroke-width="1.066978" stroke-linecap="butt" stroke-linejoin="round" stroke="rgb(11.764706%, 56.470588%, 100%)" stroke-opacity="1" stroke-miterlimit="10" d="M 743.382812 83.410156 L 1044.996094 83.410156 "/>
<path fill="none" stroke-width="1.066978" stroke-linecap="butt" stroke-linejoin="round" stroke="rgb(11.764706%, 56.470588%, 100%)" stroke-opacity="1" stroke-miterlimit="10" d="M 743.382812 48.140625 L 783.957031 48.140625 "/>
<path fill="none" stroke-width="4.267913" stroke-linecap="butt" stroke-linejoin="round" stroke="rgb(69.803922%, 13.333333%, 13.333333%)" stroke-opacity="1" stroke-miterlimit="10" d="M 743.382812 577.191406 L 842.03125 577.191406 "/>
<path fill="none" stroke-width="4.267913" stroke-linecap="butt" stroke-linejoin="round" stroke="rgb(69.803922%, 13.333333%, 13.333333%)" stroke-opacity="1" stroke-miterlimit="10" d="M 743.382812 577.191406 L 842.03125 577.191406 "/>
<path fill="none" stroke-width="4.267913" stroke-linecap="butt" stroke-linejoin="round" stroke="rgb(69.803922%, 13.333333%, 13.333333%)" stroke-opacity="1" stroke-miterlimit="10" d="M 743.382812 577.191406 L 842.03125 577.191406 "/>
<path fill="none" stroke-width="4.267913" stroke-linecap="butt" stroke-linejoin="round" stroke="rgb(69.803922%, 13.333333%, 13.333333%)" stroke-opacity="1" stroke-miterlimit="10" d="M 743.382812 577.191406 L 842.03125 577.191406 "/>
<path fill="none" stroke-width="4.267913" stroke-linecap="butt" stroke-linejoin="round" stroke="rgb(69.803922%, 13.333333%, 13.333333%)" stroke-opacity="1" stroke-miterlimit="10" d="M 743.382812 577.191406 L 842.03125 577.191406 "/>
<path fill="none" stroke-width="4.267913" stroke-linecap="butt" stroke-linejoin="round" stroke="rgb(69.803922%, 13.333333%, 13.333333%)" stroke-opacity="1" stroke-miterlimit="10" d="M 743.382812 577.191406 L 842.03125 577.191406 "/>
<path fill="none" stroke-width="4.267913" stroke-linecap="butt" stroke-linejoin="round" stroke="rgb(69.803922%, 13.333333%, 13.333333%)" stroke-opacity="1" stroke-miterlimit="10" d="M 743.382812 577.191406 L 842.03125 577.191406 "/>
<path fill="none" stroke-width="4.267913" stroke-linecap="butt" stroke-linejoin="round" stroke="rgb(69.803922%, 13.333333%, 13.333333%)" stroke-opacity="1" stroke-miterlimit="10" d="M 743.382812 577.191406 L 842.03125 577.191406 "/>
<path fill="none" stroke-width="4.267913" stroke-linecap="butt" stroke-linejoin="round" stroke="rgb(69.803922%, 13.333333%, 13.333333%)" stroke-opacity="1" stroke-miterlimit="10" d="M 743.382812 577.191406 L 842.03125 577.191406 "/>
<path fill="none" stroke-width="4.267913" stroke-linecap="butt" stroke-linejoin="round" stroke="rgb(69.803922%, 13.333333%, 13.333333%)" stroke-opacity="1" stroke-miterlimit="10" d="M 743.382812 577.191406 L 842.03125 577.191406 "/>
<path fill="none" stroke-width="4.267913" stroke-linecap="butt" stroke-linejoin="round" stroke="rgb(69.803922%, 13.333333%, 13.333333%)" stroke-opacity="1" stroke-miterlimit="10" d="M 743.382812 577.191406 L 842.03125 577.191406 "/>
<path fill="none" stroke-width="4.267913" stroke-linecap="butt" stroke-linejoin="round" stroke="rgb(69.803922%, 13.333333%, 13.333333%)" stroke-opacity="1" stroke-miterlimit="10" d="M 743.382812 577.191406 L 842.03125 577.191406 "/>
<path fill="none" stroke-width="4.267913" stroke-linecap="butt" stroke-linejoin="round" stroke="rgb(69.803922%, 13.333333%, 13.333333%)" stroke-opacity="1" stroke-miterlimit="10" d="M 743.382812 577.191406 L 842.03125 577.191406 "/>
<path fill="none" stroke-width="4.267913" stroke-linecap="butt" stroke-linejoin="round" stroke="rgb(69.803922%, 13.333333%, 13.333333%)" stroke-opacity="1" stroke-miterlimit="10" d="M 743.382812 577.191406 L 842.03125 577.191406 "/>
<path fill="none" stroke-width="4.267913" stroke-linecap="butt" stroke-linejoin="round" stroke="rgb(69.803922%, 13.333333%, 13.333333%)" stroke-opacity="1" stroke-miterlimit="10" d="M 743.382812 577.191406 L 842.03125 577.191406 "/>
<g fill="rgb(0%, 0%, 0%)" fill-opacity="1">
<use xlink:href="#glyph-3-1" x="925.679688" y="586.499023"/>
</g>
<g fill="rgb(0%, 0%, 0%)" fill-opacity="1">
<use xlink:href="#glyph-4-1" x="944.679688" y="595.379883"/>
</g>
<g fill="rgb(0%, 0%, 0%)" fill-opacity="1">
<use xlink:href="#glyph-4-2" x="944.679688" y="571.676758"/>
</g>
<path fill-rule="nonzero" fill="rgb(0%, 0%, 0%)" fill-opacity="1" stroke-width="0.708661" stroke-linecap="round" stroke-linejoin="round" stroke="rgb(0%, 0%, 0%)" stroke-opacity="1" stroke-miterlimit="10" d="M 787.847656 541.921875 C 787.847656 545.0625 785.300781 547.609375 782.160156 547.609375 C 779.019531 547.609375 776.472656 545.0625 776.472656 541.921875 C 776.472656 538.777344 779.019531 536.230469 782.160156 536.230469 C 785.300781 536.230469 787.847656 538.777344 787.847656 541.921875 "/>
<path fill-rule="nonzero" fill="rgb(0%, 0%, 0%)" fill-opacity="1" stroke-width="0.708661" stroke-linecap="round" stroke-linejoin="round" stroke="rgb(0%, 0%, 0%)" stroke-opacity="1" stroke-miterlimit="10" d="M 753.597656 506.652344 C 753.597656 509.792969 751.050781 512.339844 747.910156 512.339844 C 744.765625 512.339844 742.21875 509.792969 742.21875 506.652344 C 742.21875 503.507812 744.765625 500.960938 747.910156 500.960938 C 751.050781 500.960938 753.597656 503.507812 753.597656 506.652344 "/>
<path fill-rule="nonzero" fill="rgb(0%, 0%, 0%)" fill-opacity="1" stroke-width="0.708661" stroke-linecap="round" stroke-linejoin="round" stroke="rgb(0%, 0%, 0%)" stroke-opacity="1" stroke-miterlimit="10" d="M 750.171875 471.382812 C 750.171875 474.523438 747.621094 477.070312 744.480469 477.070312 C 741.339844 477.070312 738.792969 474.523438 738.792969 471.382812 C 738.792969 468.238281 741.339844 465.691406 744.480469 465.691406 C 747.621094 465.691406 750.171875 468.238281 750.171875 471.382812 "/>
<path fill-rule="nonzero" fill="rgb(0%, 0%, 0%)" fill-opacity="1" stroke-width="0.708661" stroke-linecap="round" stroke-linejoin="round" stroke="rgb(0%, 0%, 0%)" stroke-opacity="1" stroke-miterlimit="10" d="M 762.101562 436.109375 C 762.101562 439.253906 759.554688 441.800781 756.414062 441.800781 C 753.269531 441.800781 750.722656 439.253906 750.722656 436.109375 C 750.722656 432.96875 753.269531 430.421875 756.414062 430.421875 C 759.554688 430.421875 762.101562 432.96875 762.101562 436.109375 "/>
<path fill-rule="nonzero" fill="rgb(0%, 0%, 0%)" fill-opacity="1" stroke-width="0.708661" stroke-linecap="round" stroke-linejoin="round" stroke="rgb(0%, 0%, 0%)" stroke-opacity="1" stroke-miterlimit="10" d="M 961.042969 400.839844 C 961.042969 403.984375 958.496094 406.53125 955.355469 406.53125 C 952.210938 406.53125 949.664062 403.984375 949.664062 400.839844 C 949.664062 397.699219 952.210938 395.152344 955.355469 395.152344 C 958.496094 395.152344 961.042969 397.699219 961.042969 400.839844 "/>
<path fill-rule="nonzero" fill="rgb(0%, 0%, 0%)" fill-opacity="1" stroke-width="0.708661" stroke-linecap="round" stroke-linejoin="round" stroke="rgb(0%, 0%, 0%)" stroke-opacity="1" stroke-miterlimit="10" d="M 753.371094 365.570312 C 753.371094 368.714844 750.824219 371.261719 747.679688 371.261719 C 744.539062 371.261719 741.992188 368.714844 741.992188 365.570312 C 741.992188 362.429688 744.539062 359.882812 747.679688 359.882812 C 750.824219 359.882812 753.371094 362.429688 753.371094 365.570312 "/>
<path fill-rule="nonzero" fill="rgb(0%, 0%, 0%)" fill-opacity="1" stroke-width="0.708661" stroke-linecap="round" stroke-linejoin="round" stroke="rgb(0%, 0%, 0%)" stroke-opacity="1" stroke-miterlimit="10" d="M 749.546875 330.300781 C 749.546875 333.441406 747 335.992188 743.855469 335.992188 C 740.714844 335.992188 738.167969 333.441406 738.167969 330.300781 C 738.167969 327.160156 740.714844 324.613281 743.855469 324.613281 C 747 324.613281 749.546875 327.160156 749.546875 330.300781 "/>
<path fill-rule="nonzero" fill="rgb(0%, 0%, 0%)" fill-opacity="1" stroke-width="0.708661" stroke-linecap="round" stroke-linejoin="round" stroke="rgb(0%, 0%, 0%)" stroke-opacity="1" stroke-miterlimit="10" d="M 965.007812 295.03125 C 965.007812 298.171875 962.460938 300.71875 959.320312 300.71875 C 956.175781 300.71875 953.628906 298.171875 953.628906 295.03125 C 953.628906 291.890625 956.175781 289.34375 959.320312 289.34375 C 962.460938 289.34375 965.007812 291.890625 965.007812 295.03125 "/>
<path fill-rule="nonzero" fill="rgb(0%, 0%, 0%)" fill-opacity="1" stroke-width="0.708661" stroke-linecap="round" stroke-linejoin="round" stroke="rgb(0%, 0%, 0%)" stroke-opacity="1" stroke-miterlimit="10" d="M 861.714844 259.761719 C 861.714844 262.902344 859.167969 265.449219 856.027344 265.449219 C 852.882812 265.449219 850.335938 262.902344 850.335938 259.761719 C 850.335938 256.617188 852.882812 254.070312 856.027344 254.070312 C 859.167969 254.070312 861.714844 256.617188 861.714844 259.761719 "/>
<path fill-rule="nonzero" fill="rgb(0%, 0%, 0%)" fill-opacity="1" stroke-width="0.708661" stroke-linecap="round" stroke-linejoin="round" stroke="rgb(0%, 0%, 0%)" stroke-opacity="1" stroke-miterlimit="10" d="M 800.75 224.492188 C 800.75 227.632812 798.203125 230.179688 795.0625 230.179688 C 791.917969 230.179688 789.371094 227.632812 789.371094 224.492188 C 789.371094 221.347656 791.917969 218.800781 795.0625 218.800781 C 798.203125 218.800781 800.75 221.347656 800.75 224.492188 "/>
<path fill-rule="nonzero" fill="rgb(0%, 0%, 0%)" fill-opacity="1" stroke-width="0.708661" stroke-linecap="round" stroke-linejoin="round" stroke="rgb(0%, 0%, 0%)" stroke-opacity="1" stroke-miterlimit="10" d="M 941.652344 189.222656 C 941.652344 192.363281 939.105469 194.910156 935.964844 194.910156 C 932.824219 194.910156 930.277344 192.363281 930.277344 189.222656 C 930.277344 186.078125 932.824219 183.53125 935.964844 183.53125 C 939.105469 183.53125 941.652344 186.078125 941.652344 189.222656 "/>
<path fill-rule="nonzero" fill="rgb(0%, 0%, 0%)" fill-opacity="1" stroke-width="0.708661" stroke-linecap="round" stroke-linejoin="round" stroke="rgb(0%, 0%, 0%)" stroke-opacity="1" stroke-miterlimit="10" d="M 751.339844 153.953125 C 751.339844 157.09375 748.792969 159.640625 745.652344 159.640625 C 742.511719 159.640625 739.960938 157.09375 739.960938 153.953125 C 739.960938 150.808594 742.511719 148.261719 745.652344 148.261719 C 748.792969 148.261719 751.339844 150.808594 751.339844 153.953125 "/>
<path fill-rule="nonzero" fill="rgb(0%, 0%, 0%)" fill-opacity="1" stroke-width="0.708661" stroke-linecap="round" stroke-linejoin="round" stroke="rgb(0%, 0%, 0%)" stroke-opacity="1" stroke-miterlimit="10" d="M 938.675781 118.679688 C 938.675781 121.824219 936.128906 124.371094 932.988281 124.371094 C 929.847656 124.371094 927.296875 121.824219 927.296875 118.679688 C 927.296875 115.539062 929.847656 112.992188 932.988281 112.992188 C 936.128906 112.992188 938.675781 115.539062 938.675781 118.679688 "/>
<path fill-rule="nonzero" fill="rgb(0%, 0%, 0%)" fill-opacity="1" stroke-width="0.708661" stroke-linecap="round" stroke-linejoin="round" stroke="rgb(0%, 0%, 0%)" stroke-opacity="1" stroke-miterlimit="10" d="M 1050.683594 83.410156 C 1050.683594 86.554688 1048.136719 89.101562 1044.996094 89.101562 C 1041.851562 89.101562 1039.304688 86.554688 1039.304688 83.410156 C 1039.304688 80.269531 1041.851562 77.722656 1044.996094 77.722656 C 1048.136719 77.722656 1050.683594 80.269531 1050.683594 83.410156 "/>
<path fill-rule="nonzero" fill="rgb(0%, 0%, 0%)" fill-opacity="1" stroke-width="0.708661" stroke-linecap="round" stroke-linejoin="round" stroke="rgb(0%, 0%, 0%)" stroke-opacity="1" stroke-miterlimit="10" d="M 789.644531 48.140625 C 789.644531 51.285156 787.097656 53.832031 783.957031 53.832031 C 780.816406 53.832031 778.269531 51.285156 778.269531 48.140625 C 778.269531 45 780.816406 42.453125 783.957031 42.453125 C 787.097656 42.453125 789.644531 45 789.644531 48.140625 "/>
<g fill="rgb(30.196078%, 30.196078%, 30.196078%)" fill-opacity="1">
<use xlink:href="#glyph-0-2" x="738.882812" y="660.964844"/>
</g>
<g fill="rgb(30.196078%, 30.196078%, 30.196078%)" fill-opacity="1">
<use xlink:href="#glyph-0-3" x="828.53125" y="660.964844"/>
<use xlink:href="#glyph-0-2" x="837.53125" y="660.964844"/>
<use xlink:href="#glyph-0-2" x="846.53125" y="660.964844"/>
</g>
<g fill="rgb(30.196078%, 30.196078%, 30.196078%)" fill-opacity="1">
<use xlink:href="#glyph-0-5" x="927.179688" y="660.964844"/>
<use xlink:href="#glyph-0-2" x="936.179688" y="660.964844"/>
<use xlink:href="#glyph-0-2" x="945.179688" y="660.964844"/>
</g>
<g fill="rgb(30.196078%, 30.196078%, 30.196078%)" fill-opacity="1">
<use xlink:href="#glyph-0-6" x="1025.828125" y="660.964844"/>
<use xlink:href="#glyph-0-2" x="1034.828125" y="660.964844"/>
<use xlink:href="#glyph-0-2" x="1043.828125" y="660.964844"/>
</g>
<g fill="rgb(0%, 0%, 0%)" fill-opacity="1">
<use xlink:href="#glyph-5-1" x="857.910156" y="690.280273"/>
</g>
<g fill="rgb(0%, 0%, 0%)" fill-opacity="1">
<use xlink:href="#glyph-1-1" x="867.910156" y="690.474609"/>
</g>
<g fill="rgb(0%, 0%, 0%)" fill-opacity="1">
<use xlink:href="#glyph-2-1" x="881.6875" y="690.638672"/>
</g>
<g fill="rgb(0%, 0%, 0%)" fill-opacity="1">
<use xlink:href="#glyph-1-1" x="902.464844" y="690.474609"/>
</g>
<path fill="none" stroke-width="0.75" stroke-linecap="round" stroke-linejoin="round" stroke="rgb(0%, 0%, 0%)" stroke-opacity="1" stroke-miterlimit="10" d="M 902.464844 677.074219 L 912.464844 677.074219 "/>
<g fill="rgb(0%, 0%, 0%)" fill-opacity="1">
<use xlink:href="#glyph-5-2" x="912.464844" y="690.280273"/>
</g>
<g fill="rgb(0%, 0%, 0%)" fill-opacity="1">
<use xlink:href="#glyph-6-1" x="922.464844" y="680.405273"/>
</g>
</svg>
